<?xml version="1.0" encoding="UTF-8" standalone="no"?>
<!-- Created with Inkscape (http://www.inkscape.org/) -->

<svg
   xmlns:dc="http://purl.org/dc/elements/1.1/"
   xmlns:cc="http://creativecommons.org/ns#"
   xmlns:rdf="http://www.w3.org/1999/02/22-rdf-syntax-ns#"
   xmlns:svg="http://www.w3.org/2000/svg"
   xmlns="http://www.w3.org/2000/svg"
   xmlns:xlink="http://www.w3.org/1999/xlink"
   xmlns:sodipodi="http://sodipodi.sourceforge.net/DTD/sodipodi-0.dtd"
   xmlns:inkscape="http://www.inkscape.org/namespaces/inkscape"
   width="354"
   height="360"
   id="svg2"
   version="1.1"
   inkscape:version="0.48.2 r9819"
   sodipodi:docname="xn-current-position.svg">
  <defs
     id="defs4">
    <linearGradient
       id="linearGradient3763">
      <stop
         style="stop-color:#d9d9d9;stop-opacity:1;"
         offset="0"
         id="stop3765" />
      <stop
         style="stop-color:#cccccc;stop-opacity:1;"
         offset="1"
         id="stop3767" />
    </linearGradient>
    <linearGradient
       inkscape:collect="always"
       xlink:href="#linearGradient3763"
       id="linearGradient3791"
       gradientUnits="userSpaceOnUse"
       x1="15.693944"
       y1="123.79075"
       x2="338.59177"
       y2="123.79075"
       gradientTransform="translate(-15.528654,762.5368)" />
    <linearGradient
       inkscape:collect="always"
       xlink:href="#linearGradient3763"
       id="linearGradient2999"
       gradientUnits="userSpaceOnUse"
       gradientTransform="translate(4.471346,736.10823)"
       x1="15.693944"
       y1="123.79075"
       x2="338.59177"
       y2="123.79075" />
    <radialGradient
       inkscape:collect="always"
       xlink:href="#linearGradient10691"
       id="radialGradient3069"
       gradientUnits="userSpaceOnUse"
       gradientTransform="matrix(0.74114926,0,0,0.28652284,-0.13337562,-6.9750499)"
       cx="6.702713"
       cy="73.615715"
       fx="6.702713"
       fy="73.615715"
       r="7.228416" />
    <linearGradient
       id="linearGradient10691">
      <stop
         id="stop10693"
         style="stop-color:#000000;stop-opacity:1"
         offset="0" />
      <stop
         id="stop10695"
         style="stop-color:#000000;stop-opacity:0"
         offset="1" />
    </linearGradient>
    <radialGradient
       r="7.228416"
       fy="73.615715"
       fx="6.702713"
       cy="73.615715"
       cx="6.702713"
       gradientTransform="matrix(24.308853,0,0,6.4625652,14.564747,536.97614)"
       gradientUnits="userSpaceOnUse"
       id="radialGradient3089"
       xlink:href="#linearGradient10691"
       inkscape:collect="always" />
  </defs>
  <sodipodi:namedview
     id="base"
     pagecolor="#ffffff"
     bordercolor="#666666"
     borderopacity="1.0"
     inkscape:pageopacity="0.0"
     inkscape:pageshadow="2"
     inkscape:zoom="1.4"
     inkscape:cx="207.71438"
     inkscape:cy="130.31582"
     inkscape:document-units="px"
     inkscape:current-layer="layer1"
     showgrid="false"
     inkscape:window-width="1920"
     inkscape:window-height="1151"
     inkscape:window-x="0"
     inkscape:window-y="25"
     inkscape:window-maximized="1" />
  <metadata
     id="metadata7">
    <rdf:RDF>
      <cc:Work
         rdf:about="">
        <dc:format>image/svg+xml</dc:format>
        <dc:type
           rdf:resource="http://purl.org/dc/dcmitype/StillImage" />
        <dc:title />
      </cc:Work>
    </rdf:RDF>
  </metadata>
  <g
     inkscape:label="Ebene 1"
     inkscape:groupmode="layer"
     id="layer1"
     transform="translate(0,-692.36184)">
    <path
       inkscape:connector-curvature="0"
       style="opacity:0.3;fill:url(#radialGradient3089);fill-opacity:1;fill-rule:nonzero;stroke:none;stroke-width:0.80000001;marker:none;visibility:visible;display:inline;overflow:visible"
       id="path10689"
       d="m 353.21448,1012.7235 c -0.0108,25.7963 -78.677,46.7094 -175.71449,46.7094 -97.037469,0 -175.7046256,-20.9131 -175.7144656,-46.7094 -0.010034,-25.80066 78.6630896,-46.71843 175.7144656,-46.71843 97.05137,0 175.72436,20.91777 175.71449,46.71843 l 0,0 z" />
    <path
       style="fill:url(#linearGradient2999);fill-opacity:1;stroke:#888888;stroke-width:6.1;stroke-miterlimit:4;stroke-opacity:1;stroke-dasharray:none"
       d="m 199.52849,911.75612 c -32.25303,11.14195 -15.96999,117.85268 -49.4729,111.37538 -33.50292,-6.4773 21.38189,-99.42876 -4.39384,-121.78973 -25.77573,-22.36096 -110.048442,45.09595 -121.190398,12.84292 -11.141955,-32.25302 96.798818,-31.19714 103.276108,-64.70005 6.4773,-33.50292 -94.078453,-72.75677 -71.717491,-98.5325 22.360962,-25.77573 75.416921,68.23166 107.669951,57.0897 32.25302,-11.14195 15.96998,-117.85271 49.4729,-111.37542 33.50292,6.4773 -21.38189,99.4288 4.39384,121.78976 25.77573,22.36097 110.04843,-45.09594 121.19039,-12.84291 11.14196,32.25302 -96.79881,31.19713 -103.27611,64.70005 -6.47729,33.50292 94.07845,72.75677 71.71749,98.5325 -22.36096,25.77571 -75.41692,-68.23166 -107.66994,-57.0897 z"
       id="path2991"
       inkscape:connector-curvature="0" />
    <path
       sodipodi:type="arc"
       style="fill:#1f631f;fill-opacity:1;stroke:none"
       id="path3771"
       sodipodi:cx="209.60666"
       sodipodi:cy="218.22871"
       sodipodi:rx="23.738585"
       sodipodi:ry="23.486046"
       d="m 233.34524,218.22871 a 23.738585,23.486046 0 1 1 -47.47717,0 23.738585,23.486046 0 1 1 47.47717,0 z"
       transform="translate(-24.446712,640.79749)" />
  </g>
</svg>
