<?xml version="1.0" encoding="UTF-8" standalone="no"?>
<!-- Created with Inkscape (http://www.inkscape.org/) -->

<svg
   xmlns:dc="http://purl.org/dc/elements/1.1/"
   xmlns:cc="http://creativecommons.org/ns#"
   xmlns:rdf="http://www.w3.org/1999/02/22-rdf-syntax-ns#"
   xmlns:svg="http://www.w3.org/2000/svg"
   xmlns="http://www.w3.org/2000/svg"
   xmlns:xlink="http://www.w3.org/1999/xlink"
   xmlns:sodipodi="http://sodipodi.sourceforge.net/DTD/sodipodi-0.dtd"
   xmlns:inkscape="http://www.inkscape.org/namespaces/inkscape"
   width="424"
   height="407"
   id="svg2"
   version="1.1"
   inkscape:version="0.48.2 r9819"
   sodipodi:docname="xn-current-position.svg">
  <defs
     id="defs4">
    <linearGradient
       id="linearGradient3763">
      <stop
         style="stop-color:#d9d9d9;stop-opacity:1;"
         offset="0"
         id="stop3765" />
      <stop
         style="stop-color:#cccccc;stop-opacity:1;"
         offset="1"
         id="stop3767" />
    </linearGradient>
    <linearGradient
       inkscape:collect="always"
       xlink:href="#linearGradient3763"
       id="linearGradient3791"
       gradientUnits="userSpaceOnUse"
       x1="15.693944"
       y1="123.79075"
       x2="338.59177"
       y2="123.79075"
       gradientTransform="translate(-15.528654,762.5368)" />
    <radialGradient
       inkscape:collect="always"
       xlink:href="#linearGradient10691"
       id="radialGradient3069"
       gradientUnits="userSpaceOnUse"
       gradientTransform="matrix(0.74114926,0,0,0.28652284,-0.13337562,-6.9750499)"
       cx="6.702713"
       cy="73.615715"
       fx="6.702713"
       fy="73.615715"
       r="7.228416" />
    <linearGradient
       id="linearGradient10691">
      <stop
         id="stop10693"
         style="stop-color:#000000;stop-opacity:1"
         offset="0" />
      <stop
         id="stop10695"
         style="stop-color:#000000;stop-opacity:0"
         offset="1" />
    </linearGradient>
    <linearGradient
       inkscape:collect="always"
       xlink:href="#linearGradient3763"
       id="linearGradient3796"
       gradientUnits="userSpaceOnUse"
       x1="-95.04287"
       y1="82.652443"
       x2="277.23517"
       y2="82.652443" />
  </defs>
  <sodipodi:namedview
     id="base"
     pagecolor="#ffffff"
     bordercolor="#666666"
     borderopacity="1.0"
     inkscape:pageopacity="0.0"
     inkscape:pageshadow="2"
     inkscape:zoom="1.4"
     inkscape:cx="28.071523"
     inkscape:cy="187.45868"
     inkscape:document-units="px"
     inkscape:current-layer="layer1"
     showgrid="false"
     inkscape:window-width="1920"
     inkscape:window-height="1151"
     inkscape:window-x="0"
     inkscape:window-y="25"
     inkscape:window-maximized="1" />
  <metadata
     id="metadata7">
    <rdf:RDF>
      <cc:Work
         rdf:about="">
        <dc:format>image/svg+xml</dc:format>
        <dc:type
           rdf:resource="http://purl.org/dc/dcmitype/StillImage" />
        <dc:title />
      </cc:Work>
    </rdf:RDF>
  </metadata>
  <g
     inkscape:label="Ebene 1"
     inkscape:groupmode="layer"
     id="layer1"
     transform="translate(0,-645.36184)">
    <g
       id="g3791"
       transform="translate(132.85714,102.14286)">
      <path
         sodipodi:type="star"
         style="fill:#725c5c;fill-opacity:1;stroke:none"
         id="path3787"
         sodipodi:sides="5"
         sodipodi:cx="83.571426"
         sodipodi:cy="71.428574"
         sodipodi:r1="73.73671"
         sodipodi:r2="194.04398"
         sodipodi:arg1="0.816638"
         sodipodi:arg2="1.4449565"
         inkscape:flatsided="false"
         inkscape:rounded="0.01"
         inkscape:randomized="0"
         d="m 134.05714,125.17143 c -1.02917,0.9668 -24.73076,138.58951 -26.13165,138.76674 C 106.5246,264.11539 49.29739,136.73085 48.059874,136.0508 46.822359,135.37075 -91.388809,155.35696 -91.990259,154.0794 -92.591708,152.80184 10.874016,59.011539 11.138365,57.624447 11.402714,56.237354 -50.314902,-69.033199 -49.285726,-70 -48.256551,-70.966802 72.915992,-1.547847 74.316884,-1.7250715 75.717776,-1.902296 175.78536,-99.309966 177.02288,-98.62992 c 1.23751,0.680046 -27.33946,137.373619 -26.73801,138.651182 0.60145,1.277562 124.16423,66.346868 123.89988,67.733958 -0.26435,1.38709 -139.09843,16.44941 -140.12761,17.41621 z"
         transform="matrix(0.99577178,-0.55072585,0.55072585,0.99577178,-42.880866,744.06046)" />
      <path
         transform="matrix(0.87508117,-0.48397618,0.48397618,0.87508117,-28.62219,746.77505)"
         d="m 134.05714,125.17143 c -1.02917,0.9668 -24.73076,138.58951 -26.13165,138.76674 C 106.5246,264.11539 49.29739,136.73085 48.059874,136.0508 46.822359,135.37075 -91.388809,155.35696 -91.990259,154.0794 -92.591708,152.80184 10.874016,59.011539 11.138365,57.624447 11.402714,56.237354 -50.314902,-69.033199 -49.285726,-70 -48.256551,-70.966802 72.915992,-1.547847 74.316884,-1.7250715 75.717776,-1.902296 175.78536,-99.309966 177.02288,-98.62992 c 1.23751,0.680046 -27.33946,137.373619 -26.73801,138.651182 0.60145,1.277562 124.16423,66.346868 123.89988,67.733958 -0.26435,1.38709 -139.09843,16.44941 -140.12761,17.41621 z"
         inkscape:randomized="0"
         inkscape:rounded="0.01"
         inkscape:flatsided="false"
         sodipodi:arg2="1.4449565"
         sodipodi:arg1="0.816638"
         sodipodi:r2="194.04398"
         sodipodi:r1="73.73671"
         sodipodi:cy="71.428574"
         sodipodi:cx="83.571426"
         sodipodi:sides="5"
         id="path3005"
         style="fill:url(#linearGradient3796);fill-opacity:1;stroke:#888888;stroke-width:6.0999999;stroke-miterlimit:4;stroke-opacity:1;stroke-dasharray:none"
         sodipodi:type="star" />
      <path
         sodipodi:type="star"
         style="fill:#ffffff;fill-opacity:1;stroke:#888888;stroke-width:9.37986755;stroke-miterlimit:4;stroke-opacity:1;stroke-dasharray:none"
         id="path3783"
         sodipodi:sides="5"
         sodipodi:cx="83.571426"
         sodipodi:cy="71.428574"
         sodipodi:r1="73.73671"
         sodipodi:r2="194.04398"
         sodipodi:arg1="0.816638"
         sodipodi:arg2="1.4449565"
         inkscape:flatsided="false"
         inkscape:rounded="0.01"
         inkscape:randomized="0"
         d="m 134.05714,125.17143 c -1.02917,0.9668 -24.73076,138.58951 -26.13165,138.76674 C 106.5246,264.11539 49.29739,136.73085 48.059874,136.0508 46.822359,135.37075 -91.388809,155.35696 -91.990259,154.0794 -92.591708,152.80184 10.874016,59.011539 11.138365,57.624447 11.402714,56.237354 -50.314902,-69.033199 -49.285726,-70 -48.256551,-70.966802 72.915992,-1.547847 74.316884,-1.7250715 75.717776,-1.902296 175.78536,-99.309966 177.02288,-98.62992 c 1.23751,0.680046 -27.33946,137.373619 -26.73801,138.651182 0.60145,1.277562 124.16423,66.346868 123.89988,67.733958 -0.26435,1.38709 -139.09843,16.44941 -140.12761,17.41621 z"
         transform="matrix(0.55976131,-0.30958402,0.30958402,0.55976131,9.6729938,755.36008)" />
    </g>
  </g>
</svg>
