<?xml version="1.0" encoding="UTF-8" standalone="no"?>
<svg xmlns:dc="http://purl.org/dc/elements/1.1/" xmlns:cc="http://creativecommons.org/ns#" xmlns:rdf="http://www.w3.org/1999/02/22-rdf-syntax-ns#" xmlns:svg="http://www.w3.org/2000/svg" xmlns="http://www.w3.org/2000/svg" xmlns:xlink="http://www.w3.org/1999/xlink" xmlns:sodipodi="http://sodipodi.sourceforge.net/DTD/sodipodi-0.dtd" xmlns:inkscape="http://www.inkscape.org/namespaces/inkscape" version="1.0" width="64" height="64" viewBox="0 0 51.2 51.2" preserveAspectRatio="xMidYMid meet" id="svg2" inkscape:version="0.48.3.1 r9886" sodipodi:docname="xn-equalizer.svg">
   <defs id="defs24">
      <radialGradient inkscape:collect="always" xlink:href="#linearGradient10691" id="radialGradient3250" gradientUnits="userSpaceOnUse" gradientTransform="matrix(0.74114926,0,0,0.28652284,-0.13337562,-6.9750499)" cx="6.702713" cy="73.615715" fx="6.702713" fy="73.615715" r="7.228416" />
      <linearGradient id="linearGradient10691">
         <stop id="stop10693" style="stop-color:#000000;stop-opacity:1" offset="0" />
         <stop id="stop10695" style="stop-color:#000000;stop-opacity:0" offset="1" />
      </linearGradient>
      <radialGradient r="7.228416" fy="73.615715" fx="6.702713" cy="73.615715" cx="6.702713" gradientTransform="matrix(3.9089606,0,0,1.5025779,1.987759,13.432859)" gradientUnits="userSpaceOnUse" id="radialGradient3287" xlink:href="#linearGradient10691" inkscape:collect="always" />
      <radialGradient r="7.228416" fy="73.615715" fx="6.702713" cy="73.615715" cx="6.702713" gradientTransform="matrix(3.9089606,0,0,1.5025779,1.987759,13.432859)" gradientUnits="userSpaceOnUse" id="radialGradient3287-4" xlink:href="#linearGradient10691-3" inkscape:collect="always" />
      <linearGradient id="linearGradient10691-3">
         <stop id="stop10693-3" style="stop-color:#000000;stop-opacity:1" offset="0" />
         <stop id="stop10695-6" style="stop-color:#000000;stop-opacity:0" offset="1" />
      </linearGradient>
      <radialGradient r="7.228416" fy="73.615715" fx="6.702713" cy="73.615715" cx="6.702713" gradientTransform="matrix(3.9089606,0,0,1.5025779,40.14759,13.049369)" gradientUnits="userSpaceOnUse" id="radialGradient3321" xlink:href="#linearGradient10691-3" inkscape:collect="always" />
      <radialGradient r="7.228416" fy="73.615715" fx="6.702713" cy="73.615715" cx="6.702713" gradientTransform="matrix(3.9089606,0,0,1.5025779,40.14759,13.049369)" gradientUnits="userSpaceOnUse" id="radialGradient3321-6" xlink:href="#linearGradient10691-3-3" inkscape:collect="always" />
      <linearGradient id="linearGradient10691-3-3">
         <stop id="stop10693-3-7" style="stop-color:#000000;stop-opacity:1" offset="0" />
         <stop id="stop10695-6-8" style="stop-color:#000000;stop-opacity:0" offset="1" />
      </linearGradient>
      <radialGradient r="7.228416" fy="73.615715" fx="6.702713" cy="73.615715" cx="6.702713" gradientTransform="matrix(3.9089606,0,0,1.5025779,81.89289,12.738593)" gradientUnits="userSpaceOnUse" id="radialGradient3355" xlink:href="#linearGradient10691-3-3" inkscape:collect="always" />
      <radialGradient inkscape:collect="always" xlink:href="#linearGradient10691-3-3" id="radialGradient3387" gradientUnits="userSpaceOnUse" gradientTransform="matrix(3.9089606,0,0,1.5025779,81.89289,12.738593)" cx="6.702713" cy="73.615715" fx="6.702713" fy="73.615715" r="7.228416" />
      <radialGradient inkscape:collect="always" xlink:href="#linearGradient10691-3" id="radialGradient3389" gradientUnits="userSpaceOnUse" gradientTransform="matrix(3.9089606,0,0,1.5025779,40.14759,13.049369)" cx="6.702713" cy="73.615715" fx="6.702713" fy="73.615715" r="7.228416" />
      <radialGradient inkscape:collect="always" xlink:href="#linearGradient10691" id="radialGradient3391" gradientUnits="userSpaceOnUse" gradientTransform="matrix(3.9089606,0,0,1.5025779,1.987759,13.432859)" cx="6.702713" cy="73.615715" fx="6.702713" fy="73.615715" r="7.228416" />
      <radialGradient inkscape:collect="always" xlink:href="#linearGradient10691" id="radialGradient3402" gradientUnits="userSpaceOnUse" gradientTransform="matrix(3.9089606,0,0,1.5025779,2.3712745,12.665829)" cx="6.702713" cy="73.615715" fx="6.702713" fy="73.615715" r="7.228416" />
      <radialGradient inkscape:collect="always" xlink:href="#linearGradient10691-3" id="radialGradient3405" gradientUnits="userSpaceOnUse" gradientTransform="matrix(3.9089606,0,0,1.5025779,40.531106,12.665855)" cx="6.702713" cy="73.615715" fx="6.702713" fy="73.615715" r="7.228416" />
      <radialGradient inkscape:collect="always" xlink:href="#linearGradient10691-3-3" id="radialGradient3408" gradientUnits="userSpaceOnUse" gradientTransform="matrix(3.9089606,0,0,1.5025779,80.676406,12.804531)" cx="6.702713" cy="73.615715" fx="6.702713" fy="73.615715" r="7.228416" />
      <radialGradient inkscape:collect="always" xlink:href="#linearGradient10691" id="radialGradient3023" gradientUnits="userSpaceOnUse" gradientTransform="matrix(3.9089606,0,0,1.5025779,2.3712745,12.665829)" cx="6.702713" cy="73.615715" fx="6.702713" fy="73.615715" r="7.228416" />
      <radialGradient inkscape:collect="always" xlink:href="#linearGradient10691-3" id="radialGradient3026" gradientUnits="userSpaceOnUse" gradientTransform="matrix(3.9089606,0,0,1.5025779,40.531106,12.665855)" cx="6.702713" cy="73.615715" fx="6.702713" fy="73.615715" r="7.228416" />
      <radialGradient inkscape:collect="always" xlink:href="#linearGradient10691-3-3" id="radialGradient3029" gradientUnits="userSpaceOnUse" gradientTransform="matrix(3.9089606,0,0,1.5025779,80.676406,12.804531)" cx="6.702713" cy="73.615715" fx="6.702713" fy="73.615715" r="7.228416" />
   </defs>
   <sodipodi:namedview pagecolor="#ffffff" bordercolor="#666666" borderopacity="1" objecttolerance="10" gridtolerance="10" guidetolerance="10" inkscape:pageopacity="0" inkscape:pageshadow="2" inkscape:window-width="1366" inkscape:window-height="743" id="namedview22" showgrid="true" inkscape:zoom="5.9" inkscape:cx="19.704368" inkscape:cy="21.03161" inkscape:window-x="0" inkscape:window-y="-2" inkscape:window-maximized="1" inkscape:current-layer="svg2">
      <inkscape:grid type="xygrid" id="grid8151" empspacing="5" visible="true" enabled="true" snapvisiblegridlinesonly="true" />
   </sodipodi:namedview>
   <metadata id="metadata4">
Created by potrace 1.10, written by Peter Selinger 2001-2011
<rdf:RDF>
   <cc:Work rdf:about="">
      <dc:format>image/svg+xml</dc:format>
      <dc:type rdf:resource="http://purl.org/dc/dcmitype/StillImage" />
   </cc:Work>
</rdf:RDF>
</metadata>
   <g id="g3806" transform="matrix(0.37432364,0,0,0.37432364,0.19791329,0.81451409)">
      <path d="m 135.13264,123.41773 c -0.002,5.9981 -12.65157,10.86018 -28.25558,10.86018 -15.604025,0 -28.25403,-4.86208 -28.255612,-10.86018 -0.0016,-5.99895 12.649352,-10.86234 28.255612,-10.86234 15.60624,0 28.25717,4.86339 28.25558,10.86234 l 0,0 z" id="path10689-6-3" style="opacity:0.3;fill:url(#radialGradient3029);fill-opacity:1;fill-rule:nonzero;stroke:none;stroke-width:0.80000001;marker:none;visibility:visible;display:inline;overflow:visible" inkscape:connector-curvature="0" />
      <path d="m 94.987336,123.27907 c -0.0016,5.9981 -12.65157,10.86018 -28.255585,10.86018 -15.604016,0 -28.254021,-4.86208 -28.255603,-10.86018 -0.0016,-5.99895 12.649352,-10.86234 28.255603,-10.86234 15.606249,0 28.257173,4.86339 28.255585,10.86234 l 0,0 z" id="path10689-6" style="opacity:0.3;fill:url(#radialGradient3026);fill-opacity:1;fill-rule:nonzero;stroke:none;stroke-width:0.80000001;marker:none;visibility:visible;display:inline;overflow:visible" inkscape:connector-curvature="0" />
      <path d="m 56.827499,123.27911 c -0.0016,5.9981 -12.651571,10.86018 -28.255586,10.86018 -15.604015,0 -28.25401189,-4.86208 -28.25559389,-10.86018 -0.00162,-5.99895 12.64934389,-10.86234 28.25559389,-10.86234 15.60625,0 28.257174,4.86339 28.255586,10.86234 l 0,0 z" id="path10689" style="opacity:0.3;fill:url(#radialGradient3023);fill-opacity:1;fill-rule:nonzero;stroke:none;stroke-width:0.80000001;marker:none;visibility:visible;display:inline;overflow:visible" inkscape:connector-curvature="0" />
      <path sodipodi:nodetypes="cccccccccc" inkscape:connector-curvature="0" id="path8" d="m 22.349444,7.3089463 c -1.217636,0.8760235 -1.408408,2.3275748 -1.535743,3.5865537 -0.116841,4.659157 -0.01414,9.319694 -0.04219,13.979571 0,1.173602 0,2.347206 0,3.520808 5.245621,0 10.491242,0 15.736861,0 -0.02986,-5.824101 0.07159,-11.649968 -0.07708,-17.472855 C 36.308769,9.6544819 36.030071,8.2494233 34.930699,7.3083855 33.785829,6.5067261 31.561621,6.6896833 29.877943,6.6646262 27.65367,6.7309312 25.071119,6.5749839 23.194638,6.9624578 22.896365,7.045683 22.608505,7.1586653 22.349444,7.3089463 z" style="fill:#d6cccc;fill-opacity:1;stroke:#7a7a7a;stroke-width:2.3367703;stroke-miterlimit:4;stroke-opacity:1;stroke-dasharray:none" />
      <path inkscape:connector-curvature="0" id="path12" d="m 101.03617,7.5102019 c -2.631239,1.6453037 -1.60177,5.0929741 -1.8424,7.5499061 0.22344,26.08182 0.0814,52.166879 0.12423,78.249958 5.21187,0 10.42376,0 15.63563,0 -0.0218,-28.063454 0.0585,-56.127043 -0.0742,-84.1903737 -1.87066,-3.6658782 -7.53292,-1.9268205 -11.20263,-2.3272264 -0.92615,0.077775 -1.85013,0.2929498 -2.64065,0.717736 z" style="fill:#d6cccc;fill-opacity:1;stroke:#7a7a7a;stroke-width:2.32530236;stroke-miterlimit:4;stroke-opacity:1;stroke-dasharray:none" />
      <path inkscape:connector-curvature="0" id="path16" d="m 20.770456,85.982813 c 0.100074,10.164469 -0.203536,20.343087 0.186851,30.498527 0.605449,2.59641 4.082106,3.0575 6.688781,2.85947 2.858021,-0.0947 6.813837,0.5651 8.350501,-2.0851 0.966753,-2.39462 0.25918,-5.00335 0.452718,-7.4855 -0.09774,-17.640633 -0.06291,-35.281506 -0.0689,-52.922264 -5.203315,0 -10.406634,0 -15.609949,0 -2e-6,9.711622 -5e-6,19.423245 -6e-6,29.134867 z" style="fill:#d6cccc;fill-opacity:1;stroke:#7a7a7a;stroke-width:2.32676721;stroke-miterlimit:4;stroke-opacity:1;stroke-dasharray:none" />
      <path inkscape:connector-curvature="0" id="path20" d="m 92.515305,100.63212 c -2.024963,3.38888 -1.689616,7.61076 -1.237524,11.41319 0.449072,2.72425 2.111144,5.40912 4.593584,6.41447 2.669342,0.89704 5.510135,0.52988 8.263255,0.65454 4.56683,-0.0354 9.13893,10e-4 13.70063,-0.23971 2.64089,-0.23317 4.41862,-2.79255 5.17975,-5.28767 0.80046,-2.53089 0.5416,-5.2261 0.49878,-7.84285 -0.13596,-1.78034 -0.57388,-3.53667 -1.30677,-5.14417 -2.25877,-2.614168 -5.83012,-2.703293 -8.92413,-2.923332 -5.25768,-0.324179 -10.58729,-0.54728 -15.797698,0.408302 -1.749819,0.585231 -3.690264,1.028687 -4.969877,2.54723 z" style="fill:#d6cccc;fill-opacity:1;stroke:#7a7a7a;stroke-width:2.07360005;stroke-miterlimit:4;stroke-opacity:1;stroke-dasharray:none" />
      <path inkscape:connector-curvature="0" id="path12-5" d="m 61.602588,7.2531589 c -2.631246,1.6453036 -1.601792,5.0929741 -1.842415,7.5499051 0.223434,26.081819 0.0814,52.166874 0.124174,78.249952 5.211872,0 10.423782,0 15.635682,0 C 75.498173,64.989564 75.578547,36.925977 75.445923,8.8626492 73.575246,5.1967723 67.912961,6.9358289 64.243215,6.535423 63.317082,6.6131979 62.393101,6.8283728 61.602592,7.2531589 z" style="fill:#d6cccc;fill-opacity:1;stroke:#7a7a7a;stroke-width:2.32530856;stroke-miterlimit:4;stroke-opacity:1;stroke-dasharray:none" />
      <path inkscape:connector-curvature="0" id="path20-2" d="m 52.924869,100.52923 c -2.024963,3.38887 -1.689616,7.61076 -1.237524,11.41319 0.449072,2.72425 2.111145,5.40912 4.593585,6.41446 2.669341,0.89705 5.510122,0.52989 8.263187,0.65455 4.566763,-0.0354 9.138793,10e-4 13.700433,-0.23972 2.640845,-0.23317 4.418557,-2.79255 5.179675,-5.28766 0.80044,-2.53089 0.541583,-5.2261 0.498766,-7.84285 -0.135956,-1.78034 -0.573874,-3.53667 -1.306744,-5.14416 -2.258738,-2.614176 -5.830035,-2.703301 -8.924005,-2.92334 -5.257599,-0.324179 -10.587131,-0.547279 -15.797496,0.408302 -1.749819,0.585232 -3.690264,1.028687 -4.969877,2.547228 z" style="fill:#d6cccc;fill-opacity:1;stroke:#7a7a7a;stroke-width:2.07360005;stroke-miterlimit:4;stroke-opacity:1;stroke-dasharray:none" />
      <path inkscape:connector-curvature="0" id="path20-2-5" d="m 13.001797,34.959281 c -2.024963,3.388876 -1.689617,7.610759 -1.237525,11.413188 0.449072,2.724248 2.111146,5.409123 4.593586,6.414465 2.669341,0.89705 5.510122,0.529885 8.263187,0.654548 4.566763,-0.03542 9.138794,10e-4 13.700433,-0.239716 2.640845,-0.233171 4.418557,-2.792551 5.179675,-5.287667 0.80044,-2.530892 0.541583,-5.226102 0.498766,-7.842846 -0.135956,-1.780342 -0.573874,-3.536671 -1.306744,-5.144164 -2.258738,-2.614172 -5.830035,-2.703297 -8.924005,-2.923336 -5.257599,-0.324179 -10.587131,-0.547279 -15.797496,0.408302 -1.749819,0.585231 -3.690264,1.028687 -4.969877,2.547226 z" style="fill:#d6cccc;fill-opacity:1;stroke:#7a7a7a;stroke-width:2.07360005;stroke-miterlimit:4;stroke-opacity:1;stroke-dasharray:none" />
   </g>
</svg>
