<?xml version="1.0" encoding="UTF-8" standalone="no"?>
<!-- Created with Inkscape (http://www.inkscape.org/) -->

<svg
   xmlns:dc="http://purl.org/dc/elements/1.1/"
   xmlns:cc="http://creativecommons.org/ns#"
   xmlns:rdf="http://www.w3.org/1999/02/22-rdf-syntax-ns#"
   xmlns:svg="http://www.w3.org/2000/svg"
   xmlns="http://www.w3.org/2000/svg"
   xmlns:sodipodi="http://sodipodi.sourceforge.net/DTD/sodipodi-0.dtd"
   xmlns:inkscape="http://www.inkscape.org/namespaces/inkscape"
   id="svg7384"
   height="16"
   width="16"
   version="1.1"
   inkscape:version="0.48.4 r9939"
   sodipodi:docname="xn-media-skip-forward-symbolic.svg">
  <defs
     id="defs12" />
  <sodipodi:namedview
     pagecolor="#ffffff"
     bordercolor="#666666"
     borderopacity="1"
     objecttolerance="10"
     gridtolerance="10"
     guidetolerance="10"
     inkscape:pageopacity="0"
     inkscape:pageshadow="2"
     inkscape:window-width="640"
     inkscape:window-height="480"
     id="namedview10"
     showgrid="false"
     inkscape:zoom="14.75"
     inkscape:cx="8"
     inkscape:cy="8"
     inkscape:window-x="0"
     inkscape:window-y="0"
     inkscape:window-maximized="0"
     inkscape:current-layer="svg7384" />
  <metadata
     id="metadata90">
    <rdf:RDF>
      <cc:Work
         rdf:about="">
        <dc:format>image/svg+xml</dc:format>
        <dc:type
           rdf:resource="http://purl.org/dc/dcmitype/StillImage" />
        <dc:title>Gnome Symbolic Icon Theme</dc:title>
      </cc:Work>
    </rdf:RDF>
  </metadata>
  <title
     id="title9167">Gnome Symbolic Icon Theme</title>
  <g
     id="g2996">
    <path
       inkscape:connector-curvature="0"
       d="m 3,4 c 0.17738,0.008 0.35117,0.0592 0.5,0.15625 l 5,3 C 8.7824,7.33596 8.9375,7.66798 8.9375,8 8.9375,8.33202 8.7824,8.66404 8.5,8.84375 l -5,3 C 3.35117,11.94075 3.17738,11.992 3,12 H 2.84375 2 V 4 h 0.84375 z"
       style="text-indent:0;text-transform:none;block-progression:tb;color:#000000;fill:#bebebe"
       id="path3807-1-1-4-90" />
    <path
       inkscape:connector-curvature="0"
       d="m 10,4 c 0.17738,0.008 0.35117,0.0592 0.5,0.15625 l 5,3 C 15.7824,7.33596 15.9375,7.66798 15.9375,8 c 0,0.33202 -0.1551,0.66404 -0.4375,0.84375 l -5,3 C 10.35117,11.94075 10.17738,11.992 10,12 H 9.84375 9 V 4 h 0.84375 z"
       style="text-indent:0;text-transform:none;block-progression:tb;color:#000000;fill:#bebebe"
       id="path3807-1-1-4-7-8" />
  </g>
</svg>
