<?xml version="1.0" encoding="UTF-8" standalone="no"?>
<!-- Created with Inkscape (http://www.inkscape.org/) -->

<svg
   xmlns:dc="http://purl.org/dc/elements/1.1/"
   xmlns:cc="http://creativecommons.org/ns#"
   xmlns:rdf="http://www.w3.org/1999/02/22-rdf-syntax-ns#"
   xmlns:svg="http://www.w3.org/2000/svg"
   xmlns="http://www.w3.org/2000/svg"
   xmlns:sodipodi="http://sodipodi.sourceforge.net/DTD/sodipodi-0.dtd"
   xmlns:inkscape="http://www.inkscape.org/namespaces/inkscape"
   id="svg7384"
   height="16"
   width="16"
   version="1.1"
   inkscape:version="0.48.4 r9939"
   sodipodi:docname="xn-media-skip-backward-symbolic.svg">
  <defs
     id="defs12" />
  <sodipodi:namedview
     pagecolor="#ffffff"
     bordercolor="#666666"
     borderopacity="1"
     objecttolerance="10"
     gridtolerance="10"
     guidetolerance="10"
     inkscape:pageopacity="0"
     inkscape:pageshadow="2"
     inkscape:window-width="1366"
     inkscape:window-height="744"
     id="namedview10"
     showgrid="false"
     inkscape:zoom="14.75"
     inkscape:cx="8.2711864"
     inkscape:cy="8"
     inkscape:window-x="0"
     inkscape:window-y="0"
     inkscape:window-maximized="1"
     inkscape:current-layer="svg7384" />
  <metadata
     id="metadata90">
    <rdf:RDF>
      <cc:Work
         rdf:about="">
        <dc:format>image/svg+xml</dc:format>
        <dc:type
           rdf:resource="http://purl.org/dc/dcmitype/StillImage" />
        <dc:title>Gnome Symbolic Icon Theme</dc:title>
      </cc:Work>
    </rdf:RDF>
  </metadata>
  <title
     id="title9167">Gnome Symbolic Icon Theme</title>
  <g
     id="g2984">
    <path
       inkscape:connector-curvature="0"
       d="m 13,4 c -0.17738,0.008 -0.35117,0.0592 -0.5,0.15625 l -5,3 C 7.2176,7.33596 7.0625,7.66798 7.0625,8 c 0,0.33202 0.1551,0.66404 0.4375,0.84375 l 5,3 C 12.64883,11.94075 12.82262,11.992 13,12 H 13.15625 14 V 4 h -0.84375 z"
       style="text-indent:0;text-transform:none;block-progression:tb;color:#000000;fill:#bebebe"
       id="path3807-1-1-4" />
    <path
       inkscape:connector-curvature="0"
       d="M 6,4 C 5.82262,4.008 5.64883,4.0592 5.5,4.15625 l -5,3 C 0.2176,7.33596 0.0625,7.66798 0.0625,8 c 0,0.33202 0.1551,0.66404 0.4375,0.84375 l 5,3 C 5.64883,11.94075 5.82262,11.992 6,12 H 6.15625 7 V 4 H 6.15625 z"
       style="text-indent:0;text-transform:none;block-progression:tb;color:#000000;fill:#bebebe"
       id="path3807-1-1-4-7" />
  </g>
</svg>
