<?xml version="1.0" encoding="UTF-8" standalone="no"?>
<!-- Created with Inkscape (http://www.inkscape.org/) -->

<svg
   xmlns:dc="http://purl.org/dc/elements/1.1/"
   xmlns:cc="http://creativecommons.org/ns#"
   xmlns:rdf="http://www.w3.org/1999/02/22-rdf-syntax-ns#"
   xmlns:svg="http://www.w3.org/2000/svg"
   xmlns="http://www.w3.org/2000/svg"
   xmlns:sodipodi="http://sodipodi.sourceforge.net/DTD/sodipodi-0.dtd"
   xmlns:inkscape="http://www.inkscape.org/namespaces/inkscape"
   version="1.1"
   width="48"
   height="48"
   id="svg3147"
   inkscape:version="0.48.2 r9819"
   sodipodi:docname="xn-playlist.svg">
  <sodipodi:namedview
     pagecolor="#ffffff"
     bordercolor="#666666"
     borderopacity="1"
     objecttolerance="10"
     gridtolerance="10"
     guidetolerance="10"
     inkscape:pageopacity="0"
     inkscape:pageshadow="2"
     inkscape:window-width="1920"
     inkscape:window-height="1151"
     id="namedview27"
     showgrid="false"
     inkscape:zoom="3.088068"
     inkscape:cx="-69.734202"
     inkscape:cy="38.97629"
     inkscape:window-x="0"
     inkscape:window-y="25"
     inkscape:window-maximized="1"
     inkscape:current-layer="svg3147">
    <inkscape:grid
       type="xygrid"
       id="grid3049"
       empspacing="5"
       visible="true"
       enabled="true"
       snapvisiblegridlinesonly="true" />
  </sodipodi:namedview>
  <defs
     id="defs3149">
    <linearGradient
       id="linearGradient3977">
      <stop
         id="stop3979"
         style="stop-color:#ffffff;stop-opacity:1"
         offset="0" />
      <stop
         id="stop3981"
         style="stop-color:#ffffff;stop-opacity:0.23529412"
         offset="0.03626217" />
      <stop
         id="stop3983"
         style="stop-color:#ffffff;stop-opacity:0.15686275"
         offset="0.95056331" />
      <stop
         id="stop3985"
         style="stop-color:#ffffff;stop-opacity:0.39215687"
         offset="1" />
    </linearGradient>
    <linearGradient
       id="linearGradient2867-449-88-871-390-598-476-591-434-148-57-177-8-7">
      <stop
         offset="0"
         style="stop-color:#90dbec;stop-opacity:1;"
         id="stop3750-1-6" />
      <stop
         offset="0.26238"
         style="stop-color:#55c1ec;stop-opacity:1;"
         id="stop3752-3-5" />
      <stop
         offset="0.704952"
         style="stop-color:#3689e6;stop-opacity:1;"
         id="stop3754-1-6" />
      <stop
         offset="1"
         style="stop-color:#2b63a0;stop-opacity:1;"
         id="stop3756-1-9" />
    </linearGradient>
    <linearGradient
       id="linearGradient3707-319-631-407-324-3-7">
      <stop
         offset="0"
         style="stop-color:#185f9a;stop-opacity:1;"
         id="stop3760-4-4" />
      <stop
         offset="1"
         style="stop-color:#599ec9;stop-opacity:1;"
         id="stop3762-0-5" />
    </linearGradient>
  </defs>
  <metadata
     id="metadata3152">
    <rdf:RDF>
      <cc:Work
         rdf:about="">
        <dc:format>image/svg+xml</dc:format>
        <dc:type
           rdf:resource="http://purl.org/dc/dcmitype/StillImage" />
        <dc:title />
      </cc:Work>
    </rdf:RDF>
  </metadata>
  <g
     id="g3007"
     transform="matrix(2.9617192,0,0,2.9890919,-0.21523595,-95.457829)">
    <g
       transform="matrix(1.1129174,0,0,1.0424148,-0.8224512,31.491332)"
       id="g3790">
      <path
         inkscape:connector-curvature="0"
         style="color:#000000;fill:#cccccc;fill-opacity:1;fill-rule:nonzero;stroke:#6b5e5e;stroke-width:1.0773046;stroke-linecap:butt;stroke-linejoin:round;stroke-miterlimit:4;stroke-opacity:1;stroke-dasharray:none;stroke-dashoffset:0;marker:none;visibility:visible;display:inline;overflow:visible;enable-background:accumulate"
         id="path4160"
         d="m 1.3589022,1.0791859 c 3.0919756,0 13.4931778,9.026e-4 13.4931778,9.026e-4 l 1.6e-5,14.1913265 c 0,0 -8.9954626,0 -13.4931938,0 0,-4.730743 0,-9.4614864 0,-14.1922291 z" />
      <path
         style="fill:#ffffff;fill-opacity:1;stroke:none"
         d="M 8.2841441,3.8279887 C 7.8586062,3.8039706 7.7931764,4.2647495 7.8380865,4.5707542 l 0,6.0140418 c -0.2610514,-0.05485 -0.6016692,-0.0314 -0.8959838,0.05544 -0.8843063,0.235263 -1.67046,1.034726 -1.5975451,1.955666 0.1021941,0.862408 1.1239334,1.425071 1.9662982,1.168943 0.9542645,-0.225906 1.5075441,-1.055033 1.5075441,-2.125189 l 0,-4.7611263 c 0.7927638,0.4191605 1.5066551,1.2024363 1.4903421,2.1252211 0.0086,0.6670359 -0.178415,1.3340712 -0.4426515,1.9412622 -0.035555,0.0733 0.04188,0.14513 0.09903,0.172957 0.1530145,0.04274 0.2325145,-0.15786 0.3189955,-0.25231 C 11.205075,9.63088 11.26465,7.8162451 10.270609,6.6030961 9.9178335,6.1722984 9.4584105,5.805397 9.2178145,5.3050253 8.976952,4.9201711 8.8243052,4.4847604 8.7501369,4.0456141 8.6529767,3.8868855 8.4677264,3.8265296 8.2841441,3.8279887 z"
         id="path3926"
         inkscape:connector-curvature="0"
         sodipodi:nodetypes="cccccccccccccccc" />
      <path
         style="fill:#6b5e5e;fill-opacity:1;stroke:none"
         d="M 8.2841441,2.8386205 C 7.8586062,2.8146024 7.7931764,3.2753813 7.8380865,3.581386 l 0,6.0140423 c -0.2610514,-0.05485 -0.6016692,-0.0314 -0.8959838,0.05544 -0.8843063,0.2352632 -1.67046,1.0347257 -1.5975451,1.9556657 0.1021941,0.862408 1.1239334,1.425071 1.9662982,1.168943 0.9542645,-0.225906 1.5075441,-1.055033 1.5075441,-2.125189 l 0,-4.7611265 c 0.7927638,0.4191605 1.5066551,1.2024363 1.4903421,2.1252211 0.0086,0.6670359 -0.178415,1.3340717 -0.4426515,1.9412629 -0.035555,0.07331 0.04188,0.1451295 0.09903,0.1729565 C 10.118135,10.171342 10.197635,9.9707425 10.284116,9.8762925 11.205075,8.6415118 11.26465,6.8268769 10.270609,5.6137279 9.9178335,5.1829302 9.4584105,4.8160288 9.2178145,4.3156571 8.976952,3.9308029 8.8243052,3.4953922 8.7501369,3.0562459 8.6529767,2.8975173 8.4677264,2.8371614 8.2841441,2.8386205 z"
         id="path3926-2"
         inkscape:connector-curvature="0"
         sodipodi:nodetypes="cccccccccccccccc" />
    </g>
  </g>
</svg>
