<?xml version="1.0" encoding="UTF-8" standalone="no"?>
<!-- Created with Inkscape (http://www.inkscape.org/) -->

<svg xmlns:dc="http://purl.org/dc/elements/1.1/" xmlns:cc="http://creativecommons.org/ns#" xmlns:rdf="http://www.w3.org/1999/02/22-rdf-syntax-ns#" xmlns:svg="http://www.w3.org/2000/svg" xmlns="http://www.w3.org/2000/svg" xmlns:sodipodi="http://sodipodi.sourceforge.net/DTD/sodipodi-0.dtd" xmlns:inkscape="http://www.inkscape.org/namespaces/inkscape" version="1.1" width="16" height="16" id="svg7384" inkscape:version="0.48.4 r9939" sodipodi:docname="xn-repeat-all-symbolic.svg">
   <sodipodi:namedview pagecolor="#ffffff" bordercolor="#666666" borderopacity="1" objecttolerance="10" gridtolerance="10" guidetolerance="10" inkscape:pageopacity="0" inkscape:pageshadow="2" inkscape:window-width="1366" inkscape:window-height="741" id="namedview7" showgrid="false" inkscape:zoom="11.313708" inkscape:cx="20.743564" inkscape:cy="18.95129" inkscape:window-x="0" inkscape:window-y="1" inkscape:window-maximized="1" inkscape:current-layer="svg7384" showguides="true" inkscape:guide-bbox="true" inkscape:object-nodes="true">
      <inkscape:grid type="xygrid" id="grid3025" />
   </sodipodi:namedview>
   <title id="title9167">Gnome Symbolic Icon Theme</title>
   <defs id="defs11" />
   <metadata id="metadata90">
      <rdf:RDF>
         <cc:Work rdf:about="">
            <dc:format>image/svg+xml</dc:format>
            <dc:type rdf:resource="http://purl.org/dc/dcmitype/StillImage" />
            <dc:title>Gnome Symbolic Icon Theme</dc:title>
         </cc:Work>
      </rdf:RDF>
   </metadata>
   <path style="font-size:medium;font-style:normal;font-variant:normal;font-weight:normal;font-stretch:normal;text-indent:0;text-align:start;text-decoration:none;line-height:normal;letter-spacing:normal;word-spacing:normal;text-transform:none;direction:ltr;block-progression:tb;writing-mode:lr-tb;text-anchor:start;baseline-shift:baseline;color:black;fill:black;fill-opacity:1;stroke:none;stroke-width:2;marker:none;visibility:visible;display:inline;overflow:visible;enable-background:accumulate;font-family:Sans;-inkscape-font-specification:Sans" d="M 8 0 C 4.6932972 0 2 2.6932972 2 6 L 4 6 C 4 3.7667028 5.7667028 2 8 2 C 10.233297 2 12 3.7667028 12 6 L 10 6 L 13 9 L 16 6 L 14 6 C 14 2.6932972 11.306703 0 8 0 z M 3 7 L 0 10 L 2 10 C 2 13.306703 4.6932972 16 8 16 C 11.306703 16 14 13.306703 14 10 L 12 10 C 12 12.233297 10.233297 14 8 14 C 5.7667028 14 4 12.233297 4 10 L 6 10 L 3 7 z " id="rect6901" />
</svg>
