<?xml version="1.0" encoding="UTF-8" standalone="no"?>
<!-- Created with Inkscape (http://www.inkscape.org/) -->

<svg xmlns:dc="http://purl.org/dc/elements/1.1/" xmlns:cc="http://creativecommons.org/ns#" xmlns:rdf="http://www.w3.org/1999/02/22-rdf-syntax-ns#" xmlns:svg="http://www.w3.org/2000/svg" xmlns="http://www.w3.org/2000/svg" xmlns:sodipodi="http://sodipodi.sourceforge.net/DTD/sodipodi-0.dtd" xmlns:inkscape="http://www.inkscape.org/namespaces/inkscape" version="1.1" width="16" height="16" id="svg7384" inkscape:version="0.48.4 r9939" sodipodi:docname="xn-repeat-single-symbolic.svg">
   <sodipodi:namedview pagecolor="#ffffff" bordercolor="#666666" borderopacity="1" objecttolerance="10" gridtolerance="10" guidetolerance="10" inkscape:pageopacity="0" inkscape:pageshadow="2" inkscape:window-width="1366" inkscape:window-height="741" id="namedview7" showgrid="true" inkscape:zoom="12.042912" inkscape:cx="-2.6662112" inkscape:cy="3.5460853" inkscape:window-x="0" inkscape:window-y="1" inkscape:window-maximized="1" inkscape:current-layer="g3889" showguides="true" inkscape:guide-bbox="true" inkscape:snap-grids="true" inkscape:object-nodes="true">
      <inkscape:grid type="xygrid" id="grid3025" />
   </sodipodi:namedview>
   <title id="title9167">Gnome Symbolic Icon Theme</title>
   <defs id="defs11" />
   <metadata id="metadata90">
      <rdf:RDF>
         <cc:Work rdf:about="">
            <dc:format>image/svg+xml</dc:format>
            <dc:type rdf:resource="http://purl.org/dc/dcmitype/StillImage" />
            <dc:title>Gnome Symbolic Icon Theme</dc:title>
         </cc:Work>
      </rdf:RDF>
   </metadata>
   <g id="g3889">
      <path style="font-size:medium;font-style:normal;font-variant:normal;font-weight:normal;font-stretch:normal;text-indent:0;text-align:start;text-decoration:none;line-height:normal;letter-spacing:normal;word-spacing:normal;text-transform:none;direction:ltr;block-progression:tb;writing-mode:lr-tb;text-anchor:start;baseline-shift:baseline;color:black;fill:black;fill-opacity:1;stroke:none;stroke-width:2;marker:none;visibility:visible;display:inline;overflow:visible;enable-background:accumulate;font-family:Sans;-inkscape-font-specification:Sans" d="M 3,6 -10e-8,10 l 2,0 c 0,3.306703 2.693297,6 6.0000003,6 C 11.306703,16 14,13.306703 14,10 l -2,0 c 0,2.233297 -1.766703,4 -3.9999998,4 C 5.766703,14 3.9999999,12.233297 3.9999999,10 l 2.0000003,0 z" id="rect6901" inkscape:connector-curvature="0" sodipodi:nodetypes="cccsccsccc" />
      <path style="fill:black;fill-opacity:1;stroke:none" d="M 10,1 C 7.790861,1 6,2.790861 6,5 6,7.209139 7.790861,9 10,9 12.209139,9 14,7.209139 14,5 14,2.790861 12.209139,1 10,1 z m -1,1 1,0 1,0 0,6 -1,0 0,-5 -1,0 0,-1 z" id="path6969" inkscape:connector-curvature="0" />
   </g>
</svg>
