<?xml version="1.0" encoding="UTF-8" standalone="no"?>
<!-- Created with Inkscape (http://www.inkscape.org/) -->

<svg
   xmlns:dc="http://purl.org/dc/elements/1.1/"
   xmlns:cc="http://creativecommons.org/ns#"
   xmlns:rdf="http://www.w3.org/1999/02/22-rdf-syntax-ns#"
   xmlns:svg="http://www.w3.org/2000/svg"
   xmlns="http://www.w3.org/2000/svg"
   xmlns:sodipodi="http://sodipodi.sourceforge.net/DTD/sodipodi-0.dtd"
   xmlns:inkscape="http://www.inkscape.org/namespaces/inkscape"
   version="1.1"
   width="16"
   height="16"
   id="svg7384"
   inkscape:version="0.48.3.1 r9886"
   sodipodi:docname="xn-repeat-all-symbolic.svg">
  <sodipodi:namedview
     pagecolor="#ffffff"
     bordercolor="#666666"
     borderopacity="1"
     objecttolerance="10"
     gridtolerance="10"
     guidetolerance="10"
     inkscape:pageopacity="0"
     inkscape:pageshadow="2"
     inkscape:window-width="1313"
     inkscape:window-height="744"
     id="namedview7"
     showgrid="true"
     inkscape:zoom="27.960145"
     inkscape:cx="-0.73186128"
     inkscape:cy="8.5244619"
     inkscape:window-x="53"
     inkscape:window-y="24"
     inkscape:window-maximized="1"
     inkscape:current-layer="svg7384"
     showguides="true"
     inkscape:guide-bbox="true">
    <inkscape:grid
       type="xygrid"
       id="grid3025" />
  </sodipodi:namedview>
  <title
     id="title9167">Gnome Symbolic Icon Theme</title>
  <defs
     id="defs11" />
  <metadata
     id="metadata90">
    <rdf:RDF>
      <cc:Work
         rdf:about="">
        <dc:format>image/svg+xml</dc:format>
        <dc:type
           rdf:resource="http://purl.org/dc/dcmitype/StillImage" />
        <dc:title>Gnome Symbolic Icon Theme</dc:title>
      </cc:Work>
    </rdf:RDF>
  </metadata>
  <path
     style="color:#bebebe;fill-opacity:1;fill-rule:nonzero;marker:none;visibility:visible;display:inline;overflow:visible;enable-background:accumulate"
     d="m 15.999949,6.2435306 -2.286396,0.00185 -0.0013,-0.8749993 C 13.709004,2.9466305 11.156983,0.99744159 7.9903254,1 4.8236681,1.0025584 2.2770284,2.9558665 2.2803711,5.3796146 l 2.2863951,-0.00185 C 4.5647562,3.9235168 6.0927444,2.751532 7.9927388,2.7499968 9.8927328,2.7484662 11.423945,3.9179751 11.425952,5.372224 l 0.0013,0.8749993 -2.286395,0.00185 3.434397,3.4972262 L 16,6.2435297 z m -2.280362,4.3768444 -2.286395,0.0019 c 0.002,1.454248 -1.5259783,2.626232 -3.4259727,2.627767 -1.8999944,0.0016 -3.4312072,-1.167978 -3.4332128,-2.622227 L 4.5727865,9.7527832 6.8591816,9.7509165 3.4247658,6.2536911 0,9.7564596 l 2.2863951,-0.00187 0.00122,0.8749991 C 2.2909551,13.053369 4.8429792,15.002557 8.0096365,15 11.176294,14.99748 13.722933,13.044133 13.719591,10.620387 z"
     id="rect3815"
     inkscape:connector-curvature="0" />
</svg>
