<?xml version="1.0" encoding="UTF-8" standalone="no"?>
<!-- Created with Inkscape (http://www.inkscape.org/) -->

<svg
   xmlns:dc="http://purl.org/dc/elements/1.1/"
   xmlns:cc="http://creativecommons.org/ns#"
   xmlns:rdf="http://www.w3.org/1999/02/22-rdf-syntax-ns#"
   xmlns:svg="http://www.w3.org/2000/svg"
   xmlns="http://www.w3.org/2000/svg"
   xmlns:sodipodi="http://sodipodi.sourceforge.net/DTD/sodipodi-0.dtd"
   xmlns:inkscape="http://www.inkscape.org/namespaces/inkscape"
   version="1.1"
   width="16"
   height="16"
   id="svg7384"
   inkscape:version="0.48.3.1 r9886"
   sodipodi:docname="xn-shuffle-symbolic.svg">
  <sodipodi:namedview
     pagecolor="#ffffff"
     bordercolor="#666666"
     borderopacity="1"
     objecttolerance="10"
     gridtolerance="10"
     guidetolerance="10"
     inkscape:pageopacity="0"
     inkscape:pageshadow="2"
     inkscape:window-width="1313"
     inkscape:window-height="744"
     id="namedview7"
     showgrid="false"
     inkscape:zoom="29.5"
     inkscape:cx="6.9322034"
     inkscape:cy="7.7568961"
     inkscape:window-x="53"
     inkscape:window-y="24"
     inkscape:window-maximized="1"
     inkscape:current-layer="svg7384" />
  <title
     id="title9167">Gnome Symbolic Icon Theme</title>
  <defs
     id="defs11" />
  <metadata
     id="metadata90">
    <rdf:RDF>
      <cc:Work
         rdf:about="">
        <dc:format>image/svg+xml</dc:format>
        <dc:type
           rdf:resource="http://purl.org/dc/dcmitype/StillImage" />
        <dc:title>Gnome Symbolic Icon Theme</dc:title>
      </cc:Work>
    </rdf:RDF>
  </metadata>
  <path
     d="m 0.16631631,5.0000001 2.22190959,0 c 0,2.9810322 8.2710851,6.0242149 8.2710851,8.0000009 l 0,1.999999 2.757028,0 0,-1.999999 c 0,-2.993665 -8.271085,-5.9959121 -8.271085,-8.0000009 l 2.3214666,0 L 3.7667399,1 z M 2.1808379,15 l 2.7570281,0 0,-1.999999 C 4.937866,12.418419 5.6926912,11.737743 6.7040871,11 6.523199,10.879552 6.3598457,10.748193 6.1871443,10.625001 5.7387562,10.31775 5.2725565,9.997478 4.8086303,9.6875003 3.3547289,10.759448 2.1808379,11.877376 2.1808379,13.000001 z M 8.4125113,5.0210189 10.659311,5.0000001 c 0,0.591346 -0.750936,1.2919558 -1.766222,2.03125 0.6275951,0.4239884 1.262693,0.857166 1.895456,1.2812501 1.453904,-1.0758009 2.627794,-2.1946131 2.627794,-3.3125001 l 2.321466,0 L 12.037825,1 z"
     id="rect3815-7-4"
     style="color:#bebebe;fill-opacity:1;fill-rule:nonzero;marker:none;visibility:visible;display:inline;overflow:visible;enable-background:accumulate"
     inkscape:connector-curvature="0"
     sodipodi:nodetypes="ccsccsccccccscccsccccccccc" />
</svg>
