<?xml version="1.0" encoding="UTF-8" standalone="no"?>
<!-- Created with Inkscape (http://www.inkscape.org/) -->

<svg
   xmlns:dc="http://purl.org/dc/elements/1.1/"
   xmlns:cc="http://creativecommons.org/ns#"
   xmlns:rdf="http://www.w3.org/1999/02/22-rdf-syntax-ns#"
   xmlns:svg="http://www.w3.org/2000/svg"
   xmlns="http://www.w3.org/2000/svg"
   xmlns:sodipodi="http://sodipodi.sourceforge.net/DTD/sodipodi-0.dtd"
   xmlns:inkscape="http://www.inkscape.org/namespaces/inkscape"
   version="1.1"
   width="16"
   height="16"
   id="svg7384"
   inkscape:version="0.48.3.1 r9886"
   sodipodi:docname="xn-shuffle-symbolic.svg">
  <sodipodi:namedview
     pagecolor="#ffffff"
     bordercolor="#666666"
     borderopacity="1"
     objecttolerance="10"
     gridtolerance="10"
     guidetolerance="10"
     inkscape:pageopacity="0"
     inkscape:pageshadow="2"
     inkscape:window-width="1313"
     inkscape:window-height="744"
     id="namedview7"
     showgrid="false"
     inkscape:zoom="29.5"
     inkscape:cx="6.9322034"
     inkscape:cy="7.7568961"
     inkscape:window-x="53"
     inkscape:window-y="24"
     inkscape:window-maximized="1"
     inkscape:current-layer="svg7384" />
  <title
     id="title9167">Gnome Symbolic Icon Theme</title>
  <defs
     id="defs11" />
  <metadata
     id="metadata90">
    <rdf:RDF>
      <cc:Work
         rdf:about="">
        <dc:format>image/svg+xml</dc:format>
        <dc:type
           rdf:resource="http://purl.org/dc/dcmitype/StillImage" />
        <dc:title>Gnome Symbolic Icon Theme</dc:title>
      </cc:Work>
    </rdf:RDF>
  </metadata>
  <path
     d="m 0.16631631,4.6027875 2.22190959,0 c 0,3.3995513 8.2710851,6.8699795 8.2710851,9.1231525 l 0,2.280788 2.757028,0 0,-2.280788 c 0,-3.413957 -8.271085,-6.8377016 -8.271085,-9.1231525 l 2.3214666,0 -3.6999807,-4.56157635 z m 2.01452159,11.4039405 2.7570281,0 0,-2.280788 c 0,-0.663232 0.7548252,-1.439471 1.7662211,-2.280788 C 6.523199,11.307793 6.3598457,11.157993 6.1871443,11.017504 5.7387562,10.667118 5.2725565,10.301882 4.8086303,9.9483848 3.3547289,11.170828 2.1808379,12.445706 2.1808379,13.72594 z M 8.4125113,4.6267572 10.659311,4.6027875 c 0,0.6743675 -0.750936,1.4733387 -1.766222,2.3164254 0.6275951,0.4835138 1.262693,0.9775069 1.895456,1.46113 1.453904,-1.226837 2.627794,-2.5027237 2.627794,-3.7775554 l 2.321466,0 -3.69998,-4.56157635 z"
     id="rect3815-7-4"
     style="opacity:1;color:#bebebe;fill-opacity:1;fill-rule:nonzero;marker:none;visibility:visible;display:inline;overflow:visible;enable-background:accumulate"
     inkscape:connector-curvature="0"
     sodipodi:nodetypes="ccsccsccccccscccsccccccccc" />
</svg>
