<?xml version="1.0" encoding="UTF-8" standalone="no"?>
<!-- Created with Inkscape (http://www.inkscape.org/) -->

<svg
   xmlns:dc="http://purl.org/dc/elements/1.1/"
   xmlns:cc="http://creativecommons.org/ns#"
   xmlns:rdf="http://www.w3.org/1999/02/22-rdf-syntax-ns#"
   xmlns:svg="http://www.w3.org/2000/svg"
   xmlns="http://www.w3.org/2000/svg"
   xmlns:sodipodi="http://sodipodi.sourceforge.net/DTD/sodipodi-0.dtd"
   xmlns:inkscape="http://www.inkscape.org/namespaces/inkscape"
   version="1.1"
   width="16"
   height="16.000496"
   id="svg7384"
   inkscape:version="0.48.1 r9760"
   sodipodi:docname="xnoise-panel.svg">
  <metadata
     id="metadata14">
    <rdf:RDF>
      <cc:Work
         rdf:about="">
        <dc:format>image/svg+xml</dc:format>
        <dc:type
           rdf:resource="http://purl.org/dc/dcmitype/StillImage" />
        <dc:title>Moblin Icon Theme</dc:title>
      </cc:Work>
    </rdf:RDF>
  </metadata>
  <sodipodi:namedview
     pagecolor="#ffffff"
     bordercolor="#666666"
     borderopacity="1"
     objecttolerance="10"
     gridtolerance="10"
     guidetolerance="10"
     inkscape:pageopacity="0"
     inkscape:pageshadow="2"
     inkscape:window-width="1920"
     inkscape:window-height="1151"
     id="namedview12"
     showgrid="false"
     showborder="false"
     inkscape:snap-bbox="true"
     inkscape:zoom="8.6549453"
     inkscape:cx="-45.969471"
     inkscape:cy="10.640371"
     inkscape:window-x="0"
     inkscape:window-y="25"
     inkscape:window-maximized="1"
     inkscape:current-layer="svg7384">
    <inkscape:grid
       type="xygrid"
       id="grid2822"
       empspacing="5"
       visible="true"
       enabled="true"
       snapvisiblegridlinesonly="true" />
  </sodipodi:namedview>
  <title
     id="title9167">Moblin Icon Theme</title>
  <defs
     id="defs7386" />
  <g
     transform="translate(-19.99975,-235.99975)"
     id="layer2" />
  <g
     id="g3789">
    <g
       style="opacity:0.50000000000000000;fill:#ffffff;fill-opacity:1"
       id="g3779"
       transform="matrix(1,0,0,0.97316448,-0.70922667,0.09500852)">
      <g
         style="fill:#ffffff;fill-opacity:1"
         transform="translate(-14,0)"
         id="g3781">
        <path
           inkscape:connector-curvature="0"
           id="path3783"
           d="m 27.013577,0.51140983 c 0.841234,-0.0148066 1.849315,0.31449879 2.099134,1.21390397 0.499135,0.8790842 -0.491251,1.2637102 -1.016546,1.7827582 -3.993259,3.5272104 -7.410242,7.690288 -10.22211,12.210182 -0.715769,-0.05679 -1.713263,-0.04291 -2.025501,-0.844129 -0.328473,-0.720953 -0.231764,-1.447054 0.501944,-1.846764 3.741646,-3.5553972 7.370825,-7.3093541 10.158,-11.6784394 0.173064,-0.2762965 0.341679,-0.55538882 0.505079,-0.83751177 z M 15.502822,2.3593283 c 0.116912,-0.6879318 0.309085,-1.60021325 1.120718,-1.75726759 0.804681,-0.27540007 1.508746,-0.0147915 1.832008,0.78201109 3.20521,4.3611484 6.619399,8.6127211 10.640411,12.2551812 -0.0084,0.660076 0.0033,1.669667 -0.836868,1.813049 C 27.489825,15.601813 26.6394,15.583511 26.387173,14.706207 23.342419,10.118942 19.486119,6.1329645 15.502822,2.3593283 z"
           style="fill:#ffffff;fill-opacity:1;stroke:none" />
      </g>
      <path
         sodipodi:nodetypes="cccc"
         inkscape:connector-curvature="0"
         id="path3785"
         d="M 1.829101,4.215326 C 3.466069,5.8097599 3.908837,6.5270852 5.58418,8.2014863 L 2.002412,11.725483 z"
         style="fill:#ffffff;fill-opacity:1;stroke:none" />
      <path
         sodipodi:nodetypes="cccc"
         inkscape:connector-curvature="0"
         id="path3787"
         d="M 15.048409,11.848067 C 13.4264,10.238417 12.990349,9.5169896 11.330714,7.8270184 L 14.94523,4.336619 z"
         style="fill:#ffffff;fill-opacity:1;stroke:none" />
    </g>
    <path
       style="color:#000000;fill:none;stroke:none;stroke-width:1;marker:none;visibility:visible;display:inline;overflow:visible;enable-background:accumulate"
       d="m 0,4.9591064e-4 16,0 0,16.00000008936 -16,0 L 0,4.9591064e-4 z"
       id="rect3877-3"
       inkscape:connector-curvature="0" />
    <g
       style="fill:#959595;fill-opacity:1"
       transform="matrix(1,0,0,0.97316448,-0.32679896,0.09500852)"
       id="g3827">
      <g
         style="fill:#959595;fill-opacity:1"
         id="g3792"
         transform="translate(-14,0)">
        <path
           style="fill:#959595;fill-opacity:1;stroke:none"
           d="m 27.013577,0.51140983 c 0.841234,-0.0148066 1.849315,0.31449879 2.099134,1.21390397 0.499135,0.8790842 -0.491251,1.2637102 -1.016546,1.7827582 -3.993259,3.5272104 -7.410242,7.690288 -10.22211,12.210182 -0.715769,-0.05679 -1.713263,-0.04291 -2.025501,-0.844129 -0.328473,-0.720953 -0.231764,-1.447054 0.501944,-1.846764 3.741646,-3.5553972 7.370825,-7.3093541 10.158,-11.6784394 0.173064,-0.2762965 0.341679,-0.55538882 0.505079,-0.83751177 z M 15.502822,2.3593283 c 0.116912,-0.6879318 0.309085,-1.60021325 1.120718,-1.75726759 0.804681,-0.27540007 1.508746,-0.0147915 1.832008,0.78201109 3.20521,4.3611484 6.619399,8.6127211 10.640411,12.2551812 -0.0084,0.660076 0.0033,1.669667 -0.836868,1.813049 C 27.489825,15.601813 26.6394,15.583511 26.387173,14.706207 23.342419,10.118942 19.486119,6.1329645 15.502822,2.3593283 z"
           id="rect3004-2"
           inkscape:connector-curvature="0" />
      </g>
      <path
         style="fill:#959595;fill-opacity:1;stroke:none"
         d="M 1.829101,4.215326 C 3.466069,5.8097599 3.908837,6.5270852 5.58418,8.2014863 L 2.002412,11.725483 z"
         id="rect3805"
         inkscape:connector-curvature="0"
         sodipodi:nodetypes="cccc" />
      <path
         style="fill:#959595;fill-opacity:1;stroke:none"
         d="M 15.048409,11.848067 C 13.4264,10.238417 12.990349,9.5169896 11.330714,7.8270184 L 14.94523,4.336619 z"
         id="rect3805-1"
         inkscape:connector-curvature="0"
         sodipodi:nodetypes="cccc" />
    </g>
  </g>
</svg>
