<?xml version="1.0" encoding="UTF-8" standalone="no"?>
<!-- Created with Inkscape (http://www.inkscape.org/) -->

<svg
   xmlns:dc="http://purl.org/dc/elements/1.1/"
   xmlns:cc="http://creativecommons.org/ns#"
   xmlns:rdf="http://www.w3.org/1999/02/22-rdf-syntax-ns#"
   xmlns:svg="http://www.w3.org/2000/svg"
   xmlns="http://www.w3.org/2000/svg"
   xmlns:xlink="http://www.w3.org/1999/xlink"
   xmlns:sodipodi="http://sodipodi.sourceforge.net/DTD/sodipodi-0.dtd"
   xmlns:inkscape="http://www.inkscape.org/namespaces/inkscape"
   width="500"
   height="500"
   id="svg2"
   version="1.1"
   inkscape:version="0.47 r22583"
   sodipodi:docname="xnoise.svg"
   inkscape:export-filename="/mnt/files/l/xnoise/data/icons/256x256/xnoise.png"
   inkscape:export-xdpi="46.080002"
   inkscape:export-ydpi="46.080002">
  <defs
     id="defs4">
    <inkscape:path-effect
       effect="skeletal"
       id="path-effect2886"
       is_visible="true"
       pattern="M 0,0 1,0"
       copytype="single_stretched"
       prop_scale="1"
       scale_y_rel="false"
       spacing="0"
       normal_offset="0"
       tang_offset="0"
       prop_units="false"
       vertical_pattern="false"
       fuse_tolerance="0" />
    <inkscape:path-effect
       effect="ruler"
       id="path-effect2884"
       is_visible="true"
       unit="px"
       mark_distance="20"
       mark_length="14"
       minor_mark_length="7"
       major_mark_steps="5"
       shift="0"
       offset="0"
       mark_dir="left"
       border_marks="both" />
    <inkscape:perspective
       sodipodi:type="inkscape:persp3d"
       inkscape:vp_x="0 : 526.18109 : 1"
       inkscape:vp_y="0 : 1000 : 0"
       inkscape:vp_z="744.09448 : 526.18109 : 1"
       inkscape:persp3d-origin="372.04724 : 350.78739 : 1"
       id="perspective10" />
    <inkscape:perspective
       sodipodi:type="inkscape:persp3d"
       inkscape:vp_x="0 : 0.5 : 1"
       inkscape:vp_y="0 : 1000 : 0"
       inkscape:vp_z="1 : 0.5 : 1"
       inkscape:persp3d-origin="0.5 : 0.33333333 : 1"
       id="perspective5432" />
    <inkscape:perspective
       sodipodi:type="inkscape:persp3d"
       inkscape:vp_x="0 : 0.5 : 1"
       inkscape:vp_y="0 : 1000 : 0"
       inkscape:vp_z="1 : 0.5 : 1"
       inkscape:persp3d-origin="0.5 : 0.33333333 : 1"
       id="perspective5410" />
    <inkscape:perspective
       sodipodi:type="inkscape:persp3d"
       inkscape:vp_x="0 : 0.5 : 1"
       inkscape:vp_y="0 : 1000 : 0"
       inkscape:vp_z="1 : 0.5 : 1"
       inkscape:persp3d-origin="0.5 : 0.33333333 : 1"
       id="perspective5386" />
    <inkscape:perspective
       sodipodi:type="inkscape:persp3d"
       inkscape:vp_x="0 : 0.5 : 1"
       inkscape:vp_y="0 : 1000 : 0"
       inkscape:vp_z="1 : 0.5 : 1"
       inkscape:persp3d-origin="0.5 : 0.33333333 : 1"
       id="perspective5362" />
    <inkscape:perspective
       sodipodi:type="inkscape:persp3d"
       inkscape:vp_x="0 : 0.5 : 1"
       inkscape:vp_y="0 : 1000 : 0"
       inkscape:vp_z="1 : 0.5 : 1"
       inkscape:persp3d-origin="0.5 : 0.33333333 : 1"
       id="perspective4805" />
    <inkscape:perspective
       sodipodi:type="inkscape:persp3d"
       inkscape:vp_x="0 : 0.5 : 1"
       inkscape:vp_y="0 : 1000 : 0"
       inkscape:vp_z="1 : 0.5 : 1"
       inkscape:persp3d-origin="0.5 : 0.33333333 : 1"
       id="perspective4300" />
    <inkscape:perspective
       sodipodi:type="inkscape:persp3d"
       inkscape:vp_x="0 : 0.5 : 1"
       inkscape:vp_y="0 : 1000 : 0"
       inkscape:vp_z="1 : 0.5 : 1"
       inkscape:persp3d-origin="0.5 : 0.33333333 : 1"
       id="perspective3936" />
    <inkscape:perspective
       sodipodi:type="inkscape:persp3d"
       inkscape:vp_x="0 : 0.5 : 1"
       inkscape:vp_y="0 : 1000 : 0"
       inkscape:vp_z="1 : 0.5 : 1"
       inkscape:persp3d-origin="0.5 : 0.33333333 : 1"
       id="perspective3784" />
    <inkscape:perspective
       sodipodi:type="inkscape:persp3d"
       inkscape:vp_x="0 : 0.5 : 1"
       inkscape:vp_y="0 : 1000 : 0"
       inkscape:vp_z="1 : 0.5 : 1"
       inkscape:persp3d-origin="0.5 : 0.33333333 : 1"
       id="perspective3733" />
    <inkscape:perspective
       sodipodi:type="inkscape:persp3d"
       inkscape:vp_x="0 : 0.5 : 1"
       inkscape:vp_y="0 : 1000 : 0"
       inkscape:vp_z="1 : 0.5 : 1"
       inkscape:persp3d-origin="0.5 : 0.33333333 : 1"
       id="perspective3711" />
    <inkscape:perspective
       sodipodi:type="inkscape:persp3d"
       inkscape:vp_x="0 : 0.5 : 1"
       inkscape:vp_y="0 : 1000 : 0"
       inkscape:vp_z="1 : 0.5 : 1"
       inkscape:persp3d-origin="0.5 : 0.33333333 : 1"
       id="perspective3679" />
    <inkscape:perspective
       sodipodi:type="inkscape:persp3d"
       inkscape:vp_x="0 : 0.5 : 1"
       inkscape:vp_y="0 : 1000 : 0"
       inkscape:vp_z="1 : 0.5 : 1"
       inkscape:persp3d-origin="0.5 : 0.33333333 : 1"
       id="perspective3657" />
    <inkscape:perspective
       sodipodi:type="inkscape:persp3d"
       inkscape:vp_x="0 : 0.5 : 1"
       inkscape:vp_y="0 : 1000 : 0"
       inkscape:vp_z="1 : 0.5 : 1"
       inkscape:persp3d-origin="0.5 : 0.33333333 : 1"
       id="perspective3624" />
    <inkscape:perspective
       sodipodi:type="inkscape:persp3d"
       inkscape:vp_x="0 : 0.5 : 1"
       inkscape:vp_y="0 : 1000 : 0"
       inkscape:vp_z="1 : 0.5 : 1"
       inkscape:persp3d-origin="0.5 : 0.33333333 : 1"
       id="perspective3602" />
    <inkscape:perspective
       id="perspective10-8"
       inkscape:persp3d-origin="372.04724 : 350.78739 : 1"
       inkscape:vp_z="744.09448 : 526.18109 : 1"
       inkscape:vp_y="0 : 1000 : 0"
       inkscape:vp_x="0 : 526.18109 : 1"
       sodipodi:type="inkscape:persp3d" />
    <inkscape:perspective
       id="perspective3839"
       inkscape:persp3d-origin="0.5 : 0.33333333 : 1"
       inkscape:vp_z="1 : 0.5 : 1"
       inkscape:vp_y="0 : 1000 : 0"
       inkscape:vp_x="0 : 0.5 : 1"
       sodipodi:type="inkscape:persp3d" />
    <inkscape:perspective
       id="perspective3899"
       inkscape:persp3d-origin="0.5 : 0.33333333 : 1"
       inkscape:vp_z="1 : 0.5 : 1"
       inkscape:vp_y="0 : 1000 : 0"
       inkscape:vp_x="0 : 0.5 : 1"
       sodipodi:type="inkscape:persp3d" />
    <inkscape:perspective
       id="perspective3921"
       inkscape:persp3d-origin="0.5 : 0.33333333 : 1"
       inkscape:vp_z="1 : 0.5 : 1"
       inkscape:vp_y="0 : 1000 : 0"
       inkscape:vp_x="0 : 0.5 : 1"
       sodipodi:type="inkscape:persp3d" />
    <inkscape:perspective
       id="perspective3946"
       inkscape:persp3d-origin="0.5 : 0.33333333 : 1"
       inkscape:vp_z="1 : 0.5 : 1"
       inkscape:vp_y="0 : 1000 : 0"
       inkscape:vp_x="0 : 0.5 : 1"
       sodipodi:type="inkscape:persp3d" />
    <inkscape:perspective
       id="perspective3974"
       inkscape:persp3d-origin="0.5 : 0.33333333 : 1"
       inkscape:vp_z="1 : 0.5 : 1"
       inkscape:vp_y="0 : 1000 : 0"
       inkscape:vp_x="0 : 0.5 : 1"
       sodipodi:type="inkscape:persp3d" />
    <inkscape:perspective
       id="perspective3974-7"
       inkscape:persp3d-origin="0.5 : 0.33333333 : 1"
       inkscape:vp_z="1 : 0.5 : 1"
       inkscape:vp_y="0 : 1000 : 0"
       inkscape:vp_x="0 : 0.5 : 1"
       sodipodi:type="inkscape:persp3d" />
    <inkscape:perspective
       sodipodi:type="inkscape:persp3d"
       inkscape:vp_x="0 : 0.5 : 1"
       inkscape:vp_y="0 : 1000 : 0"
       inkscape:vp_z="1 : 0.5 : 1"
       inkscape:persp3d-origin="0.5 : 0.33333333 : 1"
       id="perspective3395" />
    <inkscape:perspective
       sodipodi:type="inkscape:persp3d"
       inkscape:vp_x="0 : 0.5 : 1"
       inkscape:vp_y="0 : 1000 : 0"
       inkscape:vp_z="1 : 0.5 : 1"
       inkscape:persp3d-origin="0.5 : 0.33333333 : 1"
       id="perspective2941" />
    <inkscape:perspective
       sodipodi:type="inkscape:persp3d"
       inkscape:vp_x="0 : 0.5 : 1"
       inkscape:vp_y="0 : 1000 : 0"
       inkscape:vp_z="1 : 0.5 : 1"
       inkscape:persp3d-origin="0.5 : 0.33333333 : 1"
       id="perspective2848" />
    <inkscape:perspective
       sodipodi:type="inkscape:persp3d"
       inkscape:vp_x="0 : 0.5 : 1"
       inkscape:vp_y="0 : 1000 : 0"
       inkscape:vp_z="1 : 0.5 : 1"
       inkscape:persp3d-origin="0.5 : 0.33333333 : 1"
       id="perspective2824" />
    <inkscape:perspective
       id="perspective10-1"
       inkscape:persp3d-origin="372.04724 : 350.78739 : 1"
       inkscape:vp_z="744.09448 : 526.18109 : 1"
       inkscape:vp_y="0 : 1000 : 0"
       inkscape:vp_x="0 : 526.18109 : 1"
       sodipodi:type="inkscape:persp3d" />
    <inkscape:perspective
       id="perspective3901"
       inkscape:persp3d-origin="0.5 : 0.33333333 : 1"
       inkscape:vp_z="1 : 0.5 : 1"
       inkscape:vp_y="0 : 1000 : 0"
       inkscape:vp_x="0 : 0.5 : 1"
       sodipodi:type="inkscape:persp3d" />
  </defs>
  <sodipodi:namedview
     id="base"
     pagecolor="#ffffff"
     bordercolor="#666666"
     borderopacity="1.0"
     inkscape:pageopacity="0.0"
     inkscape:pageshadow="2"
     inkscape:zoom="0.175"
     inkscape:cx="1169.376"
     inkscape:cy="-229.24924"
     inkscape:document-units="px"
     inkscape:current-layer="layer1"
     showgrid="false"
     inkscape:window-width="1190"
     inkscape:window-height="825"
     inkscape:window-x="82"
     inkscape:window-y="148"
     inkscape:window-maximized="0">
    <inkscape:grid
       type="xygrid"
       id="grid4041"
       empspacing="5"
       visible="true"
       enabled="true"
       snapvisiblegridlinesonly="true" />
  </sodipodi:namedview>
  <metadata
     id="metadata7">
    <rdf:RDF>
      <cc:Work
         rdf:about="">
        <dc:format>image/svg+xml</dc:format>
        <dc:type
           rdf:resource="http://purl.org/dc/dcmitype/StillImage" />
        <dc:title></dc:title>
      </cc:Work>
    </rdf:RDF>
  </metadata>
  <g
     inkscape:groupmode="layer"
     id="layer4"
     inkscape:label="back"
     transform="translate(0,-552.36218)" />
  <g
     inkscape:groupmode="layer"
     id="layer5"
     inkscape:label="middle"
     transform="translate(0,-552.36218)" />
  <g
     inkscape:label="Layer 1"
     inkscape:groupmode="layer"
     id="layer1"
     transform="translate(0,-552.36218)">
    <g
       id="layer1-2"
       inkscape:label="Layer 1"
       transform="translate(1016.5237,288.61796)">
      <image
         xlink:href="file:///home/andi/Desktop/slash_001.jpeg"
         width="1098"
         height="1105.7142"
         id="image2826"
         x="-2243.2859"
         y="3319.5051" />
      <path
         sodipodi:nodetypes="cccccccccccccccccccccccccccccccccccccccccccccccccsccccccccccccccccccccccccccccccccccccccccccccccccccccccccccccccccccccccccccccccccccccccccccccccccccccccccccccccccccccccccccccccccccccccccccccccccccccccccccccccccccccccccccccccccccccccccccccccccccccccccccccccccccccccccccccccccccccccccccccccccccccccccccccccccccccccccccccccccc"
         id="path2830"
         d="m 360.21705,846.12574 c -21.38266,-5.82794 -30.88528,-19.03951 -65.07094,-34.39545 m 97.68888,311.23671 c -38.29676,-33.0639 -58.97817,-82.5976 -82.90107,-122.8305 -1.78869,-28.46085 -3.61827,-38.79751 2.0556,-53.92149 3.25093,-37.58874 44.51646,-109.26591 82.62646,-81.67177 -39.92717,27.13751 -76.14963,72.47558 -59.8696,123.77287 16.13467,60.40879 56.35544,110.65759 97.48611,156.33559 -14.56212,-13.4245 -39.50174,-24.67 -12.72222,2.1115 -9.69833,-6.9897 -18.0539,-15.5751 -26.67528,-23.7962 z m 332.95264,-25.8223 c -9.04247,-22.3553 -51.20752,-97.8739 -44.08611,-30.5799 2.5807,37.4748 -23.0933,-2.1691 -16.07493,-4.4698 -3.62855,-43.0524 45.84071,-53.0863 63.89012,-51.6222 16.17086,-8.2205 55.17477,-22.57633 11.18665,-29.40918 -14.6545,-6.93799 -46.4015,-24.02748 -32.88637,-36.66011 -12.126,-32.85973 -14.62864,44.87699 -49.32775,21.3636 -17.63999,-22.07527 -43.60918,-45.34529 -62.21059,-55.2438 17.48932,-6.75601 50.8553,22.72841 19.58096,-6.17084 -21.80403,-11.6155 10.04954,-44.61485 -18.27322,-16.39342 -18.61286,15.07884 -75.91477,-32.50846 -36.01234,7.12305 40.09891,24.43678 -4.41044,18.60952 -19.39849,-0.65511 -16.65078,-10.29679 -22.62695,-17.84314 -50.2137,-30.10483 -22.36504,12.09675 -33.80411,31.53817 -4.32033,12.99569 -11.98719,19.28842 -54.50016,50.83172 -38.66681,21.7096 45.82937,-6.83118 -55.67617,-19.15875 -4.82655,-35.19526 15.59189,-18.91278 56.97198,-31.18437 62.96557,-1.95398 23.36764,4.19063 -25.28698,-40.26796 -43.48524,-45.22546 C 392.65163,774.60184 355.96537,695.50917 288.41406,649.79249 269.7037,605.97812 268.90008,554.67365 247.51652,510.66856 c -18.20389,-22.49995 3.01626,-87.12637 1.70088,-26.75137 17.55006,47.02607 35.89389,94.26951 40.79862,144.73897 32.09417,36.42219 69.64039,71.46398 102.85017,108.35957 95.2428,-1.89788 132.17789,59.42735 204.15277,42.8054 -4.6646,-58.76891 -106.9005,-25.64186 -89.39719,-101.28629 6.52104,-30.29468 22.62285,-46.95935 -4.41504,-74.3547 -13.01768,-19.3587 -1.17984,-66.91002 -22.67582,-26.60083 -22.38682,7.25145 10.13764,-33.59958 -14.22711,-28.07463 0.88198,-39.60687 -45.10816,-67.88352 -55.1895,-106.51254 14.53634,0.88177 -60.06723,-69.32436 5.00919,-57.24642 31.48904,-4.83379 50.42546,50.321 47.1557,43.74765 4.10972,-51.64183 51.46107,-6.91244 58.70755,27.62527 -20.61711,-1.76141 -63.52989,-61.51697 -43.07161,-11.70704 -19.73474,-13.91601 -40.73153,7.64269 -4.70061,3.2581 44.71915,27.55113 20.73209,88.99468 39.17199,130.31192 27.32911,40.10632 44.67129,86.15111 70.04087,127.1898 25.89725,51.24086 100.42355,42.01559 149.28987,39.97553 48.96519,-0.85021 74.16025,-39.85765 97.58578,-77.12258 18.39781,-20.98085 46.27811,-36.1582 25.30755,-61.79006 10.04394,-20.1755 28.39297,-31.45215 55.36979,-34.03743 39.35969,-3.77198 41.44212,13.71441 53.53082,23.47826 36.88031,64.87986 -115.03608,163.25855 -150.83631,222.29843 -40.76727,25.60785 -83.72726,60.40156 -103.05723,104.82547 -10.08296,48.98658 93.32843,40.59626 45.5614,85.06496 -11.43703,20.246 -67.1985,4.4197 -38.36163,33.4468 10.22691,16.4859 47.56308,84.665 29.93627,79.1151 -12.17713,-20.9408 4.42267,28.7201 -11.68535,-4.4859 -3.59213,-6.5114 -6.97444,-13.1364 -10.28071,-19.7953 z M 700.58816,918.7156 c 31.81872,-43.14421 68.46583,-88.52683 116.08516,-114.55297 26.36734,1.89615 -41.57204,-20.09845 -22.38083,1.85796 -16.06419,7.43778 -63.62067,-14.46286 -22.58571,-4.71173 -22.25247,-19.43692 3.87632,-41.06196 9.30626,-11.11866 23.68465,17.99775 -18.91167,-44.38901 13.56209,-11.8325 19.88537,45.33548 99.59578,-67.20758 45.64076,-27.20305 -28.7682,4.45049 -39.43759,-38.09967 -11.46284,-34.40458 -8.27545,-26.0961 55.51875,-42.42558 10.2758,-30.83128 -28.21175,17.97033 -52.28088,75.44829 -92.07914,66.94598 21.44835,37.13806 58.38013,-52.26448 74.90519,4.31841 8.15617,40.68006 -28.68396,11.84462 -39.6313,2.34563 -51.192,30.96837 -97.01429,71.64287 -140.97811,112.81821 -2.56339,-6.14615 37.61641,4.14795 34.8071,8.43549 -7.61565,-7.7015 -16.30472,-18.05396 5.91055,-9.94889 -16.15517,-30.48322 23.97751,-25.11166 34.3017,-1.5373 15.13845,15.90243 -27.07748,-38.0705 15.4575,-6.26091 10.97279,0.85715 -68.21672,-35.73955 -21.50309,-36.89556 6.18426,-25.47727 25.5502,-11.30083 33.90758,-38.89626 8.22355,-7.51883 4.23769,32.61698 19.29638,28.65398 14.47357,52.62542 -28.72657,0.29721 -47.81868,-0.59158 14.65333,22.45258 45.62392,38.67833 10.01091,56.59307 -20.97496,8.76154 -55.95501,-15.96616 -30.0177,22.86766 -14.76208,35.41128 -20.03167,-5.52913 -38.30783,-16.26256 -20.7909,7.97629 -37.51535,11.89971 -3.00223,15.94733 31.43223,3.50329 10.42169,14.30658 17.5921,16.84413 11.02769,-2.52229 19.28515,32.34545 28.70838,7.41998 z m -47.55185,-29.54631 c 1.40271,-15.59752 14.87609,14.57086 0,0 z m 84.25852,-56.82271 c 10.32517,-15.18757 8.24566,19.47976 0,0 z m -108.55715,26.50911 c 45.15927,-12.42924 74.81952,-60.06287 111.00742,-89.4085 -26.31951,6.95905 -90.29566,9.31898 -93.9667,22.83021 27.31805,0.83863 35.41265,54.83106 4.53039,22.79637 -19.23792,-52.73519 -100.11653,-26.0751 -101.10591,26.81562 -33.53012,33.08276 53.69424,53.92556 69.25644,16.72314 l 5.34516,-1.04825 4.9332,1.29141 0,0 z m -41.04296,-26.4507 c -34.00207,-63.52663 86.29943,-4.43757 22.36288,10.65973 -8.44459,-0.33112 -17.0509,-3.89859 -22.36288,-10.65973 z m 139.40574,12.83796 c -14.74576,-19.41246 -10.90239,2.5103 5.77557,7.16387 l -5.77557,-7.16387 z M 535.14708,821.2518 c -26.97848,-10.6017 -72.02393,-99.9519 -119.90095,-56.77433 40.06369,10.82115 48.60029,41.62107 83.44167,50.85133 -14.66547,21.33278 25.12087,-22.45209 10.62016,12.53444 15.08646,8.94319 18.20808,33.10152 25.83912,-6.61144 z m 214.47619,-7.90175 c -14.00016,-12.83745 -2.99832,10.65096 4.1775,8.25364 l -4.1775,-8.25364 z m -76.8154,-47.05282 c 22.34956,-6.29451 66.75674,-4.2641 17.76937,-8.17568 -25.44694,-1.10698 -117.8769,-22.52366 -60.42094,13.88923 14.2932,-0.12138 29.13859,-0.53318 42.65157,-5.71355 z m 136.88088,-3.62139 c -14.00017,-12.83746 -2.99829,10.65101 4.17751,8.25365 l -4.17751,-8.25365 z M 588.59941,725.51257 c -14.38247,-17.82468 -25.51102,-30.55255 -15.94694,-3.12074 -18.74804,-12.14608 -36.25793,-100.14529 -51.49236,-43.23796 -12.61085,57.73897 66.48882,50.54094 72.01518,56.44614 l -4.57588,-10.08744 0,0 z m 247.03569,9.42063 c -30.64701,-16.78154 17.43679,21.63176 0,0 z m 64.39244,-37.42153 c 3.13796,-30.72535 -76.0852,-0.13091 -64.08907,22.76561 21.36913,10.21919 24.35128,8.0297 64.08907,-22.76561 z m 13.29255,-15.26203 c -24.08266,-37.01353 -14.96577,20.68237 5.01143,10.31421 l -5.01143,-10.31421 0,0 z m 15.266,4.88639 c -0.99823,-19.71394 31.52615,-37.99486 -1.88607,-19.35738 -15.30584,-4.45073 -59.46227,-44.93252 -28.74678,-5.11391 8.32065,-2.21038 37.47958,47.73732 30.63285,24.47129 z M 863.62306,667.7713 c 25.86842,-34.43386 -36.21999,22.4943 0,0 l 0,0 z m 67.80888,-16.84114 c 2.55965,-11.19742 36.07584,-28.25387 3.38527,-15.27023 -1.59675,-34.2944 -31.82626,37.64506 -3.38527,15.27023 l 0,0 z m 25.07304,-5.63046 c 10.58135,-16.00863 -35.56006,24.0597 0,0 z m -79.47445,0.37043 c -25.36809,-3.81016 -4.47486,7.00006 0,0 z m 20.00581,-10.51877 c -2.99248,-12.58926 9.36882,-32.06 -14.55953,-16.9759 9.35933,-47.52738 -43.93144,13.31326 3.10239,12.34426 -0.959,1.27009 26.12448,17.08017 11.45714,4.63164 z m -26.90574,-16.2738 c 12.70779,-31.41038 9.0382,12.57514 0,0 z m 45.69222,8.99208 c 1.04572,-33.56681 46.64285,14.31609 13.98112,-21.13254 -14.57988,-11.10661 -40.27085,49.68513 -13.98112,21.13254 z M 492.96666,506.24792 c -7.02535,-15.74032 -14.18877,-62.45944 -17.08783,-32.74976 -11.46037,-21.38864 -39.4418,-11.42451 -40.55517,-24.53705 19.80111,27.41295 33.83058,75.83684 59.84337,89.43551 1.4931,-10.73468 -0.95449,-21.52152 -2.20037,-32.1487 z m -47.8194,-77.62556 c -10.70556,-12.10531 -8.82212,6.44996 -28.07693,-15.90989 -33.72236,-24.08555 63.05247,25.10359 20.67444,-10.93506 -25.60844,-19.6235 -55.811,-12.89657 -24.85164,18.52282 0.50232,8.38709 43.83303,32.15463 32.25413,8.32213 z m 50.62349,-6.88562 c -46.24403,-20.59167 53.70612,61.35086 6.76274,6.85614 l -6.76274,-6.85614 0,0 z M 295.14611,811.73029 c -12.71805,-17.82189 -68.89428,-52.19048 -57.1283,-63.70458 29.95126,20.29457 49.841,66.0253 85.39043,67.38594 13.24653,14.50572 96.36145,51.76661 36.80881,30.71409 l 0,0 m 70.57249,-34.63366 c -26.21064,-33.47919 34.87189,10.72168 7.7113,6.66505 l -7.7113,-6.66505 0,0 z m -46.03772,-33.17261 c -21.67561,-13.48974 -49.44373,-53.93581 -9.92045,-20.41107 22.20041,13.53452 60.27397,62.71614 15.4867,24.86455 l -5.56625,-4.45348 z M 320.1734,720.99889 c -21.08137,-16.80863 -38.46567,-41.68139 -5.57393,-13.28434 7.04234,3.36486 24.06129,29.10855 5.57393,13.28434 z m -40.04366,-56.20187 c -41.67871,-18.5474 42.33551,3.07661 12.00503,4.66032 l -5.30071,-1.9132 -6.70432,-2.74712 z M 149.83268,628.27266 c -13.56116,-16.55137 -28.04445,-51.54557 -1.36673,-17.65943 18.29204,22.84974 31.16929,68.77712 1.36673,17.65943 z m 58.8974,-122.30113 c -6.52713,-27.12421 -47.44792,-88.81838 -62.97689,-34.31036 -7.71063,17.19772 32.74318,50.85296 -3.32691,23.57074 -30.71082,-46.55217 59.54708,-79.68237 62.87714,-18.4971 -4.15788,7.87046 30.26888,47.99921 3.42666,29.23672 z m 156.49243,-8.9578 c -11.0327,-21.16107 -29.94072,-47.41706 0.89478,-20.03886 -11.03011,-20.22357 20.66417,-7.07467 -0.66424,6.77579 11.93706,4.64231 11.51407,36.75701 -0.23054,13.26307 z m -26.41795,-22.9405 c -14.87091,-24.95316 -4.43897,-23.61864 3.84337,-3.01013 14.15278,10.88335 17.06808,25.76033 -3.84337,3.01013 z M 219.89441,447.52957 c 8.28596,-24.25994 -43.61442,-64.27213 -26.61774,-70.84445 17.3967,22.67097 60.09319,50.87641 32.88177,69.31565 1.63223,14.86369 -7.42295,22.37264 -6.26403,1.5288 z m -169.605029,0.35189 c 1.073614,-46.01987 39.485608,-80.42607 76.219189,-99.47224 -28.52839,-45.92516 27.40598,-72.86974 32.74568,-114.22976 6.61069,-22.59542 -31.56317,12.17375 -1.87751,-14.16748 12.08921,-4.02732 56.45637,-78.84458 41.52224,-32.09274 -34.2823,31.40273 -28.09344,81.419 -66.86384,110.48535 -4.99359,14.71167 -9.91142,58.12392 15.85054,47.34127 -34.86384,-20.92327 -2.98628,-77.54378 25.11255,-53.37014 -2.49224,4.67138 -27.50791,-9.88458 -25.73903,16.24773 -24.51017,-15.66041 9.90886,52.04219 10.04322,19.21447 7.11092,7.30417 46.6503,36.31428 31.49003,36.7496 -22.75182,6.55366 -27.38436,0.48723 -27.74628,-7.79685 -57.59469,-4.60663 -98.913492,48.73637 -110.335268,96.55045 l -0.421521,-5.45966 0,0 z M 558.1464,437.61614 c 2.00706,-20.4259 13.62608,12.82604 0,0 z M 523.30838,415.3974 c -19.51746,-5.76485 -28.66337,-48.19421 -35.92078,-20.30156 -17.04134,-24.66337 18.53974,-36.3825 23.31633,0 25.57322,13.87087 63.05771,44.05836 12.60445,20.30156 l 0,0 z m 57.1488,9.00916 c 12.80718,-7.31908 33.47307,-13.1759 6.92609,4.20226 l -4.91457,-0.40233 -2.01152,-3.79993 0,0 z m -55.06003,-25.08787 c 5.93443,-13.47647 11.30026,14.98338 0,0 z m 53.61185,-7.46263 c -35.88627,-34.11749 48.94866,-29.69987 3.80417,-12.57162 1.1015,24.11356 64.85603,6.65948 14.96625,18.24037 l -9.77073,-0.42164 -8.99973,-5.24709 c 0,0 4e-5,-2e-5 4e-5,-2e-5 z m -114.90243,-7.31735 c 4.7785,-36.74758 9.27601,34.84282 0,0 z m 51.2174,-4.27877 c -27.6445,-34.22776 34.10879,4.92542 8.36462,7.2357 l -8.36462,-7.2357 z m 100.17142,5.64083 c -29.7667,-21.36845 42.06677,14.06081 0,0 z m 23.49486,-6.1739 c -0.43228,-29.39755 26.72668,10.9127 0,0 z m 75.88429,-6.00634 c -36.83276,-22.56248 57.6379,18.54643 0,0 l 0,0 z m -110.94617,-9.73864 c -3.27285,-38.4672 -5.79163,8.24439 3.04834,9.37837 -1.01611,-3.12612 -2.03223,-6.25225 -3.04834,-9.37837 z m -139.84807,2.98014 c 29.7576,-3.61743 2.3713,7.42277 0,0 z m 81.33868,-5.64898 c -3.20521,-34.08025 41.64885,26.17259 0,0 z m 185.20192,4.47206 c -35.63612,-5.46199 -7.05217,-23.58348 7.79013,-1.78608 0.0162,3.3594 -7.19687,6.83771 -7.79013,1.78608 z m -102.8177,-8.97587 c -5.05935,-21.60702 14.44013,15.79652 0,0 z m 106.15469,-2.53428 c -11.11295,-34.86304 12.83851,-13.00078 9.60836,-8.07574 -8.84059,-51.65224 20.66301,-10.87014 0.40255,10.89097 l -5.69373,-0.82697 -4.31718,-1.98826 0,0 z m -165.33275,-7.71764 c 18.15336,-15.30218 1.37149,19.86568 0,0 z m -13.19525,-19.02708 c 5.93445,-13.47646 11.30026,14.98336 0,0 z m 56.43629,-8.44569 c 12.35629,-28.56441 7.17108,27.96039 0,0 z m 68.70015,-6.33428 c -10.72137,-23.22964 25.30223,21.5165 0,0 z m 32.38371,-17.95853 c -9.83067,-20.7288 -37.96114,-11.5356 -22.39604,-25.13491 -13.86846,-18.86762 -45.62753,-83.89815 -26.45666,-87.03471 3.68097,49.9579 44.6322,84.37934 63.68394,126.87042 -5.52799,3.58447 -11.33592,-12.1599 -14.83124,-14.7008 z m -56.43519,-11.60142 c 2.61137,-27.4459 3.69824,24.34139 0,0 z m -518.34802,-76.0113 c 14.0019,-20.83218 0.99754,21.43983 0,0 z m 22.0093,-25.91011 c 17.87789,-46.24343 23.2433,-16.37792 0,0 z m 26.89991,-22.65267 c 9.6538,-14.84218 77.40289,-60.39099 35.63758,-19.41826 -5.29623,15.85011 -30.55617,18.07546 -35.63758,19.41826 z m 408.39752,2.11143 c 5.06908,-20.70015 10.32453,21.64541 0,0 z M 165.00422,144.08549 c 11.18481,-22.27733 11.35648,15.47102 0,0 z m 20.02183,-2.24396 c 8.14335,-17.48144 25.49469,-43.553661 15.42798,-3.73563 -2.48033,4.26684 -11.65795,8.20932 -15.42798,3.73563 z m 456.74799,-3.15814 c -31.32596,-21.19301 8.66763,-17.49774 5.15406,0.71118 l -5.15406,-0.71119 c 0,0 0,1e-5 0,1e-5 z M 250.097,112.66333 c 9.62234,-21.179323 14.0135,7.58823 0,0 z m -49.46964,-8.54979 c 15.46046,-3.16507 29.64983,-37.408755 54.4751,-34.160679 -14.06274,11.997792 -33.39737,45.247939 -54.4751,34.160679 z M 573.62498,82.534623 c -38.80895,-44.670898 46.28414,36.256597 0,0 l 0,0 z M 535.40051,67.629065 c -25.86093,-19.088876 41.22017,12.66298 0,0 z m -46.33086,-6.04332 c -45.32458,-20.913815 31.04018,-0.77275 10.26316,4.714701 l -10.26316,-4.714701 0,0 z"
         style="fill:#000000" />
      <path
         transform="matrix(1.3195279,-0.5190536,0.32245604,2.0938764,-153.21736,-311.05301)"
         style="fill:#000000"
         d="M 82.78125,335.53125 C 46.04765,354.57742 7.6361,388.98013 6.5625,435 l 0.40625,5.46875 c 11.4218,-47.81408 52.749053,-101.16913 110.34375,-96.5625 l -34.53125,-8.375 z"
         id="path3189" />
      <path
         id="path3185"
         d="m -1124.4151,-32.133457 c -34.8638,-20.92327 -37.272,24.599077 -9.1731,48.772717 -2.4923,4.67138 -27.5079,-9.88458 -25.7391,16.24773 -24.5101,-15.66041 167.05176,-14.386381 167.18616,-47.214101 7.1109,7.3041695 -38.34966,-21.542863 -53.50996,-21.107543 -22.7518,6.55366 -46.6702,38.3443725 -47.0321,30.0602925"
         style="fill:#000000" />
      <path
         id="path3181"
         d="m -908.43444,838.199 c -23.14139,-15.5766 22.43299,25.2086 0,0 z"
         style="fill:#000000" />
      <path
         id="path3179"
         d="m -916.33667,827.2038 c -27.61691,-27.5472 -11.6252,0.9613 0,0 z"
         style="fill:#000000" />
      <path
         id="path3177"
         d="m -978.38349,720.1478 c -8.30603,2.7327 4.13787,23.9595 0,0 z"
         style="fill:#000000" />
      <path
         id="path3175"
         d="m -983.38894,699.0335 c -8.30605,2.7329 4.13784,23.9595 0,0 z"
         style="fill:#000000" />
      <path
         id="path3173"
         d="m -680.24093,885.90844 c -8.10699,3.0665 4.3115,21.9384 0,0 z"
         style="fill:#000000" />
      <path
         id="path3171"
         d="m -928.37233,591.66611 c -6.11439,-12.16024 -33.9258,4.50518 0,0 z"
         style="fill:#000000" />
      <path
         id="path3169"
         d="m -968.69742,1574.982 c -9.04247,-22.3553 -51.20748,-97.8739 -44.08608,-30.5799 2.5807,37.4748 -23.0933,-2.1691 -16.075,-4.4698 -3.6285,-43.0524 45.84075,-53.0863 63.89016,-51.6222 16.17086,-8.2205 55.17477,-22.5763 11.18665,-29.4091 -14.6545,-6.938 -46.40151,-24.0275 -32.88637,-36.6601 -12.126,-32.8598 -14.62864,44.8769 -49.32774,21.3636 -17.64,-22.0753 -43.6092,-45.3453 -62.2106,-55.2439 17.4893,-6.756 50.8553,22.7285 19.581,-6.1708 -21.8041,-11.6155 10.0495,-44.6149 -18.2733,-16.3935 -18.6128,15.0789 -75.9147,-32.5084 -36.0123,7.1231 40.0989,24.4368 -4.4104,18.6095 -19.3985,-0.6551 -11.0685,17.858 -21.977,30.2062 -35.7286,6.3843 -38.0726,-25.3759 38.734,41.9405 -11.968,18.7227 -10.6068,-10.7907 27.0254,12.9406 -1.0484,-6.8507 -17.6524,5.6037 14.4456,37.2111 -16.6242,12.4884 -8.8216,-14.3674 29.8186,-61.3693 43.7791,-22.3871 24.2644,-13.6257 -39.8835,-22.2372 -28.6236,-38.4624 -22.365,12.0967 -33.8041,31.5381 -4.3203,12.9956 -11.9872,19.2885 -54.5002,50.8318 -38.6668,21.7096 45.8293,-6.8311 -55.6762,-19.1587 -4.8266,-35.1952 15.5919,-18.9128 56.972,-31.1844 62.9656,-1.954 23.3676,4.1906 -25.287,-40.268 -43.4852,-45.2255 -70.9769,-42.0509 -107.6632,-121.1435 -175.2145,-166.8602 -18.7104,-43.8143 -19.514,-95.1188 -40.8975,-139.12391 -18.2039,-22.49995 3.0162,-87.12637 1.7008,-26.75137 17.5501,47.02608 35.8939,94.26948 40.7987,144.73898 32.0941,36.4221 69.6404,71.4639 102.8501,108.3595 33.8209,5.1159 47.2436,23.9368 82.0659,11.6998 21.9036,7.5042 79.0083,20.7246 69.9063,22.9177 -21.7325,40.7387 34.5253,8.8166 52.1806,8.1879 -4.6646,-58.7689 -106.9005,-25.6418 -89.3972,-101.2863 6.5211,-30.2946 22.6229,-46.9593 -4.415,-74.3546 -13.0177,-19.3587 -1.1799,-66.91 -22.6758,-26.6009 -22.3869,7.2515 10.1376,-33.5995 -14.2271,-28.0746 0.8819,-39.60686 -45.1082,-67.88351 -55.1895,-106.51253 14.5363,0.88177 -60.0673,-69.32436 5.0091,-57.24642 31.4891,-4.83379 50.4255,50.321 47.1557,43.74765 4.1098,-51.64183 51.4611,-6.91244 58.7076,27.62527 -20.6171,-1.76141 -63.5299,-61.51697 -43.0716,-11.70704 -19.7348,-13.91601 -40.7315,7.64269 -4.7006,3.2581 44.7191,27.55113 20.7321,88.99467 39.172,130.31197 27.3291,40.1063 44.6713,86.151 70.0408,127.1897 25.8973,51.2409 100.4236,42.0156 149.2899,39.9755 48.96519,-0.8502 74.16025,-39.8576 97.58578,-77.1225 18.39781,-20.9809 38.42096,-33.3011 17.4504,-58.9329 23.54809,-47.3016 95.87871,-31.947 109.6149,19.4408 24.69555,4.1058 13.28178,47.2489 9.88114,19.3007 -31.41597,7.0125 -3.71258,52.7489 -12.11814,19.1416 37.90475,16.1764 -24.87404,49.7388 -23.74189,77.7113 -37.80676,26.4314 -80.19652,51.835 -117.71456,73.2877 -40.76727,25.6078 -83.72726,60.4015 -103.05723,104.8255 -10.08296,48.9866 93.32843,40.5962 45.5614,85.0649 -11.43703,20.246 -67.1985,4.4197 -38.36163,33.4468 10.22691,16.4859 47.56308,84.665 29.93627,79.1151 -12.17713,-20.9408 4.42267,28.7201 -11.68535,-4.4859 -3.59213,-6.5114 -6.97444,-13.1364 -10.28071,-19.7953 z"
         style="fill:#000000" />
      <path
         id="path3167"
         d="m -613.5065,748.564 c 27.57251,-6.9482 7.24343,-11.5542 -10.13681,-1.7902 2.984,2.522 16.78336,10.5312 10.13681,1.7902 z"
         style="fill:#000000" />
      <path
         id="path3165"
         d="m -555.94374,729.5612 c 12.83611,-15.2818 -16.55215,7.8703 -8.73397,6.3342 l 8.73397,-6.3342 z"
         style="fill:#000000" />
      <path
         id="path3163"
         d="m -586.99594,685.4133 c -14.00017,-12.8374 -2.99833,10.651 4.1775,8.2537 l -4.1775,-8.2537 z"
         style="fill:#000000" />
      <path
         id="path3161"
         d="m -625.64128,673.6084 c 39.25178,-25.3456 -56.14443,18.4441 -8.68155,8.182 l 3.93991,-3.6783 4.74164,-4.5037 z"
         style="fill:#000000" />
      <path
         id="path3159"
         d="m -631.0256,661.4972 c -14.6965,10.3118 1.22675,-34.90309 -16.86133,-11.7234 -10.45261,11.8744 11.99944,23.236 16.86133,11.7234 z"
         style="fill:#000000" />
      <path
         id="path3157"
         d="m -656.05288,640.8814 c -25.25952,-15.98423 14.5663,24.8791 0,0 z"
         style="fill:#000000" />
      <path
         id="path3153"
         d="m -653.55016,613.43283 c 1.40271,-15.59752 14.87609,14.57086 0,0 z"
         style="fill:#000000" />
      <path
         id="path3151"
         d="m -569.29164,556.61012 c 10.32517,-15.18757 8.24566,19.47976 0,0 z"
         style="fill:#000000" />
      <path
         id="path3149"
         d="m -656.05288,626.10138 c -12.35069,-15.62463 -5.17651,13.2167 0,0 z"
         style="fill:#000000" />
      <path
         id="path3147"
         d="m -677.2483,620.27098 c -19.07162,-28.22361 2.491,23.26562 2.5e-4,0 l -2.5e-4,0 0,0 z"
         style="fill:#000000" />
      <path
         id="path3145"
         d="m -846.26026,600.76428 c 3.46915,-9.62399 33.52705,-15.28345 10.01091,-16.68883 -16.06886,5.65194 -28.98597,7.26566 -17.32015,16.16 -5.86532,11.79438 8.41083,11.13412 7.30924,0.52883 z"
         style="fill:#000000" />
      <path
         id="path3143"
         d="m -766.17295,607.55036 c -17.52657,-14.07739 -13.3878,6.00245 0,0 z"
         style="fill:#000000" />
      <path
         id="path3137"
         d="m -704.10558,536.04433 c -5.15088,-8.30375 -19.24192,27.0985 0,0 z"
         style="fill:#000000" />
      <path
         id="path3135"
         d="m -776.18386,587.8465 c -10.77771,-10.53918 -13.92686,16.5994 0,0 z"
         style="fill:#000000" />
      <path
         id="path3133"
         d="m -806.21661,579.65003 c -12.35066,-15.62463 -5.17651,13.2167 0,0 z"
         style="fill:#000000" />
      <path
         id="path3131"
         d="m -579.48601,569.50649 c -14.74576,-19.41246 -10.90239,2.5103 5.77557,7.16387 l -5.77557,-7.16387 z"
         style="fill:#000000" />
      <path
         id="path3129"
         d="m -771.43939,545.51534 c 8.43638,-26.1163 -74.83035,1.83853 -33.67745,-34.19819 29.41217,-20.87482 -55.89301,-37.10174 -58.59258,-16.88868 -9.23848,-7.60312 -50.70694,-33.74328 -27.63092,-5.68746 40.06369,10.82115 48.60029,41.62107 83.44167,50.85133 -14.66547,21.33278 25.12087,-22.45209 10.62016,12.53444 15.08646,8.94319 18.20808,33.10152 25.83912,-6.61144 z"
         style="fill:#000000" />
      <path
         id="path3127"
         d="m -636.03106,544.27285 c -27.61689,-27.54708 -11.62521,0.96137 0,0 z"
         style="fill:#000000" />
      <path
         id="path3123"
         d="m -846.26026,518.87051 c -27.42282,-34.2656 -5.78411,20.48545 0,0 z"
         style="fill:#000000" />
      <path
         id="path3121"
         d="m -416.89768,490.48772 c 41.64021,-9.63463 30.7245,-59.93051 57.83368,-73.62522 -9.18725,-5.0438 -35.23247,14.30207 -34.44073,14.12409 28.13154,29.14414 -35.95942,-4.29017 -25.57571,-27.9444 -14.75056,-36.50726 1.67418,7.52988 -19.45109,-2.70731 6.71038,17.80454 -4.09728,16.64441 11.14895,42.07016 10.80892,31.00274 -62.0713,66.48955 -44.7609,72.7598 18.59617,-7.80064 36.18106,-17.91653 55.2458,-24.67712 z"
         style="fill:#000000" />
      <path
         id="path3119"
         d="m -415.79093,449.24011 c 9.62234,-21.17931 14.01348,7.58826 0,0 z"
         style="fill:#000000" />
      <path
         id="path3117"
         d="m -778.41705,511.71649 c 3.05767,-35.29122 -23.65094,23.73942 0,0 z"
         style="fill:#000000" />
      <path
         id="path3115"
         d="m -633.7786,490.56077 c 22.34956,-6.29451 66.75674,-4.2641 17.76937,-8.17568 -25.44694,-1.10698 -117.8769,-22.52366 -60.42094,13.88923 14.2932,-0.12138 29.13859,-0.53318 42.65157,-5.71355 z"
         style="fill:#000000" />
      <path
         id="path3113"
         d="m -496.89772,486.93938 c -14.00017,-12.83746 -2.99829,10.65101 4.17751,8.25365 l -4.17751,-8.25365 z"
         style="fill:#000000" />
      <path
         id="path3111"
         d="m -717.98706,449.77611 c -14.38247,-17.82468 -25.51102,-30.55255 -15.94694,-3.12074 -18.74804,-12.14608 -36.25793,-100.14529 -51.49236,-43.23796 -12.61085,57.73897 66.48882,50.54094 72.01518,56.44614 l -4.57588,-10.08744 0,0 z"
         style="fill:#000000" />
      <path
         id="path3109"
         d="m -470.95137,459.19674 c -30.64701,-16.78154 17.43679,21.63176 0,0 z"
         style="fill:#000000" />
      <path
         id="path3105"
         d="m -745.5401,407.88561 c -20.79775,-19.23542 12.96905,27.48102 0,0 z"
         style="fill:#000000" />
      <path
         id="path3103"
         d="m -393.26638,406.51318 c -24.08266,-37.01353 -14.96577,20.68237 5.01143,10.31421 l -5.01143,-10.31421 0,0 z"
         style="fill:#000000" />
      <path
         id="path3101"
         d="m -378.00038,411.39957 c -0.99823,-19.71394 31.52615,-37.99486 -1.88607,-19.35738 -15.30584,-4.45073 -59.46227,-44.93252 -28.74678,-5.11391 8.32065,-2.21038 37.47958,47.73732 30.63285,24.47129 z"
         style="fill:#000000" />
      <path
         id="path3099"
         d="m -442.96341,392.03484 c 25.86842,-34.43386 -36.21999,22.4943 0,0 l 0,0 z"
         style="fill:#000000" />
      <path
         id="path3097"
         d="m -375.15453,375.1937 c 2.55965,-11.19742 36.07584,-28.25387 3.38527,-15.27023 -1.59675,-34.2944 -31.82626,37.64506 -3.38527,15.27023 l 0,0 z"
         style="fill:#000000" />
      <path
         id="path3095"
         d="m -350.08149,369.56324 c 10.58135,-16.00863 -35.56006,24.0597 0,0 z"
         style="fill:#000000" />
      <path
         id="path3093"
         d="m -771.14292,351.67208 c -15.94904,-9.15702 -36.13984,-60.26532 -18.54486,-12.52197 16.24689,8.42235 17.62094,52.87198 18.54486,12.52197 l 0,0 z"
         style="fill:#000000" />
      <path
         id="path3091"
         d="m -429.55594,369.93367 c -25.36809,-3.81016 -4.47486,7.00006 0,0 z"
         style="fill:#000000" />
      <path
         id="path3089"
         d="m -409.55013,359.4149 c -2.99248,-12.58926 7.94025,-36.34571 -15.9881,-21.26161 9.35933,-47.52738 -42.50287,17.59897 4.53096,16.62997 -0.959,1.27009 26.12448,17.08017 11.45714,4.63164 z"
         style="fill:#000000" />
      <path
         id="path3087"
         d="m -440.74158,338.1411 c 12.70779,-31.41038 9.0382,12.57514 0,0 z"
         style="fill:#000000" />
      <path
         id="path3085"
         d="m -390.76365,352.13318 c 1.04572,-33.56681 46.64285,14.31609 13.98112,-21.13254 -14.57988,-11.10661 -40.27085,49.68513 -13.98112,21.13254 z"
         style="fill:#000000" />
      <path
         id="path3083"
         d="m -397.02117,319.59228 c -24.66507,-5.63444 -2.13752,25.05467 0,0 z"
         style="fill:#000000" />
      <path
         id="path3081"
         d="m -813.61981,230.51146 c -7.02535,-15.74032 -14.18877,-62.45944 -17.08783,-32.74976 -11.46037,-21.38864 -39.4418,-11.42451 -40.55517,-24.53705 19.80111,27.41295 33.83058,75.83684 59.84337,89.43551 1.4931,-10.73468 -0.95449,-21.52152 -2.20037,-32.1487 z"
         style="fill:#000000" />
      <path
         id="path3079"
         d="m -841.25481,205.92781 c -14.56618,-24.87916 25.2594,15.9842 0,0 z"
         style="fill:#000000" />
      <path
         id="path3077"
         d="m -861.43921,152.8859 c -10.70556,-12.10531 -8.82212,6.44996 -28.07693,-15.90989 -33.72236,-24.08555 63.05247,25.10359 20.67444,-10.93506 -25.60844,-19.6235 -55.811,-12.89657 -24.85164,18.52282 0.50232,8.38709 43.83303,32.15463 32.25413,8.32213 z"
         style="fill:#000000" />
      <path
         id="path3075"
         d="m -810.81572,146.00028 c -46.24403,-20.59167 53.70612,61.35086 6.76274,6.85614 l -6.76274,-6.85614 0,0 z"
         style="fill:#000000" />
      <path
         id="path3073"
         d="m -675.78624,693.0875 c -0.6024,-21.3904 -52.35717,-26.1892 -43.74399,-39.8265 33.95549,-14.50991 52.65545,36.232 52.41353,50.4141 l -3.68389,-4.0665 -4.98565,-6.5211 z"
         style="fill:#000000" />
      <path
         id="path3071"
         d="m -695.47541,658.7581 c -15.88096,-7.3909 13.79484,18.4243 0,0 z"
         style="fill:#000000" />
      <path
         id="path3069"
         d="m -790.83038,620.14307 c -12.14431,-41.92046 23.35438,28.23463 0,0 z"
         style="fill:#000000" />
      <path
         id="path3067"
         d="m -946.36942,570.38928 c -19.86816,-4.73259 -56.92038,-49.62955 -47.56552,-4.04974 -16.04796,-25.39636 -53.58226,16.23155 -25.95626,-19.73915 -24.2008,-16.86544 -16.7326,-12.6102 8.4508,-10.60656 -12.718,-17.82189 -68.8942,-52.19048 -57.1283,-63.70458 29.9513,20.29457 49.841,66.0253 85.39047,67.38594 13.24653,14.50572 96.36145,51.76661 36.80881,30.71409 l 0,0 z"
         style="fill:#000000" />
      <path
         id="path3065"
         d="m -875.79693,535.75562 c -26.21064,-33.47919 34.87189,10.72168 7.7113,6.66505 l -7.7113,-6.66505 0,0 z"
         style="fill:#000000" />
      <path
         id="path3063"
         d="m -921.83465,502.58301 c -21.67561,-13.48974 -49.44373,-53.93581 -9.92045,-20.41107 22.20041,13.53452 60.27397,62.71614 15.4867,24.86455 l -5.56625,-4.45348 z"
         style="fill:#000000" />
      <path
         id="path3061"
         d="m -728.63202,490.97018 c -1.52481,-13.39605 21.19421,9.12612 3.65516,2.98239 l -3.65516,-2.98239 z"
         style="fill:#000000" />
      <path
         id="path3059"
         d="m -986.41307,445.26243 c -21.08133,-16.80863 -38.46563,-41.68139 -5.57393,-13.28434 7.04234,3.36486 24.06129,29.10855 5.57393,13.28434 z"
         style="fill:#000000" />
      <path
         id="path3057"
         d="m -803.9197,440.01503 c -5.05935,-21.60702 14.44011,15.7965 0,0 z"
         style="fill:#000000" />
      <path
         id="path3055"
         d="m -868.14774,404.27963 c -11.34809,-36.36703 54.35985,7.57369 5.71439,5.04554 l -3.37099,-1.93586 -2.3434,-3.10968 z"
         style="fill:#000000" />
      <path
         id="path3053"
         d="m -1026.4567,389.06056 c -41.6787,-18.5474 42.33548,3.07661 12.005,4.66032 l -5.3007,-1.9132 -6.7043,-2.74712 z"
         style="fill:#000000" />
      <path
         id="path3051"
         d="m -856.27118,381.17609 c 5.63238,-16.96666 13.91119,16.41447 0,0 z"
         style="fill:#000000" />
      <path
         id="path3049"
         d="m -1156.7538,352.5362 c -13.5611,-16.55137 -28.0444,-51.54557 -1.3667,-17.65943 18.292,22.84974 31.1693,68.77712 1.3667,17.65943 z"
         style="fill:#000000" />
      <path
         id="path3047"
         d="m -826.76406,354.26863 c -2.70605,-20.29529 -36.68189,-38.57179 -14.56739,-32.77565 -14.97644,-9.05642 -23.66196,-23.05467 0.21478,-15.8133 10.87955,17.94258 28.83746,62.83115 24.20901,69.34984 -3.76093,-6.68709 -6.83432,-13.72112 -9.8564,-20.76089 z"
         style="fill:#000000" />
      <path
         id="path3045"
         d="m -1166.6095,292.99466 c 9.6223,-21.17933 14.0135,7.58826 0,0 z"
         style="fill:#000000" />
      <path
         id="path3043"
         d="m -1084.0195,254.49059 c 1.4028,-15.59753 14.8761,14.57084 0,0 z"
         style="fill:#000000" />
      <path
         id="path3041"
         d="m -1097.8564,230.23507 c -6.5271,-27.12421 -47.4479,-88.81838 -62.9769,-34.31036 -7.7106,17.19772 32.7432,50.85296 -3.3269,23.57074 -30.7108,-46.55217 59.5471,-79.68237 62.8772,-18.4971 -4.1579,7.87046 30.2688,47.99921 3.4266,29.23672 z"
         style="fill:#000000" />
      <path
         id="path3039"
         d="m -1260.5519,220.70778 c 3.0016,-30.18932 3.0016,30.18933 0,0 z"
         style="fill:#000000" />
      <path
         id="path3037"
         d="m -941.36396,221.27727 c -11.0327,-21.16107 -29.94072,-47.41706 0.89478,-20.03886 -11.03011,-20.22357 20.66417,-7.07467 -0.66424,6.77579 11.93706,4.64231 11.51407,36.75701 -0.23054,13.26307 z"
         style="fill:#000000" />
      <path
         id="path3035"
         d="m -967.78191,198.33677 c -14.87091,-24.95316 -4.43897,-23.61864 3.84337,-3.01013 14.15278,10.88335 17.06808,25.76033 -3.84337,3.01013 z"
         style="fill:#000000" />
      <path
         id="path3033"
         d="m -1138.5082,197.21547 c 7.8352,-20.25121 22.678,15.73144 0,0 z"
         style="fill:#000000" />
      <path
         id="path3031"
         d="m -1051.484,188.1809 c 17.8111,-30.78871 24.5015,-2.02011 0,0 z"
         style="fill:#000000" />
      <path
         id="path3029"
         d="m -1086.6921,171.79311 c 8.286,-24.25994 -43.6144,-64.27213 -26.6177,-70.84445 17.3967,22.67097 60.0932,50.87641 32.8818,69.31565 1.6322,14.86369 -7.423,22.37264 -6.2641,1.5288 z"
         style="fill:#000000" />
      <path
         id="path3027"
         d="m -911.33122,166.61443 c 16.39198,-21.77881 17.55921,9.07154 0,0 z"
         style="fill:#000000" />
      <path
         id="path3025"
         d="m -998.92671,161.58788 c 21.84427,-16.716 9.61287,17.34744 0,0 z"
         style="fill:#000000" />
      <path
         id="path3023"
         d="m -748.44007,161.87968 c 2.00706,-20.4259 13.62608,12.82604 0,0 z"
         style="fill:#000000" />
      <path
         id="path3021"
         d="m -783.27809,139.66094 c -19.51746,-5.76485 -28.66337,-48.19421 -35.92078,-20.30156 -17.04134,-24.66337 18.53974,-36.3825 23.31633,0 25.57322,13.87087 63.05771,44.05836 12.60445,20.30156 l 0,0 z"
         style="fill:#000000" />
      <path
         id="path3019"
         d="m -726.12929,148.6701 c 12.80718,-7.31908 33.47307,-13.1759 6.92609,4.20226 l -4.91457,-0.40233 -2.01152,-3.79993 0,0 z"
         style="fill:#000000" />
      <path
         id="path3017"
         d="m -781.18932,123.58223 c 5.93443,-13.47647 11.30026,14.98338 0,0 z"
         style="fill:#000000" />
      <path
         id="path3015"
         d="m -727.57747,116.1196 c -35.88627,-34.11749 48.94866,-29.69987 3.80417,-12.57162 1.1015,24.11356 64.85603,6.65948 14.96625,18.24037 l -9.77073,-0.42164 -8.99973,-5.24709 c 0,0 4e-5,-2e-5 4e-5,-2e-5 z"
         style="fill:#000000" />
      <path
         id="path3013"
         d="m -842.4799,108.80225 c 4.7785,-36.74758 9.27601,34.84282 0,0 z"
         style="fill:#000000" />
      <path
         id="path3011"
         d="m -791.2625,104.52348 c -27.6445,-34.22776 34.10879,4.92542 8.36462,7.2357 l -8.36462,-7.2357 z"
         style="fill:#000000" />
      <path
         id="path3009"
         d="m -691.09108,110.16431 c -29.7667,-21.36845 42.06677,14.06081 0,0 z"
         style="fill:#000000" />
      <path
         id="path3007"
         d="m -667.59622,103.99041 c -0.43228,-29.39755 26.72668,10.9127 0,0 z"
         style="fill:#000000" />
      <path
         id="path3005"
         d="m -591.71193,97.98407 c -36.83276,-22.56248 57.6379,18.54643 0,0 l 0,0 z"
         style="fill:#000000" />
      <path
         id="path3003"
         d="m -702.6581,88.24543 c -3.27285,-38.4672 -5.79163,8.24439 3.04834,9.37837 -1.01611,-3.12612 -2.03223,-6.25225 -3.04834,-9.37837 z"
         style="fill:#000000" />
      <path
         id="path3001"
         d="m -842.50617,91.22557 c 29.7576,-3.61743 2.3713,7.42277 0,0 z"
         style="fill:#000000" />
      <path
         id="path2999"
         d="m -761.16749,85.57659 c -3.20521,-34.08025 41.64885,26.17259 0,0 z"
         style="fill:#000000" />
      <path
         id="path2997"
         d="m -575.96557,90.04865 c -35.63612,-5.46199 -7.05217,-23.58348 7.79013,-1.78608 0.0162,3.3594 -7.19687,6.83771 -7.79013,1.78608 z"
         style="fill:#000000" />
      <path
         id="path2995"
         d="m -678.78327,81.07278 c -5.05935,-21.60702 14.44013,15.79652 0,0 z"
         style="fill:#000000" />
      <path
         id="path2993"
         d="m -572.62858,78.5385 c -11.11295,-34.86304 12.83851,-13.00078 9.60836,-8.07574 -8.84059,-51.65224 20.66301,-10.87014 0.40255,10.89097 l -5.69373,-0.82697 -4.31718,-1.98826 0,0 z"
         style="fill:#000000" />
      <path
         id="path2991"
         d="m -737.96133,70.82086 c 18.15336,-15.30218 1.37149,19.86568 0,0 z"
         style="fill:#000000" />
      <path
         id="path2989"
         d="m -751.15658,51.79378 c 5.93445,-13.47646 11.30026,14.98336 0,0 z"
         style="fill:#000000" />
      <path
         id="path2987"
         d="m -694.72029,43.34809 c 12.35629,-28.56441 7.17108,27.96039 0,0 z"
         style="fill:#000000" />
      <path
         id="path2985"
         d="m -626.02014,37.01381 c -10.72137,-23.22964 25.30223,21.5165 0,0 z"
         style="fill:#000000" />
      <path
         id="path2983"
         d="m -593.63643,19.05528 c -9.83067,-20.7288 -37.96114,-11.5356 -22.39604,-25.13491 -13.86846,-18.86762 -45.62753,-83.89815 -26.45666,-87.03471 3.68097,49.9579 44.6322,84.37934 63.68394,126.87042 -5.52799,3.58447 -11.33592,-12.1599 -14.83124,-14.7008 z"
         style="fill:#000000" />
      <path
         id="path2981"
         d="m -650.07162,7.45386 c 2.61137,-27.4459 3.69824,24.34139 0,0 z"
         style="fill:#000000" />
      <path
         id="path2979"
         d="m -1168.4196,-68.55744 c 14.0019,-20.83218 0.9975,21.43983 0,0 z"
         style="fill:#000000" />
      <path
         id="path2977"
         d="m -1146.4103,-94.46755 c 17.8779,-46.24343 23.2433,-16.37792 0,0 z"
         style="fill:#000000" />
      <path
         id="path2975"
         d="m -1119.5104,-117.12022 c 9.6538,-14.84218 77.4029,-60.39099 35.6376,-19.41826 -5.2963,15.85011 -30.5562,18.07546 -35.6376,19.41826 z"
         style="fill:#000000" />
      <path
         id="path2973"
         d="m -711.11291,-115.00879 c 5.06908,-20.70015 10.32453,21.64541 0,0 z"
         style="fill:#000000" />
      <path
         id="path2971"
         d="m -1141.5822,-131.65097 c 11.1848,-22.27733 11.3564,15.47102 0,0 z"
         style="fill:#000000" />
      <path
         id="path2969"
         d="m -1121.5604,-133.89493 c 8.1433,-17.48144 25.4947,-43.55366 15.428,-3.73563 -2.4804,4.26684 -11.658,8.20932 -15.428,3.73563 z"
         style="fill:#000000" />
      <path
         id="path2967"
         d="m -664.81243,-137.05307 c -31.32596,-21.19301 8.66763,-17.49774 5.15406,0.71118 l -5.15406,-0.71119 c 0,0 0,1e-5 0,1e-5 z"
         style="fill:#000000" />
      <path
         id="path2965"
         d="m -1056.4895,-163.07313 c 9.6224,-21.17932 14.0135,7.58823 0,0 z"
         style="fill:#000000" />
      <path
         id="path2963"
         d="m -1105.9591,-171.62292 c 15.4605,-3.16507 29.6498,-37.40875 54.4751,-34.16067 -14.0627,11.99779 -33.3974,45.24793 -54.4751,34.16067 z"
         style="fill:#000000" />
      <path
         id="path2961"
         d="m -732.96149,-193.20183 c -38.80895,-44.6709 46.28414,36.25659 0,0 l 0,0 z"
         style="fill:#000000" />
      <path
         id="path2959"
         d="m -771.18596,-208.10739 c -25.86093,-19.08888 41.22017,12.66298 0,0 z"
         style="fill:#000000" />
      <path
         id="path2830-9"
         d="m -817.51682,-214.15071 c -45.32458,-20.91382 31.04018,-0.77275 10.26316,4.7147 l -10.26316,-4.7147 0,0 z"
         style="fill:#000000" />
      <path
         transform="matrix(1.5011676,-1.2249767,0.75523706,3.5302588,-392.49666,-734.96767)"
         style="fill:#000000"
         d="m 82.65625,333.6875 a 1.8362614,1.8362614 0 0 0 -0.71875,0.21875 C 44.866152,353.12754 5.8156679,387.94936 4.71875,434.96875 a 1.8362614,1.8362614 0 0 0 0,0.15625 l 0.40625,5.46875 a 1.8362614,1.8362614 0 0 0 3.625,0.3125 C 14.380486,417.33584 27.450816,392.30204 46.125,373.84375 64.799184,355.38546 88.955269,343.49438 117.15625,345.75 A 1.8366521,1.8366521 0 0 0 117.75,342.125 L 83.21875,333.75 a 1.8362614,1.8362614 0 0 0 -0.5625,-0.0625 z"
         id="path3189-6" />
    </g>
    <path
       style="font-size:medium;font-style:normal;font-variant:normal;font-weight:normal;font-stretch:normal;text-indent:0;text-align:start;text-decoration:none;line-height:normal;letter-spacing:normal;word-spacing:normal;text-transform:none;direction:ltr;block-progression:tb;writing-mode:lr-tb;text-anchor:start;color:#000000;fill:#000000;fill-opacity:1;stroke:none;stroke-width:1px;marker:none;visibility:visible;display:inline;overflow:visible;enable-background:accumulate;font-family:Andale Mono;-inkscape-font-specification:Andale Mono"
       d="m 1546.0391,771.95971 c 33.8299,4.89967 9.0731,52.21574 28.1048,72.7936 20.3096,62.51147 60.8596,123.76306 123.2041,150.08749 39.3031,13.1903 84.2116,-5.92609 105.4144,-40.79243 32.4391,-44.63905 47.1333,-106.29049 100.1511,-132.66231 86.0424,-47.19426 204.9805,-22.26612 263.3199,57.11034 267.4478,398.1658 317.2401,805.5466 289.6599,810.7776 -32.7504,1.7477 -87,-517.1732 -357.0694,-818.26193 -29.1759,-28.41895 -69.539,-47.84669 -110.9705,-43.22732 -35.238,-2.37198 -75.9364,2.32818 -98.9887,32.451 -42.8515,45.61768 -61.6937,112.28634 -117.463,145.79635 -36.1072,25.0639 -89.2743,26.0485 -122.3645,-4.8921 -53.4224,-42.53609 -80.4772,-108.16985 -102.2463,-170.91725 -0.5042,-17.95703 -27.6591,-52.47501 -0.7518,-58.26304 z"
       id="path3413"
       sodipodi:nodetypes="cccccccccccccc" />
    <path
       style="font-size:medium;font-style:normal;font-variant:normal;font-weight:normal;font-stretch:normal;text-indent:0;text-align:start;text-decoration:none;line-height:normal;letter-spacing:normal;word-spacing:normal;text-transform:none;direction:ltr;block-progression:tb;writing-mode:lr-tb;text-anchor:start;color:#000000;fill:#000000;fill-opacity:1;stroke:none;stroke-width:1px;marker:none;visibility:visible;display:inline;overflow:visible;enable-background:accumulate;font-family:Andale Mono;-inkscape-font-specification:Andale Mono"
       d="m 1755.082,1372.3477 11.7244,25.0479 c 2.8292,6.2991 2.427,11.7031 2.9576,17.8441 64.933,751.4923 -1028.30466,324.3011 -1347.80872,32.8551 1.77748,1.2848 -18.944,-28.6838 -17.16444,-27.4057 247.01316,177.4084 536.55286,321.8133 838.80906,367.3188 277.5636,34.8092 566.4886,-90.0559 498.8546,-404.0438 l 12.6275,-11.6164 z"
       id="path3818"
       sodipodi:nodetypes="ccscsccc" />
    <path
       style="font-size:medium;font-style:normal;font-variant:normal;font-weight:normal;font-stretch:normal;text-indent:0;text-align:start;text-decoration:none;line-height:normal;letter-spacing:normal;word-spacing:normal;text-transform:none;direction:ltr;block-progression:tb;writing-mode:lr-tb;text-anchor:start;color:#000000;fill:#000000;fill-opacity:1;stroke:none;stroke-width:1px;marker:none;visibility:visible;display:inline;overflow:visible;enable-background:accumulate;font-family:Andale Mono;-inkscape-font-specification:Andale Mono"
       d="m 2070.9688,1003.1875 c -148.2512,43.0426 44.2417,259.5395 -121.7697,297.8919 -55.7218,40.5941 -182.5665,-106.3333 -91.5246,-12.5383 113.6064,57.6739 217.4853,-69.1517 145.3327,-169.2982 -14.8704,-142.93616 173.8849,-131.20131 201.8914,-12.2638 91.7469,174.008 141.348,365.2582 198.9187,552.1745 -51.9582,151.8544 -111.2516,-103.8027 -113.1767,-167.714 -19.525,-118.8253 -42.2745,-248.6031 -133.6582,-335.4334 -149.1687,27.9592 -26.9698,214.1108 27.7656,281.5914 54.1513,83.7675 188.3925,303.9385 32.9408,337.7985 -168.4182,-42.9582 -54.1293,-241.5468 -138.9891,-335.3266 -152.0438,-77.1428 -150.2947,135.1886 -106.7904,225.4389 37.6534,153.6667 1.3353,367.3614 -183.5533,398.3406 -343.4484,56.6267 -708.2539,99.6028 -1045.17078,-14.9538 -176.33795,-59.0187 -331.74438,-173.2027 -445.08225,-320.21 213.46641,290.6136 592.17587,409.6426 941.26903,391.8946 206.0439,-1.486 412.2404,-24.9706 612.3981,-74.3808 153.4307,-75.304 152.1151,-276.9894 108.8709,-419.0726 -35.6039,-80.1129 14.719,-288.1944 120.3368,-171.7054 71.1829,91.9603 -5.9947,246.5938 108.4727,314.2109 157.6101,22.9347 102.3399,-194.9528 35.782,-267.0619 -47.2846,-100.892 -170.9604,-192.5143 -129.9418,-315.1859 121.2686,-95.852 153.6507,141.3494 180.0241,221.2353 30.1099,86.2378 10.4997,301.7962 119.0658,286.9065 17.9605,-110.8089 -57.9618,-211.8096 -78.8144,-318.8377 -45.4026,-128.2523 -82.0102,-279.5195 -198.0867,-362.5137 -14.3984,-7.1224 -30.4239,-11.0259 -46.5107,-10.987 z"
       id="path3921" />
  </g>
</svg>
