<?xml version="1.0" encoding="UTF-8" standalone="no"?>
<!-- Created with Inkscape (http://www.inkscape.org/) -->

<svg
   xmlns:dc="http://purl.org/dc/elements/1.1/"
   xmlns:cc="http://creativecommons.org/ns#"
   xmlns:rdf="http://www.w3.org/1999/02/22-rdf-syntax-ns#"
   xmlns:svg="http://www.w3.org/2000/svg"
   xmlns="http://www.w3.org/2000/svg"
   xmlns:sodipodi="http://sodipodi.sourceforge.net/DTD/sodipodi-0.dtd"
   xmlns:inkscape="http://www.inkscape.org/namespaces/inkscape"
   width="500"
   height="500"
   id="svg2"
   version="1.1"
   inkscape:version="0.47 r22583"
   sodipodi:docname="xn_logo_inline.svg"
   inkscape:export-filename="/mnt/files/l/xnoise/data/ui/xnoise_48x48.png"
   inkscape:export-xdpi="8.6400003"
   inkscape:export-ydpi="8.6400003">
  <defs
     id="defs4">
    <inkscape:path-effect
       effect="skeletal"
       id="path-effect2886"
       is_visible="true"
       pattern="M 0,0 1,0"
       copytype="single_stretched"
       prop_scale="1"
       scale_y_rel="false"
       spacing="0"
       normal_offset="0"
       tang_offset="0"
       prop_units="false"
       vertical_pattern="false"
       fuse_tolerance="0" />
    <inkscape:path-effect
       effect="ruler"
       id="path-effect2884"
       is_visible="true"
       unit="px"
       mark_distance="20"
       mark_length="14"
       minor_mark_length="7"
       major_mark_steps="5"
       shift="0"
       offset="0"
       mark_dir="left"
       border_marks="both" />
    <inkscape:perspective
       sodipodi:type="inkscape:persp3d"
       inkscape:vp_x="0 : 526.18109 : 1"
       inkscape:vp_y="0 : 1000 : 0"
       inkscape:vp_z="744.09448 : 526.18109 : 1"
       inkscape:persp3d-origin="372.04724 : 350.78739 : 1"
       id="perspective10" />
    <inkscape:perspective
       sodipodi:type="inkscape:persp3d"
       inkscape:vp_x="0 : 0.5 : 1"
       inkscape:vp_y="0 : 1000 : 0"
       inkscape:vp_z="1 : 0.5 : 1"
       inkscape:persp3d-origin="0.5 : 0.33333333 : 1"
       id="perspective5432" />
    <inkscape:perspective
       sodipodi:type="inkscape:persp3d"
       inkscape:vp_x="0 : 0.5 : 1"
       inkscape:vp_y="0 : 1000 : 0"
       inkscape:vp_z="1 : 0.5 : 1"
       inkscape:persp3d-origin="0.5 : 0.33333333 : 1"
       id="perspective5410" />
    <inkscape:perspective
       sodipodi:type="inkscape:persp3d"
       inkscape:vp_x="0 : 0.5 : 1"
       inkscape:vp_y="0 : 1000 : 0"
       inkscape:vp_z="1 : 0.5 : 1"
       inkscape:persp3d-origin="0.5 : 0.33333333 : 1"
       id="perspective5386" />
    <inkscape:perspective
       sodipodi:type="inkscape:persp3d"
       inkscape:vp_x="0 : 0.5 : 1"
       inkscape:vp_y="0 : 1000 : 0"
       inkscape:vp_z="1 : 0.5 : 1"
       inkscape:persp3d-origin="0.5 : 0.33333333 : 1"
       id="perspective5362" />
    <inkscape:perspective
       sodipodi:type="inkscape:persp3d"
       inkscape:vp_x="0 : 0.5 : 1"
       inkscape:vp_y="0 : 1000 : 0"
       inkscape:vp_z="1 : 0.5 : 1"
       inkscape:persp3d-origin="0.5 : 0.33333333 : 1"
       id="perspective4805" />
    <inkscape:perspective
       sodipodi:type="inkscape:persp3d"
       inkscape:vp_x="0 : 0.5 : 1"
       inkscape:vp_y="0 : 1000 : 0"
       inkscape:vp_z="1 : 0.5 : 1"
       inkscape:persp3d-origin="0.5 : 0.33333333 : 1"
       id="perspective4300" />
    <inkscape:perspective
       sodipodi:type="inkscape:persp3d"
       inkscape:vp_x="0 : 0.5 : 1"
       inkscape:vp_y="0 : 1000 : 0"
       inkscape:vp_z="1 : 0.5 : 1"
       inkscape:persp3d-origin="0.5 : 0.33333333 : 1"
       id="perspective3936" />
    <inkscape:perspective
       sodipodi:type="inkscape:persp3d"
       inkscape:vp_x="0 : 0.5 : 1"
       inkscape:vp_y="0 : 1000 : 0"
       inkscape:vp_z="1 : 0.5 : 1"
       inkscape:persp3d-origin="0.5 : 0.33333333 : 1"
       id="perspective3784" />
    <inkscape:perspective
       sodipodi:type="inkscape:persp3d"
       inkscape:vp_x="0 : 0.5 : 1"
       inkscape:vp_y="0 : 1000 : 0"
       inkscape:vp_z="1 : 0.5 : 1"
       inkscape:persp3d-origin="0.5 : 0.33333333 : 1"
       id="perspective3733" />
    <inkscape:perspective
       sodipodi:type="inkscape:persp3d"
       inkscape:vp_x="0 : 0.5 : 1"
       inkscape:vp_y="0 : 1000 : 0"
       inkscape:vp_z="1 : 0.5 : 1"
       inkscape:persp3d-origin="0.5 : 0.33333333 : 1"
       id="perspective3711" />
    <inkscape:perspective
       sodipodi:type="inkscape:persp3d"
       inkscape:vp_x="0 : 0.5 : 1"
       inkscape:vp_y="0 : 1000 : 0"
       inkscape:vp_z="1 : 0.5 : 1"
       inkscape:persp3d-origin="0.5 : 0.33333333 : 1"
       id="perspective3679" />
    <inkscape:perspective
       sodipodi:type="inkscape:persp3d"
       inkscape:vp_x="0 : 0.5 : 1"
       inkscape:vp_y="0 : 1000 : 0"
       inkscape:vp_z="1 : 0.5 : 1"
       inkscape:persp3d-origin="0.5 : 0.33333333 : 1"
       id="perspective3657" />
    <inkscape:perspective
       sodipodi:type="inkscape:persp3d"
       inkscape:vp_x="0 : 0.5 : 1"
       inkscape:vp_y="0 : 1000 : 0"
       inkscape:vp_z="1 : 0.5 : 1"
       inkscape:persp3d-origin="0.5 : 0.33333333 : 1"
       id="perspective3624" />
    <inkscape:perspective
       sodipodi:type="inkscape:persp3d"
       inkscape:vp_x="0 : 0.5 : 1"
       inkscape:vp_y="0 : 1000 : 0"
       inkscape:vp_z="1 : 0.5 : 1"
       inkscape:persp3d-origin="0.5 : 0.33333333 : 1"
       id="perspective3602" />
    <inkscape:perspective
       id="perspective10-8"
       inkscape:persp3d-origin="372.04724 : 350.78739 : 1"
       inkscape:vp_z="744.09448 : 526.18109 : 1"
       inkscape:vp_y="0 : 1000 : 0"
       inkscape:vp_x="0 : 526.18109 : 1"
       sodipodi:type="inkscape:persp3d" />
    <inkscape:perspective
       id="perspective3839"
       inkscape:persp3d-origin="0.5 : 0.33333333 : 1"
       inkscape:vp_z="1 : 0.5 : 1"
       inkscape:vp_y="0 : 1000 : 0"
       inkscape:vp_x="0 : 0.5 : 1"
       sodipodi:type="inkscape:persp3d" />
    <inkscape:perspective
       id="perspective3899"
       inkscape:persp3d-origin="0.5 : 0.33333333 : 1"
       inkscape:vp_z="1 : 0.5 : 1"
       inkscape:vp_y="0 : 1000 : 0"
       inkscape:vp_x="0 : 0.5 : 1"
       sodipodi:type="inkscape:persp3d" />
    <inkscape:perspective
       id="perspective3921"
       inkscape:persp3d-origin="0.5 : 0.33333333 : 1"
       inkscape:vp_z="1 : 0.5 : 1"
       inkscape:vp_y="0 : 1000 : 0"
       inkscape:vp_x="0 : 0.5 : 1"
       sodipodi:type="inkscape:persp3d" />
    <inkscape:perspective
       id="perspective3946"
       inkscape:persp3d-origin="0.5 : 0.33333333 : 1"
       inkscape:vp_z="1 : 0.5 : 1"
       inkscape:vp_y="0 : 1000 : 0"
       inkscape:vp_x="0 : 0.5 : 1"
       sodipodi:type="inkscape:persp3d" />
    <inkscape:perspective
       id="perspective3974"
       inkscape:persp3d-origin="0.5 : 0.33333333 : 1"
       inkscape:vp_z="1 : 0.5 : 1"
       inkscape:vp_y="0 : 1000 : 0"
       inkscape:vp_x="0 : 0.5 : 1"
       sodipodi:type="inkscape:persp3d" />
    <inkscape:perspective
       id="perspective3974-7"
       inkscape:persp3d-origin="0.5 : 0.33333333 : 1"
       inkscape:vp_z="1 : 0.5 : 1"
       inkscape:vp_y="0 : 1000 : 0"
       inkscape:vp_x="0 : 0.5 : 1"
       sodipodi:type="inkscape:persp3d" />
  </defs>
  <sodipodi:namedview
     id="base"
     pagecolor="#ffffff"
     bordercolor="#666666"
     borderopacity="1.0"
     inkscape:pageopacity="0.0"
     inkscape:pageshadow="2"
     inkscape:zoom="0.49497475"
     inkscape:cx="232.47453"
     inkscape:cy="-51.81903"
     inkscape:document-units="px"
     inkscape:current-layer="layer1"
     showgrid="false"
     inkscape:window-width="1190"
     inkscape:window-height="825"
     inkscape:window-x="82"
     inkscape:window-y="148"
     inkscape:window-maximized="0">
    <inkscape:grid
       type="xygrid"
       id="grid4041"
       empspacing="5"
       visible="true"
       enabled="true"
       snapvisiblegridlinesonly="true" />
  </sodipodi:namedview>
  <metadata
     id="metadata7">
    <rdf:RDF>
      <cc:Work
         rdf:about="">
        <dc:format>image/svg+xml</dc:format>
        <dc:type
           rdf:resource="http://purl.org/dc/dcmitype/StillImage" />
        <dc:title></dc:title>
      </cc:Work>
    </rdf:RDF>
  </metadata>
  <g
     inkscape:groupmode="layer"
     id="layer4"
     inkscape:label="back"
     transform="translate(0,-552.36218)">
    <path
       sodipodi:type="inkscape:offset"
       inkscape:radius="3.1205919"
       inkscape:original="M 96.3125 -3.96875 C 70.657695 15.136228 54.762771 33.551726 45.65625 53.625 C 36.062816 38.344603 21.602713 23.883782 0.65625 9.03125 L -14.03125 30.34375 C 14.57243 50.62578 25.9622 66.10017 31.78125 84.71875 C 30.13621 90.17753 25.17585 98.38065 17.21875 106.84375 C 8.0936798 116.54909 -3.9922202 126.5071 -15.46875 135.21875 L -0.125 156.03125 C 11.89803 146.90475 24.94093 136.31092 35.78125 124.78125 C 41.862141 118.31368 47.437553 111.60588 51.53125 104.28125 C 54.471148 108.36396 57.761298 112.32544 61.21875 116.1875 C 72.03389 128.26828 85.0722 139.41624 97.09375 149 L 112.9375 128.5625 C 101.45948 119.412 89.33774 108.93979 80.1875 98.71875 C 72.05126 89.63037 66.94223 80.81041 65.34375 74.75 C 71.20569 54.82327 82.721814 38.37639 111.46875 16.96875 L 96.3125 -3.96875 z "
       style="font-size:medium;font-style:normal;font-variant:normal;font-weight:normal;font-stretch:normal;text-indent:0;text-align:start;text-decoration:none;line-height:normal;letter-spacing:normal;word-spacing:normal;text-transform:none;direction:ltr;block-progression:tb;writing-mode:lr-tb;text-anchor:start;color:#000000;fill:#241d55;fill-opacity:1;stroke:none;stroke-width:15.49999809;marker:none;visibility:visible;display:inline;overflow:visible;enable-background:accumulate;font-family:Bitstream Vera Sans;-inkscape-font-specification:Bitstream Vera Sans"
       id="path4795"
       d="m 96.125,-7.09375 a 3.1209039,3.1209039 0 0 0 -1.6875,0.625 C 70.499649,11.357623 54.842648,28.796041 45.1875,47.625 35.392126,33.524522 21.665116,20.111589 2.46875,6.5 a 3.1209039,3.1209039 0 0 0 -4.375,0.75 l -14.6875,21.3125 a 3.1209039,3.1209039 0 0 0 0.75,4.3125 c 27.759821,19.683674 38.571639,34.240673 44.28125,51.75 -1.642939,4.713781 -6.176519,12.304562 -13.5,20.09375 -8.9128288,9.4796 -20.8765192,19.34285 -32.28125,28 a 3.1209039,3.1209039 0 0 0 -0.625,4.34375 L -2.625,157.875 a 3.1209039,3.1209039 0 0 0 4.375,0.65625 c 12.08364,-9.17251 25.269956,-19.88025 36.3125,-31.625 5.114384,-5.4396 9.868966,-11.13063 13.8125,-17.28125 2.275176,2.92032 4.53993,5.87338 7.03125,8.65625 11.010138,12.2986 24.166099,23.52278 36.25,33.15625 a 3.1209039,3.1209039 0 0 0 4.40625,-0.53125 l 15.84375,-20.4375 A 3.1209039,3.1209039 0 0 0 114.875,126.125 C 103.46704,117.03035 91.443246,106.61482 82.5,96.625 74.931906,88.171253 70.251098,79.970591 68.65625,74.71875 c 5.756188,-18.889589 16.689589,-34.400153 44.6875,-55.25 A 3.1209039,3.1209039 0 0 0 114,15.125 L 98.84375,-5.8125 A 3.1209039,3.1209039 0 0 0 96.125,-7.09375 z"
       transform="matrix(3.1019207,0,0,2.8840964,99.83196,585.19353)"
       inkscape:path-effect="#path-effect2886" />
    <path
       sodipodi:type="inkscape:offset"
       inkscape:radius="2.2462652"
       inkscape:original="M 209.375 902.15625 C 192.1299 912.64438 182.573 925.0783 182.9375 938.25 C 183.302 951.4216 193.46425 963.5884 211.375 973.9375 L 215.9375 966.71875 C 199.38767 957.15595 192.03392 947.1302 191.78125 938 C 191.52859 928.8697 198.27402 918.92149 214.125 909.28125 L 209.375 902.15625 z "
       style="font-size:medium;font-style:normal;font-variant:normal;font-weight:normal;font-stretch:normal;text-indent:0;text-align:start;text-decoration:none;line-height:normal;letter-spacing:normal;word-spacing:normal;text-transform:none;direction:ltr;block-progression:tb;writing-mode:lr-tb;text-anchor:start;color:#000000;fill:#241d55;fill-opacity:1;stroke:none;stroke-width:5.4000001;marker:none;visibility:visible;display:inline;overflow:visible;enable-background:accumulate;font-family:Bitstream Vera Sans;-inkscape-font-specification:Bitstream Vera Sans"
       id="path3858"
       d="m 209.34375,899.90625 a 2.2464898,2.2464898 0 0 0 -1.125,0.34375 c -17.60373,10.70624 -27.92686,23.76643 -27.53125,38.0625 0.39538,14.28741 11.31011,27.01599 29.5625,37.5625 a 2.2464898,2.2464898 0 0 0 3.03125,-0.75 l 4.5625,-7.21875 a 2.2464898,2.2464898 0 0 0 -0.78125,-3.125 c -16.21054,-9.36675 -22.81066,-18.87285 -23.03125,-26.84375 -0.22083,-7.98011 5.74347,-17.31925 21.25,-26.75 A 2.2464898,2.2464898 0 0 0 216,908.03125 l -4.75,-7.125 a 2.2464898,2.2464898 0 0 0 -1.90625,-1 z"
       transform="matrix(3.1367467,0,0,3.10595,-221.41669,-2118.8108)" />
    <path
       sodipodi:type="inkscape:offset"
       inkscape:radius="1.9133712"
       inkscape:original="M 209.65625 922.3125 C 204.55054 927.5615 201.03657 932.1869 200.78125 937.5 C 200.52594 942.8131 203.78081 947.84645 210.375 953.28125 L 213.8125 949.53125 C 207.75266 944.53685 205.84511 940.9733 206 937.75 C 206.15497 934.5267 208.65498 930.69975 213.5 925.71875 L 209.65625 922.3125 z "
       style="font-size:medium;font-style:normal;font-variant:normal;font-weight:normal;font-stretch:normal;text-indent:0;text-align:start;text-decoration:none;line-height:normal;letter-spacing:normal;word-spacing:normal;text-transform:none;direction:ltr;block-progression:tb;writing-mode:lr-tb;text-anchor:start;color:#000000;fill:#241d55;fill-opacity:1;stroke:none;stroke-width:3.20000005;marker:none;visibility:visible;display:inline;overflow:visible;enable-background:accumulate;font-family:Bitstream Vera Sans;-inkscape-font-specification:Bitstream Vera Sans"
       id="path3881"
       d="m 209.5,920.40625 a 1.9135625,1.9135625 0 0 0 -1.21875,0.5625 c -5.19148,5.33718 -9.11308,10.33685 -9.40625,16.4375 -0.29551,6.14971 3.4781,11.73673 10.28125,17.34375 a 1.9135625,1.9135625 0 0 0 2.625,-0.1875 l 3.4375,-3.75 a 1.9135625,1.9135625 0 0 0 -0.1875,-2.75 c -5.86721,-4.83564 -7.2405,-7.81526 -7.125,-10.21875 0.11106,-2.30993 2.23589,-5.91556 6.96875,-10.78125 a 1.9135625,1.9135625 0 0 0 -0.0937,-2.78125 L 210.9375,920.875 A 1.9135625,1.9135625 0 0 0 209.5,920.40625 z"
       transform="matrix(3.1367467,0,0,3.10595,-215.41669,-2118.8108)" />
  </g>
  <g
     inkscape:groupmode="layer"
     id="layer5"
     inkscape:label="middle"
     transform="translate(0,-552.36218)">
    <path
       transform="matrix(3.1019207,0,0,2.8840964,99.41681,585.21958)"
       style="font-size:medium;font-style:normal;font-variant:normal;font-weight:normal;font-stretch:normal;text-indent:0;text-align:start;text-decoration:none;line-height:normal;letter-spacing:normal;word-spacing:normal;text-transform:none;direction:ltr;block-progression:tb;writing-mode:lr-tb;text-anchor:start;color:#000000;fill:#e9f4fe;fill-opacity:1;stroke:none;stroke-width:15.49999809;marker:none;visibility:visible;display:inline;overflow:visible;enable-background:accumulate;font-family:Bitstream Vera Sans;-inkscape-font-specification:Bitstream Vera Sans"
       d="m 96.25,-5.0625 c -0.05573,0.0039 -0.0072,0.023285 -0.0625,0.03125 -0.05529,0.00796 -0.03919,-0.011985 -0.09375,0 -0.05456,0.011985 -0.009,0.015309 -0.0625,0.03125 -0.05354,0.015941 -0.01027,0.011438 -0.0625,0.03125 -0.05223,0.019812 -0.0431,0.00767 -0.09375,0.03125 -0.05065,0.023578 -0.01371,0.00403 -0.0625,0.03125 -0.04879,0.027216 -0.01583,5.403e-4 -0.0625,0.03125 -0.04667,0.03071 -0.0182,-0.00279 -0.0625,0.03125 a 0.61088239,0.61088239 0 0 1 0,0.03125 C 71.027891,13.551362 55.33757,31.373472 45.96875,50.65625 a 0.61088239,0.61088239 0 0 1 -1.0625,0.0625 C 35.233437,36.15466 21.229656,22.301089 1.28125,8.15625 1.2505877,8.1345892 1.2504398,8.1451277 1.21875,8.125 1.1870602,8.1048723 1.2201407,8.1122959 1.1875,8.09375 1.1548593,8.0752041 1.1585128,8.0794193 1.125,8.0625 c -0.033513,-0.016919 0.00305,0.015252 -0.03125,0 C 1.0594462,8.0472481 1.0662619,8.0447975 1.03125,8.03125 0.99623809,8.0177025 1.0356354,8.0118105 1,8 c -0.0356354,-0.011811 -0.0263272,0.010045 -0.0625,0 -0.0361728,-0.010045 0.005373,0.00826 -0.03125,0 -0.0366228,-0.00826 -0.0255158,-0.024805 -0.0625,-0.03125 -0.0369842,-0.00645 -0.0252438,0.00462 -0.0625,0 -0.0372562,-0.00462 0.006188,0.00278 -0.03125,0 -0.0374383,-0.00278 -0.0249702,9.398e-4 -0.0625,0 -0.0375298,-9.398e-4 -0.0249694,-9.058e-4 -0.0625,0 -0.0375307,9.058e-4 -0.0250592,-0.00275 -0.0625,0 -0.0374408,0.00275 0.00601,-0.00459 -0.03125,0 -0.0372604,0.00459 -0.02551,-0.00641 -0.0625,0 -0.03699,0.00641 -0.0258698,0.023028 -0.0625,0.03125 -0.0366302,0.00822 0.004932,-0.010012 -0.03125,0 -0.0361819,0.010012 -0.0268539,-0.011778 -0.0625,0 -0.0356461,0.011778 0.003774,0.017734 -0.03125,0.03125 -0.0350242,0.013516 -0.0281824,0.016029 -0.0625,0.03125 -0.0343176,0.015221 0.002278,-0.016889 -0.03125,0 C 0.15397192,8.079389 0.15765754,8.0752337 0.125,8.09375 0.09234246,8.1122663 0.12545807,8.104901 0.09375,8.125 0.06204193,8.145099 0.06193196,8.134617 0.03125,8.15625 5.680388e-4,8.177883 0.0295817,8.1643852 0,8.1875 c -0.0295817,0.023115 -0.00284005,0.00671 -0.03125,0.03125 -0.02840995,0.024541 -0.03533046,0.00534 -0.0625,0.03125 -0.02716954,0.025907 -0.0053865,0.00404 -0.03125,0.03125 -0.0258635,0.027211 -0.006755,0.034051 -0.03125,0.0625 -0.0244949,0.028449 -0.008183,0.00163 -0.03125,0.03125 -0.0230671,0.029619 -0.009666,5.332e-4 -0.03125,0.03125 l -14.6875,21.3125 c -0.02166,0.03066 -0.01112,0.03081 -0.03125,0.0625 -0.02013,0.03169 -0.0127,-0.0014 -0.03125,0.03125 -0.01855,0.03264 -0.01433,0.02899 -0.03125,0.0625 -0.01692,0.03351 0.01525,-0.0031 0,0.03125 -0.01525,0.0343 -0.0177,0.02749 -0.03125,0.0625 -0.01355,0.03501 -0.01944,-0.0044 -0.03125,0.03125 -0.01181,0.03563 0.01004,0.02633 0,0.0625 -0.01004,0.03617 0.0083,-0.0054 0,0.03125 -0.0083,0.03662 -0.02481,0.02552 -0.03125,0.0625 -0.0064,0.03698 0.0046,0.02524 0,0.0625 -0.0046,0.03726 0.0028,-0.0062 0,0.03125 -0.0028,0.03744 9.4e-4,0.02497 0,0.0625 -9.4e-4,0.03753 -9.06e-4,0.02497 0,0.0625 9.06e-4,0.03753 -0.0027,0.02506 0,0.0625 0.0027,0.03744 -0.0046,-0.006 0,0.03125 0.0046,0.03726 -0.0064,0.02551 0,0.0625 0.0064,0.03699 0.02303,0.02587 0.03125,0.0625 0.0082,0.03663 -0.01001,-0.0049 0,0.03125 0.01001,0.03618 -0.01178,0.02685 0,0.0625 0.01178,0.03565 0.01773,-0.0038 0.03125,0.03125 0.01352,0.03502 0.01603,0.02818 0.03125,0.0625 0.01522,0.03432 -0.01689,-0.0023 0,0.03125 0.01689,0.03353 0.01273,0.02984 0.03125,0.0625 0.01852,0.03266 0.01115,-4.58e-4 0.03125,0.03125 0.0201,0.03171 0.0096,0.03182 0.03125,0.0625 0.02163,0.03068 0.0081,0.0017 0.03125,0.03125 0.02312,0.02958 0.0067,0.0028 0.03125,0.03125 0.02454,0.02841 0.0053,0.03533 0.03125,0.0625 0.02591,0.02717 0.004,0.0054 0.03125,0.03125 0.02721,0.02586 0.03405,0.0068 0.0625,0.03125 0.02845,0.0245 0.0016,0.0082 0.03125,0.03125 0.02962,0.02307 5.33e-4,0.0097 0.03125,0.03125 28.221999,20.011392 39.450326,35.12457 45.25,53.28125 a 0.61088239,0.61088239 0 0 1 0,0.375 c -1.693676,5.188136 -6.494699,13.069994 -14.15625,21.21875 -9.0524131,9.62806 -21.0790257,19.58805 -32.53125,28.28125 -0.02989,0.0224 -0.03374,0.007 -0.0625,0.0312 -0.02876,0.0238 -0.0037,0.006 -0.03125,0.0312 -0.02756,0.0252 -0.005,0.005 -0.03125,0.0312 -0.0263,0.0265 -0.0063,0.003 -0.03125,0.0312 -0.02497,0.0278 -0.0077,0.002 -0.03125,0.0312 -0.02359,0.029 -0.0091,0.0324 -0.03125,0.0625 -0.02214,0.0301 -0.01061,1.3e-4 -0.03125,0.0312 -0.02064,0.0311 -0.01215,0.0304 -0.03125,0.0625 -0.0191,0.0321 -0.01374,-0.002 -0.03125,0.0312 -0.01751,0.033 -0.01537,-0.003 -0.03125,0.0312 -0.01588,0.0338 0.0142,0.028 0,0.0625 -0.0142,0.0345 -0.01875,0.0273 -0.03125,0.0625 -0.0125,0.0352 -0.02049,-0.005 -0.03125,0.0312 -0.01076,0.0358 0.009,0.0263 0,0.0625 -0.009,0.0362 0.0072,-0.005 0,0.0312 -0.0072,0.0366 -0.02583,0.0256 -0.03125,0.0625 -0.0054,0.0369 0.0036,0.0253 0,0.0625 -0.0036,0.0372 0.0018,-0.006 0,0.0312 -0.0018,0.0373 -4.1e-5,0.0252 0,0.0625 4.1e-5,0.0373 -0.0019,0.0252 0,0.0625 0.0019,0.0373 -0.0037,-0.006 0,0.0312 0.0037,0.0372 -0.0055,0.0256 0,0.0625 0.0055,0.0369 0.02395,0.0259 0.03125,0.0625 0.0073,0.0366 -0.0091,-0.005 0,0.0312 0.0091,0.0362 -0.01084,0.0268 0,0.0625 0.01084,0.0357 0.01868,0.0273 0.03125,0.0625 0.01257,0.0352 0.01697,-0.003 0.03125,0.0312 0.01428,0.0345 -0.01595,0.0287 0,0.0625 0.01595,0.0338 0.01367,-0.002 0.03125,0.0312 0.01758,0.0329 0.01208,0.0305 0.03125,0.0625 0.01917,0.032 0.01054,1.8e-4 0.03125,0.0312 0.02071,0.0311 0.009,0.001 0.03125,0.0312 l 15.34375,20.8125 c 0.022381,0.0299 0.007434,0.0337 0.03125,0.0625 0.0238157,0.0288 0.006057,0.004 0.03125,0.0312 0.0251934,0.0276 0.004739,0.005 0.03125,0.0312 0.0265108,0.0263 0.003485,0.006 0.03125,0.0312 0.0277648,0.025 0.002298,0.008 0.03125,0.0312 0.0289525,0.0236 0.0324291,0.009 0.0625,0.0312 0.0300709,0.0221 1.3259e-4,0.0106 0.03125,0.0312 0.0311174,0.0206 0.0304105,0.0121 0.0625,0.0312 0.0320895,0.0191 -0.001735,0.0137 0.03125,0.0312 0.0329848,0.0175 -0.002551,0.0154 0.03125,0.0312 0.0338013,0.0159 0.027963,-0.0142 0.0625,0 0.034537,0.0142 0.02731,0.0188 0.0625,0.0312 0.03519,0.0125 -0.004509,0.0205 0.03125,0.0312 0.0357589,0.0108 0.0262577,-0.009 0.0625,0 0.0362423,0.009 -0.005389,-0.007 0.03125,0 0.036639,0.007 0.0255519,0.0258 0.0625,0.0312 0.0369481,0.005 0.0253311,-0.004 0.0625,0 0.0371689,0.004 -0.006051,-0.002 0.03125,0 0.0373007,0.002 0.0251566,4e-5 0.0625,0 0.03734338,-4e-5 0.02520327,0.002 0.0625,0 0.03729673,-0.002 -0.0059109,0.004 0.03125,0 0.0371609,-0.004 0.0255638,0.006 0.0625,0 0.0369362,-0.006 0.02587682,-0.024 0.0625,-0.0312 0.03662318,-0.007 -0.0049726,0.009 0.03125,0 0.0362226,-0.009 0.0267647,0.0108 0.0625,0 0.0357353,-0.0108 0.0273373,-0.0187 0.0625,-0.0312 0.0351627,-0.0126 -0.003256,-0.017 0.03125,-0.0312 0.0345059,-0.0143 0.0287334,0.016 0.0625,0 0.0337666,-0.016 -0.001697,-0.0137 0.03125,-0.0312 0.0329466,-0.0176 0.0304523,-0.0121 0.0625,-0.0312 0.0320477,-0.0192 1.7772e-4,-0.0105 0.03125,-0.0312 0.0310723,-0.0207 0.001227,-0.009 0.03125,-0.0312 12.044022,-9.14243 25.15294,-19.74044 36.0625,-31.34375 5.534587,-5.88652 10.611156,-12.05116 14.625,-18.6875 a 0.61088239,0.61088239 0 0 1 1.03125,-0.0625 c 2.593931,3.44426 5.302369,6.86733 8.21875,10.125 10.882175,12.15566 23.92588,23.33674 35.96875,32.9375 0.02953,0.0236 0.03184,0.009 0.0625,0.0312 0.03066,0.0221 -4.68e-4,0.0107 0.03125,0.0312 0.03172,0.0206 -0.0014,0.0123 0.03125,0.0312 0.0327,0.019 0.0289,-0.0173 0.0625,0 0.0336,0.0173 -0.0032,0.0156 0.03125,0.0312 0.03441,0.0156 0.02736,0.0173 0.0625,0.0312 0.03514,0.0139 0.02671,-0.0122 0.0625,0 0.03579,0.0122 -0.0051,0.0209 0.03125,0.0312 0.03635,0.0104 0.02568,-0.009 0.0625,0 0.03682,0.009 -0.0059,0.0245 0.03125,0.0312 0.0372,0.007 0.02502,-0.005 0.0625,0 0.03748,0.005 0.02482,-0.003 0.0625,0 0.03768,0.003 0.02472,-0.001 0.0625,0 0.03778,0.001 -0.0065,7.1e-4 0.03125,0 0.0378,-7.1e-4 0.02479,0.003 0.0625,0 0.03771,-0.003 0.02496,0.004 0.0625,0 0.03754,-0.004 -0.006,0.006 0.03125,0 0.03727,-0.006 0.02558,-0.0231 0.0625,-0.0312 0.03692,-0.008 0.02603,0.01 0.0625,0 0.03647,-0.01 -0.0047,0.0117 0.03125,0 0.03593,-0.0117 0.02719,-0.0177 0.0625,-0.0312 0.03531,-0.0135 -0.0033,-0.016 0.03125,-0.0312 0.03459,-0.0152 0.0287,0.0169 0.0625,0 0.0338,-0.0169 -0.0017,-0.0127 0.03125,-0.0312 0.03292,-0.0186 0.03054,-0.0111 0.0625,-0.0312 0.03196,-0.0202 3.3e-4,-0.01 0.03125,-0.0312 0.03092,-0.0217 0.03269,-0.008 0.0625,-0.0312 0.02981,-0.0232 0.0026,-0.007 0.03125,-0.0312 0.02862,-0.0247 0.0039,-0.005 0.03125,-0.0312 0.02736,-0.0261 0.0052,-0.004 0.03125,-0.0312 0.02604,-0.0274 0.0066,-0.0338 0.03125,-0.0625 0.02465,-0.0287 0.0393,-0.001 0.0625,-0.0312 l 15.84375,-20.4375 c 0.0231,-0.0291 0.01,-0.001 0.0312,-0.0312 0.0216,-0.0301 0.0111,-0.0313 0.0312,-0.0625 0.0202,-0.0312 0.0126,8.5e-4 0.0312,-0.0312 0.0186,-0.0321 -0.017,-0.0295 0,-0.0625 0.017,-0.033 0.0158,0.003 0.0312,-0.0312 0.0154,-0.0338 0.0175,-0.028 0.0312,-0.0625 0.0138,-0.0345 -0.0121,0.004 0,-0.0312 0.0121,-0.0351 0.0209,-0.0269 0.0312,-0.0625 0.0103,-0.0356 -0.009,-0.0264 0,-0.0625 0.009,-0.0361 0.0244,0.005 0.0312,-0.0312 0.007,-0.0365 -0.005,-0.0257 0,-0.0625 0.005,-0.0368 -0.003,0.006 0,-0.0312 0.003,-0.037 -0.001,-0.0254 0,-0.0625 0.001,-0.0371 3.4e-4,-0.0254 0,-0.0625 -3.4e-4,-0.0371 0.002,0.006 0,-0.0312 -0.002,-0.037 0.004,-0.0256 0,-0.0625 -0.004,-0.0369 0.006,-0.0258 0,-0.0625 -0.006,-0.0367 -0.0238,0.005 -0.0312,-0.0312 -0.007,-0.0363 0.009,-0.0266 0,-0.0625 -0.009,-0.0359 0.011,-0.0271 0,-0.0625 -0.011,-0.0354 -0.0186,0.004 -0.0312,-0.0312 -0.0127,-0.0349 -0.0169,-0.0283 -0.0312,-0.0625 -0.0144,-0.0342 0.016,0.002 0,-0.0312 -0.016,-0.0335 -0.0136,-0.0299 -0.0312,-0.0625 -0.0176,-0.0327 -0.0121,5.1e-4 -0.0312,-0.0312 -0.0192,-0.0318 -0.0105,-0.0317 -0.0312,-0.0625 -0.0207,-0.0308 -0.009,-0.001 -0.0312,-0.0312 -0.0222,-0.0298 -0.008,-0.003 -0.0312,-0.0312 -0.0236,-0.0286 -0.006,-0.004 -0.0312,-0.0312 -0.025,-0.0275 -0.005,-0.0363 -0.0312,-0.0625 -0.0263,-0.0262 -0.004,-0.006 -0.0312,-0.0312 -0.0275,-0.0249 -0.003,-0.008 -0.0312,-0.0312 C 102.17097,118.58737 90.048456,108.14225 80.96875,98 73.096512,89.206517 68.175793,80.671882 66.53125,74.90625 a 0.61088239,0.61088239 0 0 1 0,-0.34375 c 5.840956,-19.497167 17.14998,-35.591397 45.5625,-56.75 a 0.61088239,0.61088239 0 0 1 0.0312,0 c 0.0303,-0.02199 0.002,-0.0078 0.0312,-0.03125 0.0292,-0.02344 0.003,-0.0064 0.0312,-0.03125 0.028,-0.02485 0.004,-0.0051 0.0312,-0.03125 0.0268,-0.02619 0.0371,-0.0038 0.0625,-0.03125 0.0254,-0.02747 0.007,-0.03382 0.0312,-0.0625 0.0241,-0.02868 0.009,-0.0014 0.0312,-0.03125 0.0226,-0.02983 0.0101,-3.49e-4 0.0312,-0.03125 0.0211,-0.0309 0.0117,-0.0306 0.0312,-0.0625 0.0196,-0.0319 -0.018,0.0016 0,-0.03125 0.018,-0.03282 0.0149,-0.02884 0.0312,-0.0625 0.0164,-0.03366 0.0165,0.0032 0.0312,-0.03125 0.0147,-0.03443 0.0182,-0.02739 0.0312,-0.0625 0.013,-0.03511 -0.0113,0.0045 0,-0.03125 0.0113,-0.0357 0.0217,-0.02629 0.0312,-0.0625 0.01,-0.03621 -0.008,0.0054 0,-0.03125 0.008,-0.03663 -0.006,-0.02553 0,-0.0625 0.006,-0.03697 -0.004,-0.02529 0,-0.0625 0.004,-0.03721 0.029,0.0061 0.0312,-0.03125 0.002,-0.03737 -4.3e-4,-0.02506 0,-0.0625 4.3e-4,-0.03744 0.001,-0.02509 0,-0.0625 -0.001,-0.03741 0.003,0.006 0,-0.03125 -0.003,-0.0373 -0.0262,-0.0254 -0.0312,-0.0625 -0.005,-0.0371 0.007,-0.0257 0,-0.0625 -0.007,-0.0368 0.009,0.0052 0,-0.03125 -0.009,-0.03642 -0.0208,-0.02655 -0.0312,-0.0625 -0.0104,-0.03595 0.0122,-0.0271 0,-0.0625 -0.0122,-0.0354 -0.0173,0.0035 -0.0312,-0.03125 -0.0139,-0.03476 0.0156,-0.02847 0,-0.0625 -0.0156,-0.03403 -0.014,0.002 -0.0312,-0.03125 -0.0173,-0.03323 -0.0124,-0.03016 -0.0312,-0.0625 -0.0189,-0.03234 -0.0108,1.31e-4 -0.0312,-0.03125 -0.0204,-0.03138 -0.009,-0.03216 -0.0312,-0.0625 L 97.1875,-4.59375 l 0,-0.03125 c -0.004,-0.0054 -0.01284,-0.00904 -0.03125,-0.03125 -0.03069,-0.03701 -0.02954,-0.027494 -0.0625,-0.0625 -0.03296,-0.035006 0.0038,0.00161 -0.03125,-0.03125 -0.03509,-0.032863 -0.02541,-0.03191 -0.0625,-0.0625 -0.03709,-0.03059 0.0077,-0.00305 -0.03125,-0.03125 -0.03894,-0.028195 -0.02186,-0.00556 -0.0625,-0.03125 -0.04064,-0.025689 -0.02033,-0.00817 -0.0625,-0.03125 -0.04217,-0.023081 -0.01896,-0.010868 -0.0625,-0.03125 -0.04354,-0.020382 -0.01776,-0.013648 -0.0625,-0.03125 -0.04474,-0.017602 -0.01674,-0.016498 -0.0625,-0.03125 -0.04576,-0.014752 -0.0159,-0.019407 -0.0625,-0.03125 -0.0466,-0.011843 -0.01525,0.00889 -0.0625,0 -0.04725,-0.00889 -0.01479,0.0059 -0.0625,0 -0.04771,-0.0059 -0.01451,-0.028367 -0.0625,-0.03125 -0.04799,-0.00288 -0.04567,-1.422e-4 -0.09375,0 -0.04808,1.422e-4 -0.01453,0.028083 -0.0625,0.03125 l 0,-0.03125 z"
       id="path3854" />
    <path
       sodipodi:type="inkscape:offset"
       inkscape:radius="-1.4076594"
       inkscape:original="M 209.34375 899.90625 A 2.2464898 2.2464898 0 0 0 208.21875 900.25 C 190.61502 910.95624 180.29189 924.01643 180.6875 938.3125 C 181.08288 952.59991 191.99761 965.32849 210.25 975.875 A 2.2464898 2.2464898 0 0 0 213.28125 975.125 L 217.84375 967.90625 A 2.2464898 2.2464898 0 0 0 217.0625 964.78125 C 200.85196 955.4145 194.25184 945.9084 194.03125 937.9375 C 193.81042 929.95739 199.77472 920.61825 215.28125 911.1875 A 2.2464898 2.2464898 0 0 0 216 908.03125 L 211.25 900.90625 A 2.2464898 2.2464898 0 0 0 209.34375 899.90625 z "
       style="font-size:medium;font-style:normal;font-variant:normal;font-weight:normal;font-stretch:normal;text-indent:0;text-align:start;text-decoration:none;line-height:normal;letter-spacing:normal;word-spacing:normal;text-transform:none;direction:ltr;block-progression:tb;writing-mode:lr-tb;text-anchor:start;color:#000000;fill:#e9f4fe;fill-opacity:1;stroke:none;stroke-width:5.4000001;marker:none;visibility:visible;display:inline;overflow:visible;enable-background:accumulate;font-family:Bitstream Vera Sans;-inkscape-font-specification:Bitstream Vera Sans"
       id="path3935"
       d="m 209.28125,901.3125 c -0.0796,0.0132 0.016,0.0128 -0.0625,0.0312 -0.0785,0.0184 0.0146,-0.0236 -0.0625,0 -0.0771,0.0236 0.0442,0.003 -0.0312,0.0312 -0.0754,0.0286 0.0109,-0.0335 -0.0625,0 -0.0734,0.0335 0.0397,-0.007 -0.0312,0.0312 -0.071,0.0383 0.006,-0.0117 -0.0625,0.0312 a 1.4078002,1.4078002 0 0 1 -0.0312,0 c -17.37824,10.5691 -27.21997,23.24824 -26.84375,36.84375 0.3762,13.59443 10.83694,25.95233 28.875,36.375 0.10119,0.0587 -0.0439,-0.0175 0.0625,0.0312 0.10636,0.0488 -0.048,-0.007 0.0625,0.0312 0.11054,0.0383 -0.02,0.004 0.0937,0.0312 0.11371,0.0276 -0.0533,-0.0165 0.0625,0 0.11583,0.0165 -0.0231,0.0259 0.0937,0.0312 0.11688,0.005 -0.0543,0.006 0.0625,0 0.11685,-0.006 -0.022,-0.0142 0.0937,-0.0312 0.11575,-0.0171 -0.0198,0.0281 0.0937,0 0.11357,-0.0281 -0.0479,0.008 0.0625,-0.0312 0.11036,-0.0389 -0.0436,0.018 0.0625,-0.0312 0.10612,-0.0493 -0.007,0.028 0.0937,-0.0312 0.1009,-0.0592 -0.0323,0.0374 0.0625,-0.0312 0.0948,-0.0686 -0.0252,0.0149 0.0625,-0.0625 0.0877,-0.0774 -0.0174,0.023 0.0625,-0.0625 0.0799,-0.0855 -0.0401,0.0302 0.0312,-0.0625 0.0713,-0.0927 3.7e-4,0.0366 0.0625,-0.0625 l 4.5625,-7.21875 c 0.0641,-0.10348 -0.0222,0.0469 0.0312,-0.0625 0.0534,-0.10936 -0.011,0.0204 0.0312,-0.0937 0.0423,-0.11414 5.9e-4,0.0553 0.0312,-0.0625 0.0307,-0.11779 -0.0188,0.0265 0,-0.0937 0.0188,-0.12026 0.0246,0.059 0.0312,-0.0625 0.007,-0.12153 0.005,0.0278 0,-0.0937 -0.005,-0.12159 -0.0137,0.0267 -0.0312,-0.0937 -0.0176,-0.12043 0.0295,0.0556 0,-0.0625 -0.0295,-0.11808 0.01,0.0208 -0.0312,-0.0937 -0.0411,-0.11455 0.0211,0.0474 -0.0312,-0.0625 -0.0524,-0.10987 0.0318,0.0104 -0.0312,-0.0937 -0.0631,-0.1041 0.0106,0.0348 -0.0625,-0.0625 -0.0731,-0.0973 0.0512,0.027 -0.0312,-0.0625 -0.0825,-0.0895 0.0285,0.0183 -0.0625,-0.0625 -0.091,-0.0808 0.0361,0.009 -0.0625,-0.0625 -0.0986,-0.0714 0.0115,0.0299 -0.0937,-0.0312 C 199.9193,956.50965 192.86621,946.68487 192.625,937.96875 192.38394,929.2577 198.84038,919.56187 214.5625,910 a 1.4078002,1.4078002 0 0 1 0,-0.0312 c 0.10491,-0.0632 -0.0355,0.0422 0.0625,-0.0312 0.098,-0.0734 -0.0277,0.0204 0.0625,-0.0625 0.0902,-0.0829 -0.0189,0.029 0.0625,-0.0625 0.0814,-0.0915 -0.009,0.0367 0.0625,-0.0625 0.0718,-0.0992 -0.0302,0.0435 0.0312,-0.0625 0.0615,-0.10595 -0.0193,0.0178 0.0312,-0.0937 0.0505,-0.11159 -0.008,0.0536 0.0312,-0.0625 0.0391,-0.1161 0.004,0.0257 0.0312,-0.0937 0.0272,-0.11943 0.0162,0.0591 0.0312,-0.0625 0.0151,-0.12156 -0.003,0.0287 0,-0.0937 0.003,-0.12246 0.01,0.0284 0,-0.0937 -0.01,-0.12212 -0.01,0.058 -0.0312,-0.0625 -0.0217,-0.12054 0.0337,0.024 0,-0.0937 -0.0337,-0.11775 0.0141,0.02 -0.0312,-0.0937 -0.0454,-0.11377 0.0253,0.0461 -0.0312,-0.0625 -0.0424,-0.0815 -0.0231,-0.0531 -0.0312,-0.0625 l -4.75,-7.125 c -0.0422,-0.0633 0.0148,0.0293 -0.0312,-0.0312 -0.0461,-0.0605 -0.0127,-0.005 -0.0625,-0.0625 -0.0498,-0.0575 0.022,0.0231 -0.0312,-0.0312 -0.0532,-0.0543 0.0253,0.0196 -0.0312,-0.0312 -0.0565,-0.0509 0.0283,0.016 -0.0312,-0.0312 -0.0596,-0.0473 0.0312,0.0122 -0.0312,-0.0312 -0.0624,-0.0435 0.003,0.008 -0.0625,-0.0312 -0.065,-0.0395 0.0361,0.004 -0.0312,-0.0312 -0.0674,-0.0353 0.007,-1.8e-4 -0.0625,-0.0312 -0.0694,-0.0311 0.04,0.0267 -0.0312,0 -0.0712,-0.0267 0.0103,-0.009 -0.0625,-0.0312 -0.0728,-0.0222 0.0115,0.0176 -0.0625,0 -0.074,-0.0176 0.0437,-0.0183 -0.0312,-0.0312 -0.075,-0.0129 0.0131,0.008 -0.0625,0 -0.0756,-0.008 0.0135,0.003 -0.0625,0 -0.076,-0.003 0.0448,-0.001 -0.0312,0 -0.0806,0.003 0.049,-0.008 -0.0312,0 -0.0803,0.008 0.0171,-0.0132 -0.0625,0 z"
       transform="matrix(3.1367467,0,0,3.10595,-221.41947,-2118.502)" />
    <path
       sodipodi:type="inkscape:offset"
       inkscape:radius="-1.213835"
       inkscape:original="M 209.5 920.40625 A 1.9135625 1.9135625 0 0 0 208.28125 920.96875 C 203.08977 926.30593 199.16817 931.3056 198.875 937.40625 C 198.57949 943.55596 202.3531 949.14298 209.15625 954.75 A 1.9135625 1.9135625 0 0 0 211.78125 954.5625 L 215.21875 950.8125 A 1.9135625 1.9135625 0 0 0 215.03125 948.0625 C 209.16404 943.22686 207.79075 940.24724 207.90625 937.84375 C 208.01731 935.53382 210.14214 931.92819 214.875 927.0625 A 1.9135625 1.9135625 0 0 0 214.78125 924.28125 L 210.9375 920.875 A 1.9135625 1.9135625 0 0 0 209.5 920.40625 z "
       style="font-size:medium;font-style:normal;font-variant:normal;font-weight:normal;font-stretch:normal;text-indent:0;text-align:start;text-decoration:none;line-height:normal;letter-spacing:normal;word-spacing:normal;text-transform:none;direction:ltr;block-progression:tb;writing-mode:lr-tb;text-anchor:start;color:#000000;fill:#e9f4fe;fill-opacity:1;stroke:none;stroke-width:3.20000005;marker:none;visibility:visible;display:inline;overflow:visible;enable-background:accumulate;font-family:Bitstream Vera Sans;-inkscape-font-specification:Bitstream Vera Sans"
       id="path3963"
       d="m 209.46875,921.625 c -0.0904,0.0234 0.0255,-1.4e-4 -0.0625,0.0312 -0.088,0.0314 0.0223,-0.008 -0.0625,0.0312 -0.0848,0.0391 0.0185,-0.0153 -0.0625,0.0312 -0.081,0.0466 0.0452,-0.0224 -0.0312,0.0312 -0.0765,0.0536 0.009,-0.029 -0.0625,0.0312 -0.0714,0.0602 0.0344,-0.0351 -0.0312,0.0312 -5.14033,5.2846 -8.79272,10.04223 -9.0625,15.65625 -0.27004,5.61966 3.17599,10.84831 9.84375,16.34375 0.0764,0.0627 -0.0507,-0.0239 0.0312,0.0312 0.082,0.0552 -0.0243,-0.0159 0.0625,0.0312 0.0868,0.0471 -0.0284,-0.007 0.0625,0.0312 0.0909,0.0387 -0.0317,0.001 0.0625,0.0312 0.0942,0.0299 -0.0341,0.0104 0.0625,0.0312 0.0966,0.0209 -0.0356,-0.0117 0.0625,0 0.0981,0.0117 -0.0363,-0.002 0.0625,0 0.0988,0.002 -0.036,0.007 0.0625,0 0.0985,-0.007 -0.004,0.0163 0.0937,0 0.0974,-0.0163 -0.033,-0.006 0.0625,-0.0312 0.0955,-0.0255 -0.0301,0.0344 0.0625,0 0.0926,-0.0344 -0.0265,0.0118 0.0625,-0.0312 0.089,-0.043 -0.0532,0.02 0.0312,-0.0312 0.0845,-0.0512 -0.0168,0.0277 0.0625,-0.0312 0.0793,-0.059 -0.0108,0.004 0.0625,-0.0625 0.0733,-0.0662 -0.0355,0.0416 0.0312,-0.0312 l 3.4375,-3.75 c 0.0703,-0.0777 3e-4,0.0218 0.0625,-0.0625 0.0622,-0.0843 -0.0222,0.0276 0.0312,-0.0625 0.0534,-0.0901 -0.0129,0.0326 0.0312,-0.0625 0.0441,-0.0951 -0.003,0.0365 0.0312,-0.0625 0.0343,-0.099 -0.0242,0.0394 0,-0.0625 0.0242,-0.10194 0.0174,0.0414 0.0312,-0.0625 0.0139,-0.10386 -0.003,0.0422 0,-0.0625 0.003,-0.10473 0.007,0.0108 0,-0.0937 -0.007,-0.10454 0.0176,0.0408 0,-0.0625 -0.0176,-0.1033 -0.003,0.0385 -0.0312,-0.0625 -0.0279,-0.10101 0.007,0.0352 -0.0312,-0.0625 -0.0378,-0.0977 0.0475,0.0309 0,-0.0625 -0.0475,-0.0934 -0.006,0.0257 -0.0625,-0.0625 -0.0566,-0.0882 0.0339,0.0196 -0.0312,-0.0625 -0.0652,-0.0821 0.0418,0.0126 -0.0312,-0.0625 -0.0731,-0.0751 0.0177,0.0361 -0.0625,-0.0312 -2.99216,-2.46608 -4.86533,-4.50175 -6.03125,-6.3125 -1.16592,-1.81075 -1.60123,-3.4501 -1.53125,-4.90625 0.14382,-2.99121 2.49727,-6.61213 7.3125,-11.5625 0.0746,-0.0754 -0.004,0.0201 0.0625,-0.0625 0.0666,-0.0826 -0.0266,0.0264 0.0312,-0.0625 0.0579,-0.0889 -0.0173,0.0318 0.0312,-0.0625 0.0485,-0.0943 -0.007,0.0363 0.0312,-0.0625 0.0387,-0.0988 0.003,0.0397 0.0312,-0.0625 0.0285,-0.1022 0.0133,0.0421 0.0312,-0.0625 0.0179,-0.10456 -0.007,0.0121 0,-0.0937 0.007,-0.10584 0.004,0.0435 0,-0.0625 -0.004,-0.10603 0.0143,0.0426 0,-0.0625 -0.0143,-0.10512 -0.006,0.0406 -0.0312,-0.0625 -0.0249,-0.10312 0.0353,0.006 0,-0.0937 -0.0353,-0.10005 0.014,0.0335 -0.0312,-0.0625 -0.0453,-0.096 0.0235,0.0284 -0.0312,-0.0625 -0.0548,-0.0909 0.001,0.0223 -0.0625,-0.0625 -0.0637,-0.0848 0.0408,0.0467 -0.0312,-0.0312 -0.072,-0.0779 0.0171,0.008 -0.0625,-0.0625 l -3.84375,-3.40625 c -0.0795,-0.0699 0.0549,0.0302 -0.0312,-0.0312 -0.0862,-0.0615 0.0294,0.0212 -0.0625,-0.0312 -0.0919,-0.0524 0.0343,0.0116 -0.0625,-0.0312 -0.0968,-0.0429 0.0381,0.002 -0.0625,-0.0312 -0.10063,-0.0328 0.01,-0.009 -0.0937,-0.0312 -0.10344,-0.0225 0.0427,0.0118 -0.0625,0 -0.10518,-0.0118 0.0433,0.001 -0.0625,0 -0.10584,-0.001 0.0429,-0.01 -0.0625,0 a 1.2139564,1.2139564 0 0 1 -0.0312,0 c -0.0931,0.007 0.0296,-0.0152 -0.0625,0 -0.0921,0.0152 0.0279,-0.0234 -0.0625,0 z"
       transform="matrix(3.1367467,0,0,3.10595,-215.34425,-2118.8915)" />
  </g>
  <g
     inkscape:label="Layer 1"
     inkscape:groupmode="layer"
     id="layer1"
     transform="translate(0,-552.36218)">
    <g
       id="g5467"
       transform="matrix(3.1367467,0,0,3.10595,-231.41648,-2118.8108)">
      <path
         transform="matrix(0.98889742,0,0,0.92857142,105.50467,870.64141)"
         style="font-size:medium;font-style:normal;font-variant:normal;font-weight:normal;font-stretch:normal;text-indent:0;text-align:start;text-decoration:none;line-height:normal;letter-spacing:normal;word-spacing:normal;text-transform:none;direction:ltr;block-progression:tb;writing-mode:lr-tb;text-anchor:start;color:#000000;fill:#194081;fill-opacity:1;stroke:none;stroke-width:15.49999809;marker:none;visibility:visible;display:inline;overflow:visible;enable-background:accumulate;font-family:Bitstream Vera Sans;-inkscape-font-specification:Bitstream Vera Sans"
         d="M 96.15625,-2.90625 C 76.850027,11.789526 58.401235,28.935432 47.339255,51.816325 46.545008,52.972905 44.334536,52.914352 43.671114,51.920714 34.256078,37.681143 20.408815,24.082969 0.84375,10.125 L -13,30.1875 C 15.198478,50.294835 26.677636,65.870816 32.5,84.5 c 0.04309,0.141565 0.04309,0.295935 0,0.4375 -1.705422,5.659148 -6.702436,13.880171 -14.71875,22.40625 -9.0283568,9.60248 -20.8914278,19.40778 -32.21875,28.03125 L 0,154.96875 c 11.8438,-9.01327 24.603304,-19.39701 35.21875,-30.6875 5.517511,-5.61528 10.315078,-11.8988 14.613809,-18.60904 0.741765,-1.04478 2.608889,-1.12138 3.583108,-0.11028 2.623695,3.52912 5.474641,6.85035 8.365583,10.12561 10.595875,11.83585 23.342354,22.7826 35.1875,32.25 l 14.9375,-19.25 C 100.57774,119.63016 88.676026,109.32897 79.625,99.21875 71.431902,90.066858 66.278308,81.205784 64.625,74.9375 c -0.03708,-0.132016 -0.03708,-0.274234 0,-0.40625 C 70.48922,54.59677 82.09028,38.056087 110.46875,16.8125 L 96.15625,-2.90625 z"
         id="path4795-9"
         sodipodi:nodetypes="cccccccsccccccccscccc" />
      <path
         d="m 104.9375,830.84375 c -17.199483,11.21891 -26.674908,24.42801 -26.3125,38.375 0.362493,13.95028 10.438439,26.89588 28.3125,37.96875 L 111.15625,900 C 94.580294,889.72509 87.133192,878.90462 86.875,868.96875 c -0.258114,-9.93326 6.59958,-20.67508 22.46875,-31.03125 l -4.40625,-7.09375 z"
         id="path5376"
         style="font-size:medium;font-style:normal;font-variant:normal;font-weight:normal;font-stretch:normal;text-indent:0;text-align:start;text-decoration:none;line-height:normal;letter-spacing:normal;word-spacing:normal;text-transform:none;direction:ltr;block-progression:tb;writing-mode:lr-tb;text-anchor:start;color:#000000;fill:#194081;fill-opacity:1;stroke:none;stroke-width:5.4000001;marker:none;visibility:visible;display:inline;overflow:visible;enable-background:accumulate;font-family:Bitstream Vera Sans;-inkscape-font-specification:Bitstream Vera Sans"
         inkscape:original="M 105.03125 830.375 C 87.59254 841.66991 77.91266 855.03386 78.28125 869.21875 C 78.64984 883.40365 88.91942 896.511 107.03125 907.65625 L 111.625 899.90625 C 94.88937 889.60783 87.47426 878.80142 87.21875 868.96875 C 86.96325 859.13608 93.78357 848.41305 109.8125 838.03125 L 105.03125 830.375 z "
         inkscape:radius="-0.33790958"
         sodipodi:type="inkscape:offset"
         transform="matrix(0.98889742,0,0,0.92857142,108.79069,131.10933)" />
      <path
         d="m 105.1875,852.21875 c -5.12659,5.62123 -8.65053,10.55165 -8.90625,16.21875 -0.255774,5.66852 3.010711,11.05266 9.625,16.875 l 3.34375,-3.90625 c -6.0801,-5.3531 -8.03253,-9.19645 -7.875,-12.6875 0.15772,-3.49366 2.69884,-7.6324 7.5625,-12.96875 l -3.75,-3.53125 z"
         id="path5400"
         style="font-size:medium;font-style:normal;font-variant:normal;font-weight:normal;font-stretch:normal;text-indent:0;text-align:start;text-decoration:none;line-height:normal;letter-spacing:normal;word-spacing:normal;text-transform:none;direction:ltr;block-progression:tb;writing-mode:lr-tb;text-anchor:start;color:#000000;fill:#194081;fill-opacity:1;stroke:none;stroke-width:3.20000005;marker:none;visibility:visible;display:inline;overflow:visible;enable-background:accumulate;font-family:Bitstream Vera Sans;-inkscape-font-specification:Bitstream Vera Sans"
         inkscape:original="M 105.1875 852.09375 C 100.02447 857.74653 96.44569 862.71567 96.1875 868.4375 C 95.92932 874.15933 99.238035 879.58473 105.90625 885.4375 L 109.375 881.40625 C 103.24713 876.02776 101.31212 872.18996 101.46875 868.71875 C 101.62546 865.24754 104.16308 861.11416 109.0625 855.75 L 105.1875 852.09375 z "
         inkscape:radius="-0.082746126"
         sodipodi:type="inkscape:offset"
         transform="matrix(0.98889742,0,0,0.92857142,110.70349,131.10933)" />
    </g>
    <path
       sodipodi:type="inkscape:offset"
       inkscape:radius="2.2462652"
       inkscape:original="M 209.375 902.15625 C 192.1299 912.64438 182.573 925.0783 182.9375 938.25 C 183.302 951.4216 193.46425 963.5884 211.375 973.9375 L 215.9375 966.71875 C 199.38767 957.15595 192.03392 947.1302 191.78125 938 C 191.52859 928.8697 198.27402 918.92149 214.125 909.28125 L 209.375 902.15625 z "
       style="font-size:medium;font-style:normal;font-variant:normal;font-weight:normal;font-stretch:normal;text-indent:0;text-align:start;text-decoration:none;line-height:normal;letter-spacing:normal;word-spacing:normal;text-transform:none;direction:ltr;block-progression:tb;writing-mode:lr-tb;text-anchor:start;color:#000000;fill:#241d55;fill-opacity:1;stroke:none;stroke-width:5.4000001;marker:none;visibility:visible;display:inline;overflow:visible;enable-background:accumulate;font-family:Bitstream Vera Sans;-inkscape-font-specification:Bitstream Vera Sans"
       id="path3858-5"
       d="m 209.34375,899.90625 a 2.2464898,2.2464898 0 0 0 -1.125,0.34375 c -17.60373,10.70624 -27.92686,23.76643 -27.53125,38.0625 0.39538,14.28741 11.31011,27.01599 29.5625,37.5625 a 2.2464898,2.2464898 0 0 0 3.03125,-0.75 l 4.5625,-7.21875 a 2.2464898,2.2464898 0 0 0 -0.78125,-3.125 c -16.21054,-9.36675 -22.81066,-18.87285 -23.03125,-26.84375 -0.22083,-7.98011 5.74347,-17.31925 21.25,-26.75 A 2.2464898,2.2464898 0 0 0 216,908.03125 l -4.75,-7.125 a 2.2464898,2.2464898 0 0 0 -1.90625,-1 z"
       transform="matrix(-3.1367467,0,0,3.10595,713.51566,-2089.062)" />
    <path
       sodipodi:type="inkscape:offset"
       inkscape:radius="1.9133712"
       inkscape:original="M 209.65625 922.3125 C 204.55054 927.5615 201.03657 932.1869 200.78125 937.5 C 200.52594 942.8131 203.78081 947.84645 210.375 953.28125 L 213.8125 949.53125 C 207.75266 944.53685 205.84511 940.9733 206 937.75 C 206.15497 934.5267 208.65498 930.69975 213.5 925.71875 L 209.65625 922.3125 z "
       style="font-size:medium;font-style:normal;font-variant:normal;font-weight:normal;font-stretch:normal;text-indent:0;text-align:start;text-decoration:none;line-height:normal;letter-spacing:normal;word-spacing:normal;text-transform:none;direction:ltr;block-progression:tb;writing-mode:lr-tb;text-anchor:start;color:#000000;fill:#241d55;fill-opacity:1;stroke:none;stroke-width:3.20000005;marker:none;visibility:visible;display:inline;overflow:visible;enable-background:accumulate;font-family:Bitstream Vera Sans;-inkscape-font-specification:Bitstream Vera Sans"
       id="path3881-7"
       d="m 209.5,920.40625 a 1.9135625,1.9135625 0 0 0 -1.21875,0.5625 c -5.19148,5.33718 -9.11308,10.33685 -9.40625,16.4375 -0.29551,6.14971 3.4781,11.73673 10.28125,17.34375 a 1.9135625,1.9135625 0 0 0 2.625,-0.1875 l 3.4375,-3.75 a 1.9135625,1.9135625 0 0 0 -0.1875,-2.75 c -5.86721,-4.83564 -7.2405,-7.81526 -7.125,-10.21875 0.11106,-2.30993 2.23589,-5.91556 6.96875,-10.78125 a 1.9135625,1.9135625 0 0 0 -0.0937,-2.78125 L 210.9375,920.875 A 1.9135625,1.9135625 0 0 0 209.5,920.40625 z"
       transform="matrix(-3.1367467,0,0,3.10595,707.51566,-2089.062)" />
    <path
       sodipodi:type="inkscape:offset"
       inkscape:radius="-1.4076594"
       inkscape:original="M 209.34375 899.90625 A 2.2464898 2.2464898 0 0 0 208.21875 900.25 C 190.61502 910.95624 180.29189 924.01643 180.6875 938.3125 C 181.08288 952.59991 191.99761 965.32849 210.25 975.875 A 2.2464898 2.2464898 0 0 0 213.28125 975.125 L 217.84375 967.90625 A 2.2464898 2.2464898 0 0 0 217.0625 964.78125 C 200.85196 955.4145 194.25184 945.9084 194.03125 937.9375 C 193.81042 929.95739 199.77472 920.61825 215.28125 911.1875 A 2.2464898 2.2464898 0 0 0 216 908.03125 L 211.25 900.90625 A 2.2464898 2.2464898 0 0 0 209.34375 899.90625 z "
       style="font-size:medium;font-style:normal;font-variant:normal;font-weight:normal;font-stretch:normal;text-indent:0;text-align:start;text-decoration:none;line-height:normal;letter-spacing:normal;word-spacing:normal;text-transform:none;direction:ltr;block-progression:tb;writing-mode:lr-tb;text-anchor:start;color:#000000;fill:#e9f4fe;fill-opacity:1;stroke:none;stroke-width:5.4000001;marker:none;visibility:visible;display:inline;overflow:visible;enable-background:accumulate;font-family:Bitstream Vera Sans;-inkscape-font-specification:Bitstream Vera Sans"
       id="path3935-4"
       d="m 209.28125,901.3125 c -0.0796,0.0132 0.016,0.0128 -0.0625,0.0312 -0.0785,0.0184 0.0146,-0.0236 -0.0625,0 -0.0771,0.0236 0.0442,0.003 -0.0312,0.0312 -0.0754,0.0286 0.0109,-0.0335 -0.0625,0 -0.0734,0.0335 0.0397,-0.007 -0.0312,0.0312 -0.071,0.0383 0.006,-0.0117 -0.0625,0.0312 a 1.4078002,1.4078002 0 0 1 -0.0312,0 c -17.37824,10.5691 -27.21997,23.24824 -26.84375,36.84375 0.3762,13.59443 10.83694,25.95233 28.875,36.375 0.10119,0.0587 -0.0439,-0.0175 0.0625,0.0312 0.10636,0.0488 -0.048,-0.007 0.0625,0.0312 0.11054,0.0383 -0.02,0.004 0.0937,0.0312 0.11371,0.0276 -0.0533,-0.0165 0.0625,0 0.11583,0.0165 -0.0231,0.0259 0.0937,0.0312 0.11688,0.005 -0.0543,0.006 0.0625,0 0.11685,-0.006 -0.022,-0.0142 0.0937,-0.0312 0.11575,-0.0171 -0.0198,0.0281 0.0937,0 0.11357,-0.0281 -0.0479,0.008 0.0625,-0.0312 0.11036,-0.0389 -0.0436,0.018 0.0625,-0.0312 0.10612,-0.0493 -0.007,0.028 0.0937,-0.0312 0.1009,-0.0592 -0.0323,0.0374 0.0625,-0.0312 0.0948,-0.0686 -0.0252,0.0149 0.0625,-0.0625 0.0877,-0.0774 -0.0174,0.023 0.0625,-0.0625 0.0799,-0.0855 -0.0401,0.0302 0.0312,-0.0625 0.0713,-0.0927 3.7e-4,0.0366 0.0625,-0.0625 l 4.5625,-7.21875 c 0.0641,-0.10348 -0.0222,0.0469 0.0312,-0.0625 0.0534,-0.10936 -0.011,0.0204 0.0312,-0.0937 0.0423,-0.11414 5.9e-4,0.0553 0.0312,-0.0625 0.0307,-0.11779 -0.0188,0.0265 0,-0.0937 0.0188,-0.12026 0.0246,0.059 0.0312,-0.0625 0.007,-0.12153 0.005,0.0278 0,-0.0937 -0.005,-0.12159 -0.0137,0.0267 -0.0312,-0.0937 -0.0176,-0.12043 0.0295,0.0556 0,-0.0625 -0.0295,-0.11808 0.01,0.0208 -0.0312,-0.0937 -0.0411,-0.11455 0.0211,0.0474 -0.0312,-0.0625 -0.0524,-0.10987 0.0318,0.0104 -0.0312,-0.0937 -0.0631,-0.1041 0.0106,0.0348 -0.0625,-0.0625 -0.0731,-0.0973 0.0512,0.027 -0.0312,-0.0625 -0.0825,-0.0895 0.0285,0.0183 -0.0625,-0.0625 -0.091,-0.0808 0.0361,0.009 -0.0625,-0.0625 -0.0986,-0.0714 0.0115,0.0299 -0.0937,-0.0312 C 199.9193,956.50965 192.86621,946.68487 192.625,937.96875 192.38394,929.2577 198.84038,919.56187 214.5625,910 a 1.4078002,1.4078002 0 0 1 0,-0.0312 c 0.10491,-0.0632 -0.0355,0.0422 0.0625,-0.0312 0.098,-0.0734 -0.0277,0.0204 0.0625,-0.0625 0.0902,-0.0829 -0.0189,0.029 0.0625,-0.0625 0.0814,-0.0915 -0.009,0.0367 0.0625,-0.0625 0.0718,-0.0992 -0.0302,0.0435 0.0312,-0.0625 0.0615,-0.10595 -0.0193,0.0178 0.0312,-0.0937 0.0505,-0.11159 -0.008,0.0536 0.0312,-0.0625 0.0391,-0.1161 0.004,0.0257 0.0312,-0.0937 0.0272,-0.11943 0.0162,0.0591 0.0312,-0.0625 0.0151,-0.12156 -0.003,0.0287 0,-0.0937 0.003,-0.12246 0.01,0.0284 0,-0.0937 -0.01,-0.12212 -0.01,0.058 -0.0312,-0.0625 -0.0217,-0.12054 0.0337,0.024 0,-0.0937 -0.0337,-0.11775 0.0141,0.02 -0.0312,-0.0937 -0.0454,-0.11377 0.0253,0.0461 -0.0312,-0.0625 -0.0424,-0.0815 -0.0231,-0.0531 -0.0312,-0.0625 l -4.75,-7.125 c -0.0422,-0.0633 0.0148,0.0293 -0.0312,-0.0312 -0.0461,-0.0605 -0.0127,-0.005 -0.0625,-0.0625 -0.0498,-0.0575 0.022,0.0231 -0.0312,-0.0312 -0.0532,-0.0543 0.0253,0.0196 -0.0312,-0.0312 -0.0565,-0.0509 0.0283,0.016 -0.0312,-0.0312 -0.0596,-0.0473 0.0312,0.0122 -0.0312,-0.0312 -0.0624,-0.0435 0.003,0.008 -0.0625,-0.0312 -0.065,-0.0395 0.0361,0.004 -0.0312,-0.0312 -0.0674,-0.0353 0.007,-1.8e-4 -0.0625,-0.0312 -0.0694,-0.0311 0.04,0.0267 -0.0312,0 -0.0712,-0.0267 0.0103,-0.009 -0.0625,-0.0312 -0.0728,-0.0222 0.0115,0.0176 -0.0625,0 -0.074,-0.0176 0.0437,-0.0183 -0.0312,-0.0312 -0.075,-0.0129 0.0131,0.008 -0.0625,0 -0.0756,-0.008 0.0135,0.003 -0.0625,0 -0.076,-0.003 0.0448,-0.001 -0.0312,0 -0.0806,0.003 0.049,-0.008 -0.0312,0 -0.0803,0.008 0.0171,-0.0132 -0.0625,0 z"
       transform="matrix(-3.1367467,0,0,3.10595,713.51892,-2088.7531)" />
    <path
       sodipodi:type="inkscape:offset"
       inkscape:radius="-1.213835"
       inkscape:original="M 209.5 920.40625 A 1.9135625 1.9135625 0 0 0 208.28125 920.96875 C 203.08977 926.30593 199.16817 931.3056 198.875 937.40625 C 198.57949 943.55596 202.3531 949.14298 209.15625 954.75 A 1.9135625 1.9135625 0 0 0 211.78125 954.5625 L 215.21875 950.8125 A 1.9135625 1.9135625 0 0 0 215.03125 948.0625 C 209.16404 943.22686 207.79075 940.24724 207.90625 937.84375 C 208.01731 935.53382 210.14214 931.92819 214.875 927.0625 A 1.9135625 1.9135625 0 0 0 214.78125 924.28125 L 210.9375 920.875 A 1.9135625 1.9135625 0 0 0 209.5 920.40625 z "
       style="font-size:medium;font-style:normal;font-variant:normal;font-weight:normal;font-stretch:normal;text-indent:0;text-align:start;text-decoration:none;line-height:normal;letter-spacing:normal;word-spacing:normal;text-transform:none;direction:ltr;block-progression:tb;writing-mode:lr-tb;text-anchor:start;color:#000000;fill:#e9f4fe;fill-opacity:1;stroke:none;stroke-width:3.20000005;marker:none;visibility:visible;display:inline;overflow:visible;enable-background:accumulate;font-family:Bitstream Vera Sans;-inkscape-font-specification:Bitstream Vera Sans"
       id="path3963-8"
       d="m 209.46875,921.625 c -0.0904,0.0234 0.0255,-1.4e-4 -0.0625,0.0312 -0.088,0.0314 0.0223,-0.008 -0.0625,0.0312 -0.0848,0.0391 0.0185,-0.0153 -0.0625,0.0312 -0.081,0.0466 0.0452,-0.0224 -0.0312,0.0312 -0.0765,0.0536 0.009,-0.029 -0.0625,0.0312 -0.0714,0.0602 0.0344,-0.0351 -0.0312,0.0312 -5.14033,5.2846 -8.79272,10.04223 -9.0625,15.65625 -0.27004,5.61966 3.17599,10.84831 9.84375,16.34375 0.0764,0.0627 -0.0507,-0.0239 0.0312,0.0312 0.082,0.0552 -0.0243,-0.0159 0.0625,0.0312 0.0868,0.0471 -0.0284,-0.007 0.0625,0.0312 0.0909,0.0387 -0.0317,0.001 0.0625,0.0312 0.0942,0.0299 -0.0341,0.0104 0.0625,0.0312 0.0966,0.0209 -0.0356,-0.0117 0.0625,0 0.0981,0.0117 -0.0363,-0.002 0.0625,0 0.0988,0.002 -0.036,0.007 0.0625,0 0.0985,-0.007 -0.004,0.0163 0.0937,0 0.0974,-0.0163 -0.033,-0.006 0.0625,-0.0312 0.0955,-0.0255 -0.0301,0.0344 0.0625,0 0.0926,-0.0344 -0.0265,0.0118 0.0625,-0.0312 0.089,-0.043 -0.0532,0.02 0.0312,-0.0312 0.0845,-0.0512 -0.0168,0.0277 0.0625,-0.0312 0.0793,-0.059 -0.0108,0.004 0.0625,-0.0625 0.0733,-0.0662 -0.0355,0.0416 0.0312,-0.0312 l 3.4375,-3.75 c 0.0703,-0.0777 3e-4,0.0218 0.0625,-0.0625 0.0622,-0.0843 -0.0222,0.0276 0.0312,-0.0625 0.0534,-0.0901 -0.0129,0.0326 0.0312,-0.0625 0.0441,-0.0951 -0.003,0.0365 0.0312,-0.0625 0.0343,-0.099 -0.0242,0.0394 0,-0.0625 0.0242,-0.10194 0.0174,0.0414 0.0312,-0.0625 0.0139,-0.10386 -0.003,0.0422 0,-0.0625 0.003,-0.10473 0.007,0.0108 0,-0.0937 -0.007,-0.10454 0.0176,0.0408 0,-0.0625 -0.0176,-0.1033 -0.003,0.0385 -0.0312,-0.0625 -0.0279,-0.10101 0.007,0.0352 -0.0312,-0.0625 -0.0378,-0.0977 0.0475,0.0309 0,-0.0625 -0.0475,-0.0934 -0.006,0.0257 -0.0625,-0.0625 -0.0566,-0.0882 0.0339,0.0196 -0.0312,-0.0625 -0.0652,-0.0821 0.0418,0.0126 -0.0312,-0.0625 -0.0731,-0.0751 0.0177,0.0361 -0.0625,-0.0312 -2.99216,-2.46608 -4.86533,-4.50175 -6.03125,-6.3125 -1.16592,-1.81075 -1.60123,-3.4501 -1.53125,-4.90625 0.14382,-2.99121 2.49727,-6.61213 7.3125,-11.5625 0.0746,-0.0754 -0.004,0.0201 0.0625,-0.0625 0.0666,-0.0826 -0.0266,0.0264 0.0312,-0.0625 0.0579,-0.0889 -0.0173,0.0318 0.0312,-0.0625 0.0485,-0.0943 -0.007,0.0363 0.0312,-0.0625 0.0387,-0.0988 0.003,0.0397 0.0312,-0.0625 0.0285,-0.1022 0.0133,0.0421 0.0312,-0.0625 0.0179,-0.10456 -0.007,0.0121 0,-0.0937 0.007,-0.10584 0.004,0.0435 0,-0.0625 -0.004,-0.10603 0.0143,0.0426 0,-0.0625 -0.0143,-0.10512 -0.006,0.0406 -0.0312,-0.0625 -0.0249,-0.10312 0.0353,0.006 0,-0.0937 -0.0353,-0.10005 0.014,0.0335 -0.0312,-0.0625 -0.0453,-0.096 0.0235,0.0284 -0.0312,-0.0625 -0.0548,-0.0909 0.001,0.0223 -0.0625,-0.0625 -0.0637,-0.0848 0.0408,0.0467 -0.0312,-0.0312 -0.072,-0.0779 0.0171,0.008 -0.0625,-0.0625 l -3.84375,-3.40625 c -0.0795,-0.0699 0.0549,0.0302 -0.0312,-0.0312 -0.0862,-0.0615 0.0294,0.0212 -0.0625,-0.0312 -0.0919,-0.0524 0.0343,0.0116 -0.0625,-0.0312 -0.0968,-0.0429 0.0381,0.002 -0.0625,-0.0312 -0.10063,-0.0328 0.01,-0.009 -0.0937,-0.0312 -0.10344,-0.0225 0.0427,0.0118 -0.0625,0 -0.10518,-0.0118 0.0433,0.001 -0.0625,0 -0.10584,-0.001 0.0429,-0.01 -0.0625,0 a 1.2139564,1.2139564 0 0 1 -0.0312,0 c -0.0931,0.007 0.0296,-0.0152 -0.0625,0 -0.0921,0.0152 0.0279,-0.0234 -0.0625,0 z"
       transform="matrix(-3.1367467,0,0,3.10595,707.4434,-2089.1427)" />
    <path
       sodipodi:type="inkscape:offset"
       inkscape:radius="-0.10098393"
       inkscape:original="M 105.03125 830.375 C 87.59254 841.66991 77.91266 855.03386 78.28125 869.21875 C 78.64984 883.40365 88.91942 896.511 107.03125 907.65625 L 111.625 899.90625 C 94.88937 889.60783 87.47426 878.80142 87.21875 868.96875 C 86.96325 859.13608 93.78357 848.41305 109.8125 838.03125 L 105.03125 830.375 z "
       style="font-size:medium;font-style:normal;font-variant:normal;font-weight:normal;font-stretch:normal;text-indent:0;text-align:start;text-decoration:none;line-height:normal;letter-spacing:normal;word-spacing:normal;text-transform:none;direction:ltr;block-progression:tb;writing-mode:lr-tb;text-anchor:start;color:#000000;fill:#194081;fill-opacity:1;stroke:none;stroke-width:5.4000001;marker:none;visibility:visible;display:inline;overflow:visible;enable-background:accumulate;font-family:Bitstream Vera Sans;-inkscape-font-specification:Bitstream Vera Sans"
       id="path5376-6"
       d="M 105,830.53125 C 87.638046,841.80245 78.008321,855.10739 78.375,869.21875 78.741707,883.33118 88.964455,896.37737 107,907.5 l 4.46875,-7.5625 C 94.78673,889.64767 87.381276,878.83088 87.125,868.96875 86.868753,859.10735 93.680647,848.37253 109.65625,838 L 105,830.53125 z"
       transform="matrix(-3.1019207,0,0,2.8840964,382.26635,-1681.843)" />
    <path
       sodipodi:type="inkscape:offset"
       inkscape:radius="-0.099750273"
       inkscape:original="M 105.1875 852.09375 C 100.02447 857.74653 96.44569 862.71567 96.1875 868.4375 C 95.92932 874.15933 99.238035 879.58473 105.90625 885.4375 L 109.375 881.40625 C 103.24713 876.02776 101.31212 872.18996 101.46875 868.71875 C 101.62546 865.24754 104.16308 861.11416 109.0625 855.75 L 105.1875 852.09375 z "
       style="font-size:medium;font-style:normal;font-variant:normal;font-weight:normal;font-stretch:normal;text-indent:0;text-align:start;text-decoration:none;line-height:normal;letter-spacing:normal;word-spacing:normal;text-transform:none;direction:ltr;block-progression:tb;writing-mode:lr-tb;text-anchor:start;color:#000000;fill:#194081;fill-opacity:1;stroke:none;stroke-width:3.20000005;marker:none;visibility:visible;display:inline;overflow:visible;enable-background:accumulate;font-family:Bitstream Vera Sans;-inkscape-font-specification:Bitstream Vera Sans"
       id="path5400-5"
       d="m 105.1875,852.21875 c -5.12586,5.62043 -8.650827,10.55825 -8.90625,16.21875 -0.255439,5.66109 3.013551,11.05478 9.625,16.875 l 3.34375,-3.90625 c -6.08226,-5.35487 -8.03284,-9.1895 -7.875,-12.6875 0.15807,-3.50125 2.69794,-7.63141 7.5625,-12.96875 l -3.75,-3.53125 z"
       transform="matrix(-3.1019207,0,0,2.8840964,376.26635,-1681.843)" />
  </g>
</svg>
