<?xml version="1.0" encoding="UTF-8" standalone="no"?>
<!-- Created with Inkscape (http://www.inkscape.org/) -->

<svg xmlns:dc="http://purl.org/dc/elements/1.1/" xmlns:cc="http://creativecommons.org/ns#" xmlns:rdf="http://www.w3.org/1999/02/22-rdf-syntax-ns#" xmlns:svg="http://www.w3.org/2000/svg" xmlns="http://www.w3.org/2000/svg" xmlns:xlink="http://www.w3.org/1999/xlink" version="1.1" width="48" height="48" id="svg7510">
   <defs id="defs7512">
      <radialGradient cx="254.5" cy="289.5" r="157.5" fx="254.5" fy="289.5" id="radialGradient7018" xlink:href="#linearGradient8757" gradientUnits="userSpaceOnUse" gradientTransform="matrix(1.0059031,7.5993956e-8,-7.5993953e-8,1.0059031,-1.5023177,-1.7089678)" />
      <linearGradient id="linearGradient8757">
         <stop id="stop8761" style="stop-color:white;stop-opacity:0" offset="0" />
         <stop id="stop8767" style="stop-color:white;stop-opacity:0" offset="0.89999998" />
         <stop id="stop8759" style="stop-color:white;stop-opacity:1" offset="1" />
      </linearGradient>
      <radialGradient cx="-4.0287771" cy="93.467628" r="35.338131" fx="-4.0287771" fy="93.467628" id="radialGradient7020" xlink:href="#linearGradient3811" gradientUnits="userSpaceOnUse" gradientTransform="matrix(1,0,0,0.43648207,0,52.670685)" />
      <linearGradient id="linearGradient3811">
         <stop id="stop3813" style="stop-color:black;stop-opacity:1" offset="0" />
         <stop id="stop3815" style="stop-color:black;stop-opacity:0" offset="1" />
      </linearGradient>
      <radialGradient cx="4.9929786" cy="43.5" r="2.5" fx="4.9929786" fy="43.5" id="radialGradient7022" xlink:href="#linearGradient3688-166-749-5" gradientUnits="userSpaceOnUse" gradientTransform="matrix(2.003784,0,0,1.4,27.98813,-17.4)" />
      <linearGradient id="linearGradient3688-166-749-5">
         <stop id="stop2883-0" style="stop-color:#181818;stop-opacity:1" offset="0" />
         <stop id="stop2885-5" style="stop-color:#181818;stop-opacity:0" offset="1" />
      </linearGradient>
      <radialGradient cx="4.9929786" cy="43.5" r="2.5" fx="4.9929786" fy="43.5" id="radialGradient7024" xlink:href="#linearGradient3688-464-309-8" gradientUnits="userSpaceOnUse" gradientTransform="matrix(2.003784,0,0,1.4,-20.01187,-104.4)" />
      <linearGradient id="linearGradient3688-464-309-8">
         <stop id="stop2889-9" style="stop-color:#181818;stop-opacity:1" offset="0" />
         <stop id="stop2891-4" style="stop-color:#181818;stop-opacity:0" offset="1" />
      </linearGradient>
      <linearGradient x1="25.058096" y1="47.027729" x2="25.058096" y2="39.999443" id="linearGradient7026" xlink:href="#linearGradient3702-501-757-0" gradientUnits="userSpaceOnUse" />
      <linearGradient id="linearGradient3702-501-757-0">
         <stop id="stop2895-0" style="stop-color:#181818;stop-opacity:0" offset="0" />
         <stop id="stop2897-2" style="stop-color:#181818;stop-opacity:1" offset="0.5" />
         <stop id="stop2899-6" style="stop-color:#181818;stop-opacity:0" offset="1" />
      </linearGradient>
      <radialGradient cx="7.4956832" cy="8.4497671" r="19.99999" fx="7.4956832" fy="8.4497671" id="radialGradient7028" xlink:href="#linearGradient8655" gradientUnits="userSpaceOnUse" gradientTransform="matrix(2.0282874e-7,24.397639,-25.809792,-4.4949761e-7,943.54575,458.5335)" />
      <linearGradient id="linearGradient8655">
         <stop id="stop8657" style="stop-color:#ac57ff;stop-opacity:1" offset="0" />
         <stop id="stop8659" style="stop-color:#f0431a;stop-opacity:1" offset="1" />
      </linearGradient>
      <linearGradient x1="13.209493" y1="4.376338" x2="13.209493" y2="43.84684" id="linearGradient7030" xlink:href="#linearGradient3895-9-0-3-2-4" gradientUnits="userSpaceOnUse" gradientTransform="matrix(10.43977,0,0,10.43977,474.90338,588.34996)" />
      <linearGradient id="linearGradient3895-9-0-3-2-4">
         <stop id="stop3897-0-5-7-0-3" style="stop-color:#911986;stop-opacity:1" offset="0" />
         <stop id="stop3899-8-7-06-7-9" style="stop-color:#ad1141;stop-opacity:1" offset="1" />
      </linearGradient>
      <radialGradient cx="254.5" cy="289.5" r="159" fx="254.5" fy="289.5" id="radialGradient7032" xlink:href="#linearGradient8265-821-176-38-919-66-249-7-7" gradientUnits="userSpaceOnUse" gradientTransform="matrix(0.83846914,0,0,0.83846914,41.109603,46.763183)" />
      <linearGradient id="linearGradient8265-821-176-38-919-66-249-7-7">
         <stop id="stop2687-1-9" style="stop-color:white;stop-opacity:1" offset="0" />
         <stop id="stop2689-5-4" style="stop-color:white;stop-opacity:0" offset="1" />
      </linearGradient>
      <radialGradient cx="7.4956832" cy="8.4497671" r="19.99999" fx="7.4956832" fy="8.4497671" id="radialGradient7034" xlink:href="#linearGradient8661" gradientUnits="userSpaceOnUse" gradientTransform="matrix(-0.20300624,9.1943889,-16.918507,-0.37355118,869.04843,-1104.8444)" />
      <linearGradient id="linearGradient8661">
         <stop id="stop8663" style="stop-color:#f90062;stop-opacity:1" offset="0" />
         <stop id="stop8665" style="stop-color:#ff418c;stop-opacity:0" offset="1" />
      </linearGradient>
      <linearGradient x1="23.99999" y1="4.999989" x2="23.99999" y2="43" id="linearGradient7036" xlink:href="#linearGradient3924" gradientUnits="userSpaceOnUse" gradientTransform="matrix(10.020654,0,0,10.020654,484.96214,598.40882)" />
      <linearGradient id="linearGradient3924">
         <stop id="stop3926" style="stop-color:white;stop-opacity:1" offset="0" />
         <stop id="stop3928" style="stop-color:white;stop-opacity:0.23529412" offset="0.06316455" />
         <stop id="stop3930" style="stop-color:white;stop-opacity:0.15686275" offset="0.95056331" />
         <stop id="stop3932" style="stop-color:white;stop-opacity:0.39215687" offset="1" />
      </linearGradient>
      <radialGradient cx="254.5" cy="289.5" r="157.5" fx="254.5" fy="289.5" id="radialGradient7038" xlink:href="#linearGradient8775" gradientUnits="userSpaceOnUse" gradientTransform="matrix(1.0537361,0,0,1.0417793,-13.67583,-12.095121)" />
      <linearGradient id="linearGradient8775">
         <stop id="stop8777" style="stop-color:white;stop-opacity:0" offset="0" />
         <stop id="stop7191" style="stop-color:white;stop-opacity:0" offset="0.51078659" />
         <stop id="stop8779" style="stop-color:white;stop-opacity:0" offset="0.85131109" />
         <stop id="stop8781" style="stop-color:white;stop-opacity:1" offset="1" />
      </linearGradient>
      <linearGradient x1="16.626165" y1="15.298182" x2="20.054544" y2="24.627615" id="linearGradient7040" xlink:href="#linearGradient8265-821-176-38-919-66-249-7-7" gradientUnits="userSpaceOnUse" gradientTransform="matrix(8.4233995,0,0,13.199314,522.34971,569.68814)" />
      <linearGradient id="linearGradient7479">
         <stop id="stop7481" style="stop-color:white;stop-opacity:1" offset="0" />
         <stop id="stop7483" style="stop-color:white;stop-opacity:0" offset="1" />
      </linearGradient>
      <linearGradient x1="16.626165" y1="15.298182" x2="20.054544" y2="24.627615" id="linearGradient7508" xlink:href="#linearGradient8265-821-176-38-919-66-249-7-7" gradientUnits="userSpaceOnUse" gradientTransform="matrix(8.4233995,0,0,13.199314,522.34971,569.68814)" />
   </defs>
   <metadata id="metadata7515">
      <rdf:RDF>
         <cc:Work rdf:about="">
            <dc:format>image/svg+xml</dc:format>
            <dc:type rdf:resource="http://purl.org/dc/dcmitype/StillImage" />
            <dc:title></dc:title>
         </cc:Work>
      </rdf:RDF>
   </metadata>
   <g transform="translate(0,-1004.3622)" id="layer1">
      <g transform="matrix(0.08954307,0,0,0.08954307,-40.959717,952.78321)" id="g6970">
         <path d="m 412,289.5 a 157.5,157.5 0 1 1 -315,0 157.5,157.5 0 1 1 315,0 z" transform="matrix(1.0880503,0,0,1.0880503,448.12819,528.87159)" id="path6902" style="opacity:0.4;fill:url(#radialGradient7018);fill-opacity:0.24705882;stroke:none" />
         <path d="m 31.309354,93.467628 a 35.338131,15.42446 0 1 1 -70.676262,0 35.338131,15.42446 0 1 1 70.676262,0 z" transform="matrix(6.1522981,0,0,1.5376572,750.24404,896.78225)" id="path6904" style="opacity:0.2;color:black;fill:url(#radialGradient7020);fill-opacity:1;fill-rule:nonzero;stroke:none;stroke-width:1;marker:none;visibility:visible;display:inline;overflow:visible;enable-background:accumulate" />
         <g transform="matrix(10.672885,0,0,2.1960699,469.30844,949.14696)" id="g6906" style="display:inline">
            <g transform="matrix(1.052632,0,0,1.285713,-1.263158,-13.42854)" id="g6908" style="opacity:0.4">
               <rect width="5" height="7" x="38" y="40" id="rect6910" style="fill:url(#radialGradient7022);fill-opacity:1;stroke:none" />
               <rect width="5" height="7" x="-10" y="-47" transform="scale(-1,-1)" id="rect6912" style="fill:url(#radialGradient7024);fill-opacity:1;stroke:none" />
               <rect width="28" height="7.0000005" x="10" y="40" id="rect6914" style="fill:url(#linearGradient7026);fill-opacity:1;stroke:none" />
            </g>
         </g>
         <rect width="407.15097" height="407.15097" rx="23.717533" ry="23.717533" x="521.88232" y="635.32892" id="rect6916" style="color:black;fill:url(#radialGradient7028);fill-opacity:1;fill-rule:nonzero;stroke:url(#linearGradient7030);stroke-width:22.8921833;stroke-linecap:round;stroke-linejoin:round;stroke-miterlimit:4;stroke-opacity:1;stroke-dasharray:none;stroke-dashoffset:0;marker:none;visibility:visible;display:inline;overflow:visible;enable-background:accumulate" />
         <path d="m 412,289.5 a 157.5,157.5 0 1 1 -315,0 157.5,157.5 0 1 1 315,0 z" transform="matrix(1.0880503,0,0,1.0880503,448.12819,528.87159)" id="path6918" style="opacity:0.06122448;fill:url(#radialGradient7032);fill-opacity:1;stroke:white;stroke-width:3;stroke-linecap:round;stroke-linejoin:round;stroke-miterlimit:4;stroke-opacity:0.71830989;stroke-dasharray:none;stroke-dashoffset:0" />
         <rect width="411.10391" height="411.10391" rx="23.717533" ry="23.717533" x="519.01642" y="-1045.2242" transform="scale(1,-1)" id="rect6920" style="opacity:0.46130952;color:black;fill:url(#radialGradient7034);fill-opacity:1;fill-rule:nonzero;stroke:none;stroke-width:1;marker:none;visibility:visible;display:inline;overflow:visible;enable-background:accumulate" />
         <rect width="370.76419" height="370.76419" rx="18.354664" ry="18.354664" x="540.07562" y="653.52228" id="rect6922" style="opacity:0.5;fill:none;stroke:url(#linearGradient7036);stroke-width:22.356287;stroke-linecap:round;stroke-linejoin:round;stroke-miterlimit:4;stroke-opacity:1;stroke-dasharray:none;stroke-dashoffset:0" />
         <path d="m 412,289.5 a 157.5,157.5 0 1 1 -315,0 157.5,157.5 0 1 1 315,0 z" transform="matrix(0.76424078,0,0,0.76424078,530.53772,622.61445)" id="path6924" style="opacity:0.4;fill:url(#radialGradient7038);fill-opacity:0.24705882;stroke:none" />
         <g transform="matrix(1.0725044,0,0,1.0725044,451.68585,6.5502304)" id="g6926" style="opacity:0.4;stroke:#ca13a8;stroke-opacity:0.24705882">
            <path d="m 137.33333,872.36218 c 0,0 -13.90617,0 16,0 53.33334,0 53.33334,-80 106.66667,-80 53.33333,0 53.33333,80 106.66667,80 28.10078,0 16,0 16,0" id="path6928" style="fill:none;stroke:#ca13a8;stroke-width:53.33333206;stroke-linecap:butt;stroke-linejoin:miter;stroke-opacity:0.24705882" />
            <path d="m 137.33333,712.36218 c 0,0 -13.90617,0 16,0 53.33334,0 53.33334,80 106.66667,80 40.03041,0 50.01519,-45.06848 75.05706,-67.55131 8.32192,-7.47146 18.30669,-12.44869 31.60961,-12.44869 28.10078,0 16,0 16,0" id="path6930" style="fill:none;stroke:#ca13a8;stroke-width:53.33333206;stroke-linecap:butt;stroke-linejoin:miter;stroke-opacity:0.24705882" />
         </g>
         <g transform="translate(470.537,69.999978)" id="g6932" style="stroke:#580e34;stroke-opacity:0.26760565">
            <path d="m 137.33333,872.36218 c 0,0 -13.90617,0 16,0 53.33334,0 53.33334,-80 106.66667,-80 53.33333,0 53.33333,80 106.66667,80 28.10078,0 16,0 16,0" id="path6934" style="fill:none;stroke:#580e34;stroke-width:53.33333206;stroke-linecap:round;stroke-linejoin:miter;stroke-opacity:0.26760565" />
            <path d="m 137.33333,712.36218 c 0,0 -13.90617,0 16,0 53.33334,0 53.33334,80 106.66667,80 40.03041,0 50.01519,-45.06848 75.05706,-67.55131 8.32192,-7.47146 18.30669,-12.44869 31.60961,-12.44869 28.10078,0 16,0 16,0" id="path6936" style="fill:none;stroke:#580e34;stroke-width:53.33333206;stroke-linecap:round;stroke-linejoin:miter;stroke-opacity:0.26760565" />
         </g>
         <g transform="translate(470.537,63.999978)" id="g6938">
            <path d="m 137.33333,872.36218 c 0,0 -13.90617,0 16,0 53.33334,0 53.33334,-80 106.66667,-80 53.33333,0 53.33333,80 106.66667,80 28.10078,0 16,0 16,0" id="path6940" style="fill:none;stroke:white;stroke-width:53.33300018;stroke-linecap:round;stroke-linejoin:miter;stroke-miterlimit:4;stroke-opacity:1;stroke-dasharray:none" />
            <path d="m 137.33333,712.36218 c 0,0 -13.90617,0 16,0 53.33334,0 53.33334,80 106.66667,80 40.03041,0 50.01519,-45.06848 75.05706,-67.55131 8.32192,-7.47146 18.30669,-12.44869 31.60961,-12.44869 28.10078,0 16,0 16,0" id="path6942" style="fill:none;stroke:white;stroke-width:53.33333206;stroke-linecap:round;stroke-linejoin:miter;stroke-opacity:1" />
         </g>
         <path d="m 548.7126,645.08538 c -6.93482,0 -17.80534,9.25576 -17.80534,18.25865 l 0.129,225.18997 c 11.16185,-0.24516 379.39527,-89.7403 387.86727,-94.04511 l 0,-131.14486 c 0,-6.88153 -8.11368,-18.25865 -14.11853,-18.25865 z" id="path6944" style="opacity:0.2142857;fill:url(#linearGradient7508);fill-opacity:1;fill-rule:evenodd;stroke:none" />
      </g>
   </g>
</svg>
