<?xml version="1.0" encoding="UTF-8" standalone="no"?>
<!-- Created with Inkscape (http://www.inkscape.org/) -->

<svg xmlns:dc="http://purl.org/dc/elements/1.1/" xmlns:cc="http://creativecommons.org/ns#" xmlns:rdf="http://www.w3.org/1999/02/22-rdf-syntax-ns#" xmlns:svg="http://www.w3.org/2000/svg" xmlns="http://www.w3.org/2000/svg" xmlns:xlink="http://www.w3.org/1999/xlink" version="1.1" width="256" height="256" id="svg7138">
   <defs id="defs7140">
      <radialGradient cx="254.5" cy="289.5" r="157.5" fx="254.5" fy="289.5" id="radialGradient7114" xlink:href="#linearGradient8757" gradientUnits="userSpaceOnUse" gradientTransform="matrix(1.0059031,7.5993956e-8,-7.5993953e-8,1.0059031,-1.5023177,-1.7089678)" />
      <linearGradient id="linearGradient8757">
         <stop id="stop8761" style="stop-color:white;stop-opacity:0" offset="0" />
         <stop id="stop8767" style="stop-color:white;stop-opacity:0" offset="0.89999998" />
         <stop id="stop8759" style="stop-color:white;stop-opacity:1" offset="1" />
      </linearGradient>
      <radialGradient cx="-4.0287771" cy="93.467628" r="35.338131" fx="-4.0287771" fy="93.467628" id="radialGradient7116" xlink:href="#linearGradient3811" gradientUnits="userSpaceOnUse" gradientTransform="matrix(1,0,0,0.43648207,0,52.670685)" />
      <linearGradient id="linearGradient3811">
         <stop id="stop3813" style="stop-color:black;stop-opacity:1" offset="0" />
         <stop id="stop3815" style="stop-color:black;stop-opacity:0" offset="1" />
      </linearGradient>
      <radialGradient cx="4.9929786" cy="43.5" r="2.5" fx="4.9929786" fy="43.5" id="radialGradient7118" xlink:href="#linearGradient3688-166-749-5" gradientUnits="userSpaceOnUse" gradientTransform="matrix(2.003784,0,0,1.4,27.98813,-17.4)" />
      <linearGradient id="linearGradient3688-166-749-5">
         <stop id="stop2883-0" style="stop-color:#181818;stop-opacity:1" offset="0" />
         <stop id="stop2885-5" style="stop-color:#181818;stop-opacity:0" offset="1" />
      </linearGradient>
      <radialGradient cx="4.9929786" cy="43.5" r="2.5" fx="4.9929786" fy="43.5" id="radialGradient7120" xlink:href="#linearGradient3688-464-309-8" gradientUnits="userSpaceOnUse" gradientTransform="matrix(2.003784,0,0,1.4,-20.01187,-104.4)" />
      <linearGradient id="linearGradient3688-464-309-8">
         <stop id="stop2889-9" style="stop-color:#181818;stop-opacity:1" offset="0" />
         <stop id="stop2891-4" style="stop-color:#181818;stop-opacity:0" offset="1" />
      </linearGradient>
      <linearGradient x1="25.058096" y1="47.027729" x2="25.058096" y2="39.999443" id="linearGradient7122" xlink:href="#linearGradient3702-501-757-0" gradientUnits="userSpaceOnUse" />
      <linearGradient id="linearGradient3702-501-757-0">
         <stop id="stop2895-0" style="stop-color:#181818;stop-opacity:0" offset="0" />
         <stop id="stop2897-2" style="stop-color:#181818;stop-opacity:1" offset="0.5" />
         <stop id="stop2899-6" style="stop-color:#181818;stop-opacity:0" offset="1" />
      </linearGradient>
      <radialGradient cx="7.4956832" cy="8.4497671" r="19.99999" fx="7.4956832" fy="8.4497671" id="radialGradient7124" xlink:href="#linearGradient8655" gradientUnits="userSpaceOnUse" gradientTransform="matrix(2.0282874e-7,24.397639,-25.809792,-4.4949761e-7,473.00875,418.53352)" />
      <linearGradient id="linearGradient8655">
         <stop id="stop8657" style="stop-color:#ac57ff;stop-opacity:1" offset="0" />
         <stop id="stop8659" style="stop-color:#f0431a;stop-opacity:1" offset="1" />
      </linearGradient>
      <linearGradient x1="13.209493" y1="4.376338" x2="13.209493" y2="43.84684" id="linearGradient7126" xlink:href="#linearGradient3895-9-0-3-2-4" gradientUnits="userSpaceOnUse" gradientTransform="matrix(10.43977,0,0,10.43977,4.3663877,548.34998)" />
      <linearGradient id="linearGradient3895-9-0-3-2-4">
         <stop id="stop3897-0-5-7-0-3" style="stop-color:#911986;stop-opacity:1" offset="0" />
         <stop id="stop3899-8-7-06-7-9" style="stop-color:#ad1141;stop-opacity:1" offset="1" />
      </linearGradient>
      <radialGradient cx="254.5" cy="289.5" r="159" fx="254.5" fy="289.5" id="radialGradient7128" xlink:href="#linearGradient8265-821-176-38-919-66-249-7-7" gradientUnits="userSpaceOnUse" gradientTransform="matrix(0.83846914,0,0,0.83846914,41.109603,46.763183)" />
      <linearGradient id="linearGradient8265-821-176-38-919-66-249-7-7">
         <stop id="stop2687-1-9" style="stop-color:white;stop-opacity:1" offset="0" />
         <stop id="stop2689-5-4" style="stop-color:white;stop-opacity:0" offset="1" />
      </linearGradient>
      <radialGradient cx="7.4956832" cy="8.4497671" r="19.99999" fx="7.4956832" fy="8.4497671" id="radialGradient7130" xlink:href="#linearGradient8661" gradientUnits="userSpaceOnUse" gradientTransform="matrix(-0.20300624,9.1943889,-16.918507,-0.37355118,398.51143,-1064.8444)" />
      <linearGradient id="linearGradient8661">
         <stop id="stop8663" style="stop-color:#f90062;stop-opacity:1" offset="0" />
         <stop id="stop8665" style="stop-color:#ff418c;stop-opacity:0" offset="1" />
      </linearGradient>
      <linearGradient x1="23.99999" y1="4.999989" x2="23.99999" y2="43" id="linearGradient7132" xlink:href="#linearGradient3924" gradientUnits="userSpaceOnUse" gradientTransform="matrix(10.79041,0,0,10.79041,-4.0489819,539.93471)" />
      <linearGradient id="linearGradient3924">
         <stop id="stop3926" style="stop-color:white;stop-opacity:1" offset="0" />
         <stop id="stop3928" style="stop-color:white;stop-opacity:0.23529412" offset="0.06316455" />
         <stop id="stop3930" style="stop-color:white;stop-opacity:0.15686275" offset="0.95056331" />
         <stop id="stop3932" style="stop-color:white;stop-opacity:0.39215687" offset="1" />
      </linearGradient>
      <radialGradient cx="254.5" cy="289.5" r="157.5" fx="254.5" fy="289.5" id="radialGradient7134" xlink:href="#linearGradient8775" gradientUnits="userSpaceOnUse" gradientTransform="matrix(1.0537361,0,0,1.0417793,-13.67583,-12.095121)" />
      <linearGradient id="linearGradient8775">
         <stop id="stop8777" style="stop-color:white;stop-opacity:0" offset="0" />
         <stop id="stop7191" style="stop-color:white;stop-opacity:0" offset="0.51078659" />
         <stop id="stop8779" style="stop-color:white;stop-opacity:0" offset="0.85131109" />
         <stop id="stop8781" style="stop-color:white;stop-opacity:1" offset="1" />
      </linearGradient>
      <linearGradient x1="16.626165" y1="15.298182" x2="20.054544" y2="24.627615" id="linearGradient7136" xlink:href="#linearGradient8265-821-176-38-919-66-249-7-7" gradientUnits="userSpaceOnUse" gradientTransform="matrix(8.7534315,0,0,13.716468,41.014987,521.96486)" />
      <linearGradient id="linearGradient7207">
         <stop id="stop7209" style="stop-color:white;stop-opacity:1" offset="0" />
         <stop id="stop7211" style="stop-color:white;stop-opacity:0" offset="1" />
      </linearGradient>
      <linearGradient x1="16.626165" y1="15.298182" x2="20.054544" y2="24.627615" id="linearGradient7236" xlink:href="#linearGradient8265-821-176-38-919-66-249-7-7" gradientUnits="userSpaceOnUse" gradientTransform="matrix(8.7534315,0,0,13.716468,41.014987,521.96486)" />
   </defs>
   <metadata id="metadata7143">
      <rdf:RDF>
         <cc:Work rdf:about="">
            <dc:format>image/svg+xml</dc:format>
            <dc:type rdf:resource="http://purl.org/dc/dcmitype/StillImage" />
            <dc:title></dc:title>
         </cc:Work>
      </rdf:RDF>
   </metadata>
   <g transform="translate(0,-796.36218)" id="layer1">
      <g transform="matrix(0.53491931,0,0,0.53491931,-8.3620596,491.72655)" id="g7068">
         <path d="m 412,289.5 a 157.5,157.5 0 1 1 -315,0 157.5,157.5 0 1 1 315,0 z" transform="matrix(1.0880503,0,0,1.0880503,-22.408805,488.87161)" id="path7070" style="opacity:0.4;fill:url(#radialGradient7114);fill-opacity:0.24705882;stroke:none" />
         <path d="m 31.309354,93.467628 a 35.338131,15.42446 0 1 1 -70.676262,0 35.338131,15.42446 0 1 1 70.676262,0 z" transform="matrix(6.1522981,0,0,1.5376572,279.70704,856.78227)" id="path7072" style="opacity:0.2;color:black;fill:url(#radialGradient7116);fill-opacity:1;fill-rule:nonzero;stroke:none;stroke-width:1;marker:none;visibility:visible;display:inline;overflow:visible;enable-background:accumulate" />
         <g transform="matrix(10.672885,0,0,2.1960699,-1.2285574,909.14698)" id="g7074" style="display:inline">
            <g transform="matrix(1.052632,0,0,1.285713,-1.263158,-13.42854)" id="g7076" style="opacity:0.4">
               <rect width="5" height="7" x="38" y="40" id="rect7078" style="fill:url(#radialGradient7118);fill-opacity:1;stroke:none" />
               <rect width="5" height="7" x="-10" y="-47" transform="scale(-1,-1)" id="rect7080" style="fill:url(#radialGradient7120);fill-opacity:1;stroke:none" />
               <rect width="28" height="7.0000005" x="10" y="40" id="rect7082" style="fill:url(#linearGradient7122);fill-opacity:1;stroke:none" />
            </g>
         </g>
         <rect width="407.15097" height="407.15097" rx="23.717533" ry="23.717533" x="51.345325" y="595.32892" id="rect7084" style="color:black;fill:url(#radialGradient7124);fill-opacity:1;fill-rule:nonzero;stroke:url(#linearGradient7126);stroke-width:3.95292234;stroke-linecap:round;stroke-linejoin:round;stroke-miterlimit:4;stroke-opacity:1;stroke-dasharray:none;stroke-dashoffset:0;marker:none;visibility:visible;display:inline;overflow:visible;enable-background:accumulate" />
         <path d="m 412,289.5 a 157.5,157.5 0 1 1 -315,0 157.5,157.5 0 1 1 315,0 z" transform="matrix(1.0880503,0,0,1.0880503,-22.408805,488.87161)" id="path7086" style="opacity:0.06122448;fill:url(#radialGradient7128);fill-opacity:1;stroke:white;stroke-width:3;stroke-linecap:round;stroke-linejoin:round;stroke-miterlimit:4;stroke-opacity:0.71830989;stroke-dasharray:none;stroke-dashoffset:0" />
         <rect width="411.10391" height="411.10391" rx="23.717533" ry="23.717533" x="48.479443" y="-1005.2243" transform="scale(1,-1)" id="rect7088" style="opacity:0.46130952;color:black;fill:url(#radialGradient7130);fill-opacity:1;fill-rule:nonzero;stroke:none;stroke-width:1;marker:none;visibility:visible;display:inline;overflow:visible;enable-background:accumulate" />
         <rect width="399.24515" height="399.24515" rx="19.764612" ry="19.764612" x="55.298176" y="599.2818" id="rect7090" style="opacity:0.5;fill:none;stroke:url(#linearGradient7132);stroke-width:3.95292187;stroke-linecap:round;stroke-linejoin:round;stroke-miterlimit:4;stroke-opacity:1;stroke-dasharray:none;stroke-dashoffset:0" />
         <path d="m 412,289.5 a 157.5,157.5 0 1 1 -315,0 157.5,157.5 0 1 1 315,0 z" transform="matrix(0.76424078,0,0,0.76424078,60.000719,582.61447)" id="path7092" style="opacity:0.4;fill:url(#radialGradient7134);fill-opacity:0.24705882;stroke:none" />
         <g transform="matrix(1.0725044,0,0,1.0725044,-18.851145,-33.449748)" id="g7094" style="opacity:0.4;stroke:#ca13a8;stroke-opacity:0.24705882">
            <path d="m 137.33333,872.36218 c 0,0 -13.90617,0 16,0 53.33334,0 53.33334,-80 106.66667,-80 53.33333,0 53.33333,80 106.66667,80 28.10078,0 16,0 16,0" id="path7096" style="fill:none;stroke:#ca13a8;stroke-width:53.33333206;stroke-linecap:butt;stroke-linejoin:miter;stroke-opacity:0.24705882" />
            <path d="m 137.33333,712.36218 c 0,0 -13.90617,0 16,0 53.33334,0 53.33334,80 106.66667,80 40.03041,0 50.01519,-45.06848 75.05706,-67.55131 8.32192,-7.47146 18.30669,-12.44869 31.60961,-12.44869 28.10078,0 16,0 16,0" id="path7098" style="fill:none;stroke:#ca13a8;stroke-width:53.33333206;stroke-linecap:butt;stroke-linejoin:miter;stroke-opacity:0.24705882" />
         </g>
         <g transform="translate(0,30)" id="g7100" style="stroke:#580e34;stroke-opacity:0.26760565">
            <path d="m 137.33333,872.36218 c 0,0 -13.90617,0 16,0 53.33334,0 53.33334,-80 106.66667,-80 53.33333,0 53.33333,80 106.66667,80 28.10078,0 16,0 16,0" id="path7102" style="fill:none;stroke:#580e34;stroke-width:53.33333206;stroke-linecap:round;stroke-linejoin:miter;stroke-opacity:0.26760565" />
            <path d="m 137.33333,712.36218 c 0,0 -13.90617,0 16,0 53.33334,0 53.33334,80 106.66667,80 40.03041,0 50.01519,-45.06848 75.05706,-67.55131 8.32192,-7.47146 18.30669,-12.44869 31.60961,-12.44869 28.10078,0 16,0 16,0" id="path7104" style="fill:none;stroke:#580e34;stroke-width:53.33333206;stroke-linecap:round;stroke-linejoin:miter;stroke-opacity:0.26760565" />
         </g>
         <g transform="translate(0,24)" id="g7106">
            <path d="m 137.33333,872.36218 c 0,0 -13.90617,0 16,0 53.33334,0 53.33334,-80 106.66667,-80 53.33333,0 53.33333,80 106.66667,80 28.10078,0 16,0 16,0" id="path7108" style="fill:none;stroke:white;stroke-width:53.33300018;stroke-linecap:round;stroke-linejoin:miter;stroke-miterlimit:4;stroke-opacity:1;stroke-dasharray:none" />
            <path d="m 137.33333,712.36218 c 0,0 -13.90617,0 16,0 53.33334,0 53.33334,80 106.66667,80 40.03041,0 50.01519,-45.06848 75.05706,-67.55131 8.32192,-7.47146 18.30669,-12.44869 31.60961,-12.44869 28.10078,0 16,0 16,0" id="path7110" style="fill:none;stroke:white;stroke-width:53.33333206;stroke-linecap:round;stroke-linejoin:miter;stroke-opacity:1" />
         </g>
         <path d="m 68.41078,600.3162 c -7.206528,0 -18.502954,9.6184 -18.502954,18.97403 l 0.134051,234.01299 C 61.64105,853.04846 444.30199,760.04687 453.10593,755.57339 l 0,-136.28316 c 0,-7.15116 -8.43158,-18.97403 -14.6717,-18.97403 z" id="path7112" style="opacity:0.2142857;fill:url(#linearGradient7236);fill-opacity:1;fill-rule:evenodd;stroke:none" />
      </g>
   </g>
</svg>
