<?xml version="1.0" encoding="UTF-8" standalone="no"?>
<!-- Created with Inkscape (http://www.inkscape.org/) -->

<svg
   xmlns:dc="http://purl.org/dc/elements/1.1/"
   xmlns:cc="http://creativecommons.org/ns#"
   xmlns:rdf="http://www.w3.org/1999/02/22-rdf-syntax-ns#"
   xmlns:svg="http://www.w3.org/2000/svg"
   xmlns="http://www.w3.org/2000/svg"
   xmlns:sodipodi="http://sodipodi.sourceforge.net/DTD/sodipodi-0.dtd"
   xmlns:inkscape="http://www.inkscape.org/namespaces/inkscape"
   width="574.48999"
   height="163.99001"
   id="svg2"
   version="1.1"
   inkscape:version="0.48.3.1 r9886"
   sodipodi:docname="xnoise_bruit.svg">
  <defs
     id="defs4">
    <inkscape:perspective
       sodipodi:type="inkscape:persp3d"
       inkscape:vp_x="0 : 526.18109 : 1"
       inkscape:vp_y="0 : 1000 : 0"
       inkscape:vp_z="744.09448 : 526.18109 : 1"
       inkscape:persp3d-origin="372.04724 : 350.78739 : 1"
       id="perspective10" />
    <inkscape:perspective
       id="perspective3602"
       inkscape:persp3d-origin="0.5 : 0.33333333 : 1"
       inkscape:vp_z="1 : 0.5 : 1"
       inkscape:vp_y="0 : 1000 : 0"
       inkscape:vp_x="0 : 0.5 : 1"
       sodipodi:type="inkscape:persp3d" />
    <inkscape:perspective
       id="perspective3624"
       inkscape:persp3d-origin="0.5 : 0.33333333 : 1"
       inkscape:vp_z="1 : 0.5 : 1"
       inkscape:vp_y="0 : 1000 : 0"
       inkscape:vp_x="0 : 0.5 : 1"
       sodipodi:type="inkscape:persp3d" />
    <inkscape:perspective
       id="perspective3657"
       inkscape:persp3d-origin="0.5 : 0.33333333 : 1"
       inkscape:vp_z="1 : 0.5 : 1"
       inkscape:vp_y="0 : 1000 : 0"
       inkscape:vp_x="0 : 0.5 : 1"
       sodipodi:type="inkscape:persp3d" />
    <inkscape:perspective
       id="perspective3679"
       inkscape:persp3d-origin="0.5 : 0.33333333 : 1"
       inkscape:vp_z="1 : 0.5 : 1"
       inkscape:vp_y="0 : 1000 : 0"
       inkscape:vp_x="0 : 0.5 : 1"
       sodipodi:type="inkscape:persp3d" />
    <inkscape:perspective
       id="perspective3711"
       inkscape:persp3d-origin="0.5 : 0.33333333 : 1"
       inkscape:vp_z="1 : 0.5 : 1"
       inkscape:vp_y="0 : 1000 : 0"
       inkscape:vp_x="0 : 0.5 : 1"
       sodipodi:type="inkscape:persp3d" />
    <inkscape:perspective
       id="perspective3733"
       inkscape:persp3d-origin="0.5 : 0.33333333 : 1"
       inkscape:vp_z="1 : 0.5 : 1"
       inkscape:vp_y="0 : 1000 : 0"
       inkscape:vp_x="0 : 0.5 : 1"
       sodipodi:type="inkscape:persp3d" />
    <inkscape:perspective
       id="perspective3784"
       inkscape:persp3d-origin="0.5 : 0.33333333 : 1"
       inkscape:vp_z="1 : 0.5 : 1"
       inkscape:vp_y="0 : 1000 : 0"
       inkscape:vp_x="0 : 0.5 : 1"
       sodipodi:type="inkscape:persp3d" />
    <inkscape:perspective
       id="perspective3936"
       inkscape:persp3d-origin="0.5 : 0.33333333 : 1"
       inkscape:vp_z="1 : 0.5 : 1"
       inkscape:vp_y="0 : 1000 : 0"
       inkscape:vp_x="0 : 0.5 : 1"
       sodipodi:type="inkscape:persp3d" />
    <inkscape:perspective
       id="perspective4300"
       inkscape:persp3d-origin="0.5 : 0.33333333 : 1"
       inkscape:vp_z="1 : 0.5 : 1"
       inkscape:vp_y="0 : 1000 : 0"
       inkscape:vp_x="0 : 0.5 : 1"
       sodipodi:type="inkscape:persp3d" />
  </defs>
  <sodipodi:namedview
     id="base"
     pagecolor="#000000"
     bordercolor="#666666"
     borderopacity="1.0"
     inkscape:pageopacity="0.83921569"
     inkscape:pageshadow="2"
     inkscape:zoom="0.9899495"
     inkscape:cx="269.29284"
     inkscape:cy="81.124071"
     inkscape:document-units="px"
     inkscape:current-layer="layer1"
     showgrid="false"
     inkscape:window-width="1313"
     inkscape:window-height="744"
     inkscape:window-x="53"
     inkscape:window-y="24"
     inkscape:window-maximized="1"
     inkscape:snap-global="false">
    <inkscape:grid
       type="xygrid"
       id="grid4318"
       empspacing="5"
       visible="true"
       enabled="true"
       snapvisiblegridlinesonly="true" />
  </sodipodi:namedview>
  <metadata
     id="metadata7">
    <rdf:RDF>
      <cc:Work
         rdf:about="">
        <dc:format>image/svg+xml</dc:format>
        <dc:type
           rdf:resource="http://purl.org/dc/dcmitype/StillImage" />
        <dc:title />
      </cc:Work>
    </rdf:RDF>
  </metadata>
  <g
     inkscape:label="Layer 1"
     inkscape:groupmode="layer"
     id="layer1"
     transform="translate(-44.351086,-826.28471)">
    <path
       inkscape:connector-curvature="0"
       style="font-size:84.45616913px;font-style:normal;font-weight:normal;fill:#ffffff;fill-opacity:1;stroke:none;font-family:Bitstream Vera Sans"
       sodipodi:nodetypes="ccccssscccscscc"
       id="path3758"
       d="m 301.54244,902.63378 0,43.42906 -13.52455,0 0,-43.04359 c -7e-5,-6.80983 -1.51911,-11.90654 -4.55718,-15.29012 -3.03818,-3.38347 -7.59536,-5.07522 -13.67154,-5.07529 -7.30133,7e-5 -13.05907,2.03446 -17.27319,6.10319 -4.2142,4.06886 -6.32128,9.61526 -6.32126,16.63925 l 0,40.66656 -13.59803,0 0.41788,-76.66643 c 0.0421,-7.71021 6.73107,10.38244 24.57311,6.19057 6.08167,-2.56519 6.55666,-3.6359 15.21511,-4.90732 9.35971,-1.37438 19.95464,3.4174 24.80591,8.55686 4.85111,5.09677 3.93366,13.46088 3.93374,23.39726" />
    <path
       inkscape:connector-curvature="0"
       style="font-size:84.45616913px;font-style:normal;font-weight:normal;fill:#ffffff;fill-opacity:1;stroke:none;font-family:Bitstream Vera Sans"
       sodipodi:nodetypes="ccscssscccsscscscc"
       id="path3760"
       d="m 360.5653,882.39686 c -7.25232,7e-5 -12.98555,2.48417 -17.19969,7.45234 -4.21418,4.92543 -6.32128,11.69248 -6.32126,20.30115 -2e-5,8.60875 2.08257,15.3972 6.24775,20.36541 4.21415,4.92539 9.97186,7.38809 17.2732,7.38807 7.20323,2e-5 12.91195,-2.48409 17.12618,-7.45232 4.2141,-4.9682 6.32119,-11.73525 6.32126,-20.30116 -7e-5,-8.52302 -2.10716,-15.26864 -6.32126,-20.23692 -4.21423,-5.01098 -9.92295,-7.5165 -17.12618,-7.51657 m 0,-10.02209 c 11.76042,8e-5 20.99727,0.34421 27.7106,7.02553 6.7132,6.68146 10.06982,18.92917 10.06991,30.75005 -9e-5,11.77812 -3.35671,21.02928 -10.06991,27.75348 -6.71333,6.6814 -15.95018,10.02209 -27.7106,10.0221 -11.80951,-10e-6 -25.20768,-0.94346 -31.92092,-7.62486 -6.66427,-6.7242 -5.85959,-18.3726 -5.85959,-30.15072 0,-11.82088 3.33213,-21.07204 9.9964,-27.75349 6.71324,-6.68132 15.9746,-10.02201 27.78411,-10.02209" />
    <path
       inkscape:connector-curvature="0"
       style="font-size:84.45616913px;font-style:normal;font-weight:normal;fill:#ffffff;fill-opacity:1;stroke:none;font-family:Bitstream Vera Sans"
       sodipodi:nodetypes="csccc"
       id="path3762"
       d="m 420.69071,874.10937 c 0,0 14.79666,-8.18186 15.19605,-2.96644 2.51656,32.86256 -1.67152,74.91991 -1.67152,74.91991 l -13.52453,0 0,-71.95347" />
    <path
       inkscape:connector-curvature="0"
       style="font-size:84.45616913px;font-style:normal;font-weight:normal;fill:#ffffff;fill-opacity:1;stroke:none;font-family:Bitstream Vera Sans"
       sodipodi:nodetypes="czsscsccccscscsscscsccccssssz"
       id="path3764"
       d="m 514.92145,876.22942 c 0,0 2.40281,11.32832 0,11.17849 -2.40281,-0.14986 -7.79137,-2.998 -11.90746,-3.85464 -4.11623,-0.85654 -8.37939,-1.28483 -12.78952,-1.28489 -6.71329,6e-5 -11.76049,0.89948 -15.1416,2.69825 -3.33217,1.79889 -4.99822,4.49715 -4.9982,8.09476 -2e-5,2.74114 1.20053,4.90403 3.60164,6.48867 2.40108,1.54191 7.22776,3.01952 14.48008,4.43286 l 4.63069,0.8994 c 9.60431,1.79888 16.41558,4.34724 20.43381,7.64507 4.0671,3.25507 6.10068,7.8164 6.10075,13.68401 -7e-5,6.68141 -3.03819,11.97084 -9.11437,15.8683 -6.0273,3.89749 -14.33312,5.84622 -24.9175,5.84623 -4.41021,-10e-6 -9.01639,-0.38548 -13.81855,-1.15639 -4.75321,-0.72811 -15.06809,-0.98972 -15.06809,-3.34071 l 0,-12.20639 c 0,-3.53111 10.73545,3.30892 14.77409,5.13953 3.22598,1.7878 9.65334,1.67036 14.40657,1.67036 6.3702,0 11.27039,-0.94225 14.70059,-2.82675 3.43007,-1.92731 5.14514,-4.62556 5.14519,-8.09476 -5e-5,-3.2122 -1.2496,-5.67488 -3.74864,-7.38809 -2.45014,-1.71315 -7.86486,-3.36208 -16.24415,-4.9468 l -4.70419,-0.96367 c -8.37935,-1.54181 -14.43109,-3.89744 -18.15522,-7.06686 -3.72416,-3.21216 -5.58623,-7.60218 -5.58623,-13.17005 0,-6.767 2.7441,-11.99219 8.23234,-15.67558 5.48819,-3.68326 13.25786,-5.5431 23.35229,-5.54318 4.99815,8e-5 10.22122,-0.09 14.67447,-0.23281 4.86076,-0.15585 9.17797,-0.60581 11.66121,4.10556" />
    <path
       inkscape:connector-curvature="0"
       style="font-size:84.45616913px;font-style:normal;font-weight:normal;fill:#ffffff;fill-opacity:1;stroke:none;font-family:Bitstream Vera Sans"
       sodipodi:nodetypes="czcccccsscscsccccscsc"
       id="path3766"
       d="m 611.35731,907.13087 c 0,0 0.26954,4.23732 -2.50729,6.52359 -2.7768,2.28628 -59.6762,-0.74161 -59.6762,-0.74161 0.588,8.13762 3.03927,13.54732 7.742,17.83025 5.04717,4.24012 12.69177,7.16075 21.65918,7.16073 13.19293,0.68357 31.05819,-4.00609 33.95566,-5.60672 l 4.38062,7.77287 c -5.47811,2.43449 -17.91275,5.50032 -23.63569,6.44257 -5.11333,0.84188 -10.26598,1.41337 -15.50913,1.41338 -13.13256,-10e-6 -27.22239,-2.53573 -34.91567,-9.21713 -7.64433,-6.68138 -7.78954,-16.52336 -7.78954,-27.91601 0,-11.77804 3.62614,-21.11487 10.87844,-28.01045 7.30127,-6.93831 17.12615,-10.40749 29.47469,-10.40757 11.07437,8e-5 21.83275,1.57693 28.25207,7.82996 6.46818,6.21032 7.69077,16.21884 7.69086,26.92614 m -13.52454,-3.46919 c -0.098,-6.46719 -2.18067,-11.62814 -6.24775,-15.48284 -4.01822,-3.85458 -9.35943,-5.78191 -16.02365,-5.78198 -7.54634,7e-5 -13.59806,1.86315 -18.15521,5.58924 -4.50821,3.72622 -10.27425,10.43669 -7.79132,15.73983 1.13508,2.42435 48.21793,-0.0642 48.21793,-0.0642" />
    <rect
       style="fill:#000000;fill-opacity:0;stroke:#000000;stroke-width:2.5999999;stroke-miterlimit:4;stroke-opacity:1;stroke-dasharray:none"
       id="rect4582"
       width="1485.7142"
       height="1622.8572"
       x="-360"
       y="-307.63782" />
    <g
       id="g3830"
       style="fill:#ffffff;fill-opacity:1;stroke:#ffffff;stroke-width:0;stroke-miterlimit:4;stroke-opacity:1;stroke-dasharray:none"
       transform="matrix(6.1295109,0,0,5.3810476,-11.337813,-4635.5518)">
      <path
         style="font-size:medium;font-style:normal;font-variant:normal;font-weight:normal;font-stretch:normal;text-indent:0;text-align:start;text-decoration:none;line-height:normal;letter-spacing:normal;word-spacing:normal;text-transform:none;direction:ltr;block-progression:tb;writing-mode:lr-tb;text-anchor:start;baseline-shift:baseline;color:#000000;fill:#ffffff;fill-opacity:1;stroke:#ffffff;stroke-width:0;stroke-miterlimit:4;stroke-opacity:1;stroke-dasharray:none;marker:none;visibility:visible;display:inline;overflow:visible;enable-background:accumulate;font-family:Sans;-inkscape-font-specification:Sans"
         d="m 12.6875,15.125 a 2.5114776,2.5114776 0 0 0 0.25,5 l 1.5,0 c 0.627747,0 0.857787,0.12205 1.3125,0.53125 0.454712,0.4093 0.997252,1.1834 1.625,2.125 0.483888,0.725817 1.021039,1.572821 1.75,2.375 -0.73593,0.806781 -1.263117,1.644692 -1.75,2.375 -0.627748,0.9416 -1.170286,1.7157 -1.625,2.125 -0.454714,0.4092 -0.684749,0.53125 -1.3125,0.53125 l -1.5,0 a 2.515625,2.515625 0 1 0 0,5.03125 l 1.5,0 c 1.883236,0 3.541596,-0.84055 4.65625,-1.84375 1.114653,-1.0032 1.809753,-2.1209 2.4375,-3.0625 0.627747,-0.9416 1.201536,-1.7158 1.65625,-2.125 0.454714,-0.4093 0.653499,-0.53125 1.28125,-0.53125 0.62775,0 0.857785,0.12195 1.3125,0.53125 0.454714,0.4092 0.997253,1.1834 1.625,2.125 0.627747,0.9416 1.354096,2.0593 2.46875,3.0625 1.114653,1.0032 2.773013,1.84375 4.65625,1.84375 l 1.5,0 a 2.515625,2.515625 0 0 0 0,-5.03125 l -1.5,0 c -0.627751,0 -0.857786,-0.12205 -1.3125,-0.53125 -0.454714,-0.4093 -0.997253,-1.1834 -1.625,-2.125 -0.489643,-0.734448 -1.03886,-1.563991 -1.78125,-2.375 0.273503,-0.290045 0.502817,-0.589033 0.71875,-0.875 1.183313,-1.567 2.005683,-3.0129 2.6875,-3.625 0.453166,-0.4069 0.686187,-0.53125 1.3125,-0.53125 l 1.5,0 a 2.5114776,2.5114776 0 0 0 0,-5 l -1.5,0 c -1.878947,0 -3.542198,0.8123 -4.65625,1.8125 -1.676176,1.5049 -2.525136,3.2285 -3.34375,4.3125 -0.818615,1.0841 -1.120165,1.40625 -2.0625,1.40625 -0.627748,0 -0.826538,-0.12195 -1.28125,-0.53125 C 22.732788,21.7158 22.158997,20.9416 21.53125,20 20.903503,19.0584 20.208405,17.9407 19.09375,16.9375 17.979094,15.9343 16.32074,15.125 14.4375,15.125 l -1.5,0 a 2.5114776,2.5114776 0 0 0 -0.25,0 z"
         transform="translate(0,1004.3622)"
         id="path6940"
         inkscape:connector-curvature="0" />
    </g>
  </g>
</svg>
