<?xml version="1.0" encoding="UTF-8" standalone="no"?>
<!DOCTYPE svg PUBLIC "-//W3C//DTD SVG 1.0//EN"
 "http://www.w3.org/TR/2001/REC-SVG-20010904/DTD/svg10.dtd" [
 <!ATTLIST svg xmlns:xlink CDATA #FIXED "http://www.w3.org/1999/xlink">
]>
<!-- Generated by Graphviz version 2.20.2 (Mon Mar 30 10:09:11 UTC 2009)
     For user: (qnull) qnull,,, -->
<!-- Title: G Pages: 1 -->
<svg width="432pt" height="201pt"
 viewBox="0.00 0.00 432.00 200.75" xmlns="http://www.w3.org/2000/svg" xmlns:xlink="http://www.w3.org/1999/xlink">
<g id="graph0" class="graph" transform="scale(0.492027 0.492027) rotate(0) translate(4 404)">
<title>G</title>
<polygon style="fill:white;stroke:white;" points="-4,4 -4,-404 874,-404 874,4 -4,4"/>
<!-- DbBrowser -->
<g id="node1" class="node"><title>DbBrowser</title>
<a xlink:href="/home/qnull/xnoise/src/xnoise/xnoise-db-browser.vala" xlink:title="xnoise&#45;db&#45;browser.vala @ 34">
<polygon style="fill:none;stroke:black;" points="205,-252 103,-252 103,-216 205,-216 205,-252"/>
<text text-anchor="middle" x="154" y="-229.6" style="font-family:sans;font-size:16.00;">DbBrowser</text>
</a>
</g>
<!-- MusicBrowser -->
<g id="node3" class="node"><title>MusicBrowser</title>
<a xlink:href="/home/qnull/xnoise/src/xnoise/xnoise-music-browser.vala" xlink:title="xnoise&#45;music&#45;browser.vala @ 35">
<polygon style="fill:none;stroke:black;" points="126,-180 4.26326e-14,-180 2.13163e-14,-144 126,-144 126,-180"/>
<text text-anchor="middle" x="63" y="-157.6" style="font-family:sans;font-size:16.00;">MusicBrowser</text>
</a>
</g>
<!-- DbBrowser&#45;&gt;MusicBrowser -->
<g id="edge2" class="edge"><title>DbBrowser&#45;&gt;MusicBrowser</title>
<path style="fill:none;stroke:black;" d="M131,-216C120,-207 106,-196 94,-186"/>
<polygon style="fill:black;stroke:black;" points="96.1,-183.2 86,-180 91.9,-188.8 96.1,-183.2"/>
</g>
<!-- TrackList -->
<g id="node5" class="node"><title>TrackList</title>
<a xlink:href="/home/qnull/xnoise/src/xnoise/xnoise-tracklist.vala" xlink:title="xnoise&#45;tracklist.vala @ 35">
<polygon style="fill:none;stroke:black;" points="268,-180 182,-180 182,-144 268,-144 268,-180"/>
<text text-anchor="middle" x="225" y="-157.6" style="font-family:sans;font-size:16.00;">TrackList</text>
</a>
</g>
<!-- DbBrowser&#45;&gt;TrackList -->
<g id="edge4" class="edge"><title>DbBrowser&#45;&gt;TrackList</title>
<path style="fill:none;stroke:black;" d="M172,-216C181,-207 191,-197 200,-188"/>
<polygon style="fill:black;stroke:black;" points="203.049,-189.831 207,-180 197.781,-185.221 203.049,-189.831"/>
</g>
<!-- MainWindow -->
<g id="node7" class="node"><title>MainWindow</title>
<a xlink:href="/home/qnull/xnoise/src/xnoise/xnoise-main-window.vala" xlink:title="xnoise&#45;main&#45;window.vala @ 34">
<polygon style="fill:none;stroke:black;" points="354,-108 238,-108 238,-72 354,-72 354,-108"/>
<text text-anchor="middle" x="296" y="-85.6" style="font-family:sans;font-size:16.00;">MainWindow</text>
</a>
</g>
<!-- DbBrowser&#45;&gt;MainWindow -->
<g id="edge6" class="edge"><title>DbBrowser&#45;&gt;MainWindow</title>
<path style="fill:none;stroke:black;" d="M153,-216C154,-196 157,-164 173,-144 187,-127 208,-115 228,-107"/>
<polygon style="fill:black;stroke:black;" points="230.015,-109.964 238,-103 227.415,-103.464 230.015,-109.964"/>
</g>
<!-- MusicBrowser&#45;&gt;MainWindow -->
<g id="edge22" class="edge"><title>MusicBrowser&#45;&gt;MainWindow</title>
<path style="fill:none;stroke:black;" d="M121,-144C154,-134 194,-121 228,-111"/>
<polygon style="fill:black;stroke:black;" points="229.427,-114.226 238,-108 227.416,-107.521 229.427,-114.226"/>
</g>
<!-- TrackList&#45;&gt;MainWindow -->
<g id="edge26" class="edge"><title>TrackList&#45;&gt;MainWindow</title>
<path style="fill:none;stroke:black;" d="M243,-144C252,-135 262,-125 271,-116"/>
<polygon style="fill:black;stroke:black;" points="274.049,-117.831 278,-108 268.781,-113.221 274.049,-117.831"/>
</g>
<!-- Main -->
<g id="node15" class="node"><title>Main</title>
<a xlink:href="/home/qnull/xnoise/src/xnoise/xnoise-main.vala" xlink:title="xnoise&#45;main.vala @ 31">
<polygon style="fill:none;stroke:black;" points="683,-36 629,-36 629,-1.06581e-14 683,-0 683,-36"/>
<text text-anchor="middle" x="656" y="-13.6" style="font-family:sans;font-size:16.00;">Main</text>
</a>
</g>
<!-- MainWindow&#45;&gt;Main -->
<g id="edge30" class="edge"><title>MainWindow&#45;&gt;Main</title>
<path style="fill:none;stroke:black;" d="M354,-78C429,-64 556,-38 619,-25"/>
<polygon style="fill:black;stroke:black;" points="619.881,-28.3933 629,-23 618.508,-21.5292 619.881,-28.3933"/>
</g>
<!-- MusicFolderDialog -->
<g id="node8" class="node"><title>MusicFolderDialog</title>
<a xlink:href="/home/qnull/xnoise/src/xnoise/xnoise-music-dir-dialog.vala" xlink:title="xnoise&#45;music&#45;dir&#45;dialog.vala @ 35">
<polyline style="fill:none;stroke:black;" points="433,-252 297,-252 "/>
<path style="fill:none;stroke:black;" d="M297,-252C291,-252 285,-246 285,-240"/>
<polyline style="fill:none;stroke:black;" points="285,-240 285,-228 "/>
<path style="fill:none;stroke:black;" d="M285,-228C285,-222 291,-216 297,-216"/>
<polyline style="fill:none;stroke:black;" points="297,-216 433,-216 "/>
<path style="fill:none;stroke:black;" d="M433,-216C439,-216 445,-222 445,-228"/>
<polyline style="fill:none;stroke:black;" points="445,-228 445,-240 "/>
<path style="fill:none;stroke:black;" d="M445,-240C445,-246 439,-252 433,-252"/>
<text text-anchor="middle" x="365" y="-229.6" style="font-family:sans;font-size:16.00;">MusicFolderDialog</text>
</a>
</g>
<!-- MusicFolderDialog&#45;&gt;MainWindow -->
<g id="edge10" class="edge"><title>MusicFolderDialog&#45;&gt;MainWindow</title>
<path style="fill:none;stroke:black;" d="M344,-216C334,-206 322,-194 315,-180 306,-161 301,-137 298,-118"/>
<polygon style="fill:black;stroke:black;" points="301.478,-117.602 297,-108 294.512,-118.299 301.478,-117.602"/>
</g>
<!-- SettingsDialog -->
<g id="node10" class="node"><title>SettingsDialog</title>
<a xlink:href="/home/qnull/xnoise/src/xnoise/xnoise-settings-dialog.vala" xlink:title="xnoise&#45;settings&#45;dialog.vala @ 34">
<polygon style="fill:none;stroke:black;" points="454,-180 324,-180 324,-144 454,-144 454,-180"/>
<text text-anchor="middle" x="389" y="-157.6" style="font-family:sans;font-size:16.00;">SettingsDialog</text>
</a>
</g>
<!-- MusicFolderDialog&#45;&gt;SettingsDialog -->
<g id="edge8" class="edge"><title>MusicFolderDialog&#45;&gt;SettingsDialog</title>
<path style="fill:none;stroke:black;" d="M371,-216C374,-208 377,-198 380,-190"/>
<polygon style="fill:black;stroke:black;" points="383.479,-190.584 383,-180 376.774,-188.573 383.479,-190.584"/>
</g>
<!-- SettingsDialog&#45;&gt;MainWindow -->
<g id="edge20" class="edge"><title>SettingsDialog&#45;&gt;MainWindow</title>
<path style="fill:none;stroke:black;" d="M366,-144C355,-135 340,-124 327,-114"/>
<polygon style="fill:black;stroke:black;" points="329.1,-111.2 319,-108 324.9,-116.8 329.1,-111.2"/>
</g>
<!-- DbWriter -->
<g id="node12" class="node"><title>DbWriter</title>
<a xlink:href="/home/qnull/xnoise/src/xnoise/xnoise-db-writer.vala" xlink:title="xnoise&#45;db&#45;writer.vala @ 34">
<polygon style="fill:none;stroke:black;" points="408,-324 322,-324 322,-288 408,-288 408,-324"/>
<text text-anchor="middle" x="365" y="-301.6" style="font-family:sans;font-size:16.00;">DbWriter</text>
</a>
</g>
<!-- DbWriter&#45;&gt;MusicFolderDialog -->
<g id="edge12" class="edge"><title>DbWriter&#45;&gt;MusicFolderDialog</title>
<path style="fill:none;stroke:black;" d="M365,-288C365,-280 365,-271 365,-262"/>
<polygon style="fill:black;stroke:black;" points="368.5,-262 365,-252 361.5,-262 368.5,-262"/>
</g>
<!-- DbWriter&#45;&gt;Main -->
<g id="edge14" class="edge"><title>DbWriter&#45;&gt;Main</title>
<path style="fill:none;stroke:black;" d="M408,-293C459,-275 543,-238 593,-180 625,-141 611,-119 631,-72 634,-63 638,-54 643,-45"/>
<polygon style="fill:black;stroke:black;" points="646.137,-46.5596 647,-36 639.74,-43.7166 646.137,-46.5596"/>
</g>
<!-- TagReader -->
<g id="node16" class="node"><title>TagReader</title>
<a xlink:href="/home/qnull/xnoise/src/xnoise/xnoise-tag-reader.vala" xlink:title="xnoise&#45;tag&#45;reader.vala @ 35">
<polyline style="fill:none;stroke:black;" points="342,-398 268,-398 "/>
<path style="fill:none;stroke:black;" d="M268,-398C262,-398 256,-392 256,-386"/>
<polyline style="fill:none;stroke:black;" points="256,-386 256,-374 "/>
<path style="fill:none;stroke:black;" d="M256,-374C256,-368 262,-362 268,-362"/>
<polyline style="fill:none;stroke:black;" points="268,-362 342,-362 "/>
<path style="fill:none;stroke:black;" d="M342,-362C348,-362 354,-368 354,-374"/>
<polyline style="fill:none;stroke:black;" points="354,-374 354,-386 "/>
<path style="fill:none;stroke:black;" d="M354,-386C354,-392 348,-398 342,-398"/>
<text text-anchor="middle" x="305" y="-375.6" style="font-family:sans;font-size:16.00;">TagReader</text>
</a>
</g>
<!-- TagReader&#45;&gt;TrackList -->
<g id="edge16" class="edge"><title>TagReader&#45;&gt;TrackList</title>
<path style="fill:none;stroke:black;" d="M298,-362C284,-323 252,-235 235,-189"/>
<polygon style="fill:black;stroke:black;" points="238.483,-188.38 232,-180 231.842,-190.594 238.483,-188.38"/>
</g>
<!-- TagReader&#45;&gt;DbWriter -->
<g id="edge18" class="edge"><title>TagReader&#45;&gt;DbWriter</title>
<path style="fill:none;stroke:black;" d="M320,-362C327,-353 336,-342 344,-332"/>
<polygon style="fill:black;stroke:black;" points="347.049,-333.831 351,-324 341.781,-329.221 347.049,-333.831"/>
</g>
<!-- AboutDialog -->
<g id="node21" class="node"><title>AboutDialog</title>
<a xlink:href="/home/qnull/xnoise/src/xnoise/xnoise-about.vala" xlink:title="xnoise&#45;about.vala @ 33">
<polygon style="fill:none;stroke:black;" points="584,-180 472,-180 472,-144 584,-144 584,-180"/>
<text text-anchor="middle" x="528" y="-157.6" style="font-family:sans;font-size:16.00;">AboutDialog</text>
</a>
</g>
<!-- AboutDialog&#45;&gt;MainWindow -->
<g id="edge24" class="edge"><title>AboutDialog&#45;&gt;MainWindow</title>
<path style="fill:none;stroke:black;" d="M472,-145C439,-135 398,-122 364,-111"/>
<polygon style="fill:black;stroke:black;" points="364.584,-107.521 354,-108 362.573,-114.226 364.584,-107.521"/>
</g>
<!-- PluginLoader -->
<g id="node24" class="node"><title>PluginLoader</title>
<a xlink:href="/home/qnull/xnoise/src/xnoise/xnoise-plugin-loader.vala" xlink:title="xnoise&#45;plugin&#45;loader.vala @ 31">
<polygon style="fill:none;stroke:black;" points="760,-108 640,-108 640,-72 760,-72 760,-108"/>
<text text-anchor="middle" x="700" y="-85.6" style="font-family:sans;font-size:16.00;">PluginLoader</text>
</a>
</g>
<!-- PluginLoader&#45;&gt;Main -->
<g id="edge28" class="edge"><title>PluginLoader&#45;&gt;Main</title>
<path style="fill:none;stroke:black;" d="M689,-72C684,-64 678,-54 672,-45"/>
<polygon style="fill:black;stroke:black;" points="674.916,-43.0418 667,-36 668.797,-46.4414 674.916,-43.0418"/>
</g>
<!-- GstPlayer -->
<g id="node27" class="node"><title>GstPlayer</title>
<a xlink:href="/home/qnull/xnoise/src/xnoise/xnoise-gst-player.vala" xlink:title="xnoise&#45;gst&#45;player.vala @ 33">
<polyline style="fill:none;stroke:black;" points="858,-108 790,-108 "/>
<path style="fill:none;stroke:black;" d="M790,-108C784,-108 778,-102 778,-96"/>
<polyline style="fill:none;stroke:black;" points="778,-96 778,-84 "/>
<path style="fill:none;stroke:black;" d="M778,-84C778,-78 784,-72 790,-72"/>
<polyline style="fill:none;stroke:black;" points="790,-72 858,-72 "/>
<path style="fill:none;stroke:black;" d="M858,-72C864,-72 870,-78 870,-84"/>
<polyline style="fill:none;stroke:black;" points="870,-84 870,-96 "/>
<path style="fill:none;stroke:black;" d="M870,-96C870,-102 864,-108 858,-108"/>
<text text-anchor="middle" x="824" y="-85.6" style="font-family:sans;font-size:16.00;">GstPlayer</text>
</a>
</g>
<!-- GstPlayer&#45;&gt;Main -->
<g id="edge32" class="edge"><title>GstPlayer&#45;&gt;Main</title>
<path style="fill:none;stroke:black;" d="M782,-72C754,-60 719,-45 692,-34"/>
<polygon style="fill:black;stroke:black;" points="693.56,-30.8631 683,-30 690.717,-37.2598 693.56,-30.8631"/>
</g>
<!-- AppStarter -->
<g id="node29" class="node"><title>AppStarter</title>
<a xlink:href="/home/qnull/xnoise/src/xnoise/xnoise-app-starter.vala" xlink:title="xnoise&#45;app&#45;starter.vala @ 31">
<polygon style="fill:none;stroke:black;" points="513.918,-386.118 443,-399.799 372.082,-386.118 372.148,-363.982 513.852,-363.982 513.918,-386.118"/>
<text text-anchor="middle" x="443" y="-375.6" style="font-family:sans;font-size:16.00;">AppStarter</text>
</a>
</g>
<!-- Params -->
<g id="node30" class="node"><title>Params</title>
<a xlink:href="/home/qnull/xnoise/src/xnoise/xnoise-parameter.vala" xlink:title="xnoise&#45;parameter.vala @ 33">
<polygon style="fill:none;stroke:black;" points="606,-398 532,-398 532,-362 606,-362 606,-398"/>
<text text-anchor="middle" x="569" y="-375.6" style="font-family:sans;font-size:16.00;">Params</text>
</a>
</g>
</g>
</svg>
