<?xml version="1.0" encoding="UTF-8" standalone="no"?>
<!DOCTYPE svg PUBLIC "-//W3C//DTD SVG 1.0//EN"
 "http://www.w3.org/TR/2001/REC-SVG-20010904/DTD/svg10.dtd" [
 <!ATTLIST svg xmlns:xlink CDATA #FIXED "http://www.w3.org/1999/xlink">
]>
<!-- Generated by Graphviz version 2.20.2 (Mon Mar 30 10:09:11 UTC 2009)
     For user: (qnull) qnull,,, -->
<!-- Title: G Pages: 1 -->
<svg width="432pt" height="231pt"
 viewBox="0.00 0.00 432.00 230.67" xmlns="http://www.w3.org/2000/svg" xmlns:xlink="http://www.w3.org/1999/xlink">
<g id="graph0" class="graph" transform="scale(0.40186 0.40186) rotate(0) translate(4 570)">
<title>G</title>
<polygon style="fill:white;stroke:white;" points="-4,4 -4,-570 1071,-570 1071,4 -4,4"/>
<!-- colors -->
<g id="node1" class="node"><title>colors</title>
<polygon style="fill:none;stroke:white;" points="272,-566 102,-566 102,-360 272,-360 272,-566"/>
<polygon style="fill:none;stroke:white;" points="110,-364 110,-562 264,-562 264,-364 110,-364"/>
<polygon style="fill:#e5deb7;stroke:#e5deb7;" points="111,-533 111,-561 263,-561 263,-533 111,-533"/>
<text text-anchor="start" x="117" y="-543.267" style="font-family:sans;font-size:16.00;fill:white;"> Gtk.TreeView </text>
<polygon style="fill:#c4e5b7;stroke:#c4e5b7;" points="111,-505 111,-533 263,-533 263,-505 111,-505"/>
<text text-anchor="start" x="117" y="-515.267" style="font-family:sans;font-size:16.00;fill:white;"> Object </text>
<polygon style="fill:#b7e5d1;stroke:#b7e5d1;" points="111,-477 111,-505 263,-505 263,-477 111,-477"/>
<text text-anchor="start" x="117" y="-487.267" style="font-family:sans;font-size:16.00;fill:white;"> GLib.Object </text>
<polygon style="fill:#b7d1e5;stroke:#b7d1e5;" points="111,-449 111,-477 263,-477 263,-449 111,-449"/>
<text text-anchor="start" x="117" y="-459.267" style="font-family:sans;font-size:16.00;fill:white;"> Gtk.Fixed </text>
<polygon style="fill:#c4b7e5;stroke:#c4b7e5;" points="111,-421 111,-449 263,-449 263,-421 111,-421"/>
<text text-anchor="start" x="117" y="-431.267" style="font-family:sans;font-size:16.00;fill:white;"> Gtk.AboutDialog </text>
<polygon style="fill:#e5b7de;stroke:#e5b7de;" points="111,-393 111,-421 263,-421 263,-393 111,-393"/>
<text text-anchor="start" x="117" y="-403.267" style="font-family:sans;font-size:16.00;fill:white;"> Gtk.Builder </text>
<polygon style="fill:#e5b7b7;stroke:#e5b7b7;" points="111,-365 111,-393 263,-393 263,-365 111,-365"/>
<text text-anchor="start" x="117" y="-375.267" style="font-family:sans;font-size:16.00;fill:white;"> TreeView </text>
</g>
<!-- DbBrowser -->
<g id="node2" class="node"><title>DbBrowser</title>
<a xlink:href="/home/qnull/xnoise/src/xnoise/xnoise-db-browser.vala" xlink:title="xnoise&#45;db&#45;browser.vala @ 33">
<polygon style="fill:#b7e5d1;stroke:black;" points="190,-252 88,-252 88,-216 190,-216 190,-252"/>
<text text-anchor="middle" x="139" y="-229.6" style="font-family:sans;font-size:16.00;">DbBrowser</text>
</a>
</g>
<!-- MusicBrowser -->
<g id="node4" class="node"><title>MusicBrowser</title>
<a xlink:href="/home/qnull/xnoise/src/xnoise/xnoise-media-browser.vala" xlink:title="xnoise&#45;media&#45;browser.vala @ 34">
<polygon style="fill:#e5b7b7;stroke:black;" points="135,-180 9,-180 9,-144 135,-144 135,-180"/>
<text text-anchor="middle" x="72" y="-157.6" style="font-family:sans;font-size:16.00;">MusicBrowser</text>
</a>
</g>
<!-- DbBrowser&#45;&gt;MusicBrowser -->
<g id="edge2" class="edge"><title>DbBrowser&#45;&gt;MusicBrowser</title>
<path style="fill:none;stroke:black;" d="M122,-216C114,-207 105,-197 96,-188"/>
<polygon style="fill:black;stroke:black;" points="98.2191,-185.221 89,-180 92.9511,-189.831 98.2191,-185.221"/>
</g>
<!-- AlbumImage -->
<g id="node6" class="node"><title>AlbumImage</title>
<a xlink:href="/home/qnull/xnoise/src/xnoise/xnoise-album-image.vala" xlink:title="xnoise&#45;album&#45;image.vala @ 34">
<polygon style="fill:#b7d1e5;stroke:black;" points="267,-180 153,-180 153,-144 267,-144 267,-180"/>
<text text-anchor="middle" x="210" y="-157.6" style="font-family:sans;font-size:16.00;">AlbumImage</text>
</a>
</g>
<!-- DbBrowser&#45;&gt;AlbumImage -->
<g id="edge4" class="edge"><title>DbBrowser&#45;&gt;AlbumImage</title>
<path style="fill:none;stroke:black;" d="M157,-216C166,-207 176,-197 185,-188"/>
<polygon style="fill:black;stroke:black;" points="188.049,-189.831 192,-180 182.781,-185.221 188.049,-189.831"/>
</g>
<!-- TrackList -->
<g id="node8" class="node"><title>TrackList</title>
<a xlink:href="/home/qnull/xnoise/src/xnoise/xnoise-tracklist.vala" xlink:title="xnoise&#45;tracklist.vala @ 34">
<polygon style="fill:#e5b7b7;stroke:black;" points="371,-180 285,-180 285,-144 371,-144 371,-180"/>
<text text-anchor="middle" x="328" y="-157.6" style="font-family:sans;font-size:16.00;">TrackList</text>
</a>
</g>
<!-- DbBrowser&#45;&gt;TrackList -->
<g id="edge6" class="edge"><title>DbBrowser&#45;&gt;TrackList</title>
<path style="fill:none;stroke:black;" d="M187,-216C214,-206 248,-193 276,-183"/>
<polygon style="fill:black;stroke:black;" points="277.283,-186.26 285,-179 274.44,-179.863 277.283,-186.26"/>
</g>
<!-- MainWindow -->
<g id="node10" class="node"><title>MainWindow</title>
<a xlink:href="/home/qnull/xnoise/src/xnoise/xnoise-main-window.vala" xlink:title="xnoise&#45;main&#45;window.vala @ 33">
<polygon style="fill:#b7e5d1;stroke:black;" points="422,-108 306,-108 306,-72 422,-72 422,-108"/>
<text text-anchor="middle" x="364" y="-85.6" style="font-family:sans;font-size:16.00;">MainWindow</text>
</a>
</g>
<!-- DbBrowser&#45;&gt;MainWindow -->
<g id="edge8" class="edge"><title>DbBrowser&#45;&gt;MainWindow</title>
<path style="fill:none;stroke:black;" d="M88,-222C37,-207 -31,-180 0,-144 19,-122 196,-104 296,-95"/>
<polygon style="fill:black;stroke:black;" points="296.398,-98.4778 306,-94 295.701,-91.5125 296.398,-98.4778"/>
</g>
<!-- MusicBrowser&#45;&gt;MainWindow -->
<g id="edge34" class="edge"><title>MusicBrowser&#45;&gt;MainWindow</title>
<path style="fill:none;stroke:black;" d="M135,-146C138,-145 141,-145 144,-144 195,-131 252,-117 296,-106"/>
<polygon style="fill:black;stroke:black;" points="296.881,-109.393 306,-104 295.508,-102.529 296.881,-109.393"/>
</g>
<!-- AlbumImage&#45;&gt;MainWindow -->
<g id="edge38" class="edge"><title>AlbumImage&#45;&gt;MainWindow</title>
<path style="fill:none;stroke:black;" d="M249,-144C269,-134 295,-122 317,-112"/>
<polygon style="fill:black;stroke:black;" points="318.283,-115.26 326,-108 315.44,-108.863 318.283,-115.26"/>
</g>
<!-- TrackList&#45;&gt;MainWindow -->
<g id="edge40" class="edge"><title>TrackList&#45;&gt;MainWindow</title>
<path style="fill:none;stroke:black;" d="M337,-144C341,-136 346,-126 351,-117"/>
<polygon style="fill:black;stroke:black;" points="354.137,-118.56 355,-108 347.74,-115.717 354.137,-118.56"/>
</g>
<!-- Main -->
<g id="node20" class="node"><title>Main</title>
<a xlink:href="/home/qnull/xnoise/src/xnoise/xnoise-main.vala" xlink:title="xnoise&#45;main.vala @ 31">
<polygon style="fill:#b7e5d1;stroke:black;" points="862,-36 808,-36 808,-1.06581e-14 862,-0 862,-36"/>
<text text-anchor="middle" x="835" y="-13.6" style="font-family:sans;font-size:16.00;">Main</text>
</a>
</g>
<!-- MainWindow&#45;&gt;Main -->
<g id="edge44" class="edge"><title>MainWindow&#45;&gt;Main</title>
<path style="fill:none;stroke:black;" d="M422,-81C520,-67 716,-37 798,-24"/>
<polygon style="fill:black;stroke:black;" points="798.881,-27.3933 808,-22 797.508,-20.5292 798.881,-27.3933"/>
</g>
<!-- MusicFolderDialog -->
<g id="node11" class="node"><title>MusicFolderDialog</title>
<a xlink:href="/home/qnull/xnoise/src/xnoise/xnoise-mediafolder-dialog.vala" xlink:title="xnoise&#45;mediafolder&#45;dialog.vala @ 34">
<polygon style="fill:#e5b7de;stroke:#e5b7de;" points="461,-252 325,-252 313,-240 313,-228 325,-216 461,-216 473,-228 473,-240 461,-252"/>
<path style="fill:#e5b7de;stroke:#e5b7de;" d="M325,-252C319,-252 313,-246 313,-240"/>
<path style="fill:#e5b7de;stroke:#e5b7de;" d="M313,-228C313,-222 319,-216 325,-216"/>
<path style="fill:#e5b7de;stroke:#e5b7de;" d="M461,-216C467,-216 473,-222 473,-228"/>
<path style="fill:#e5b7de;stroke:#e5b7de;" d="M473,-240C473,-246 467,-252 461,-252"/>
<polyline style="fill:none;stroke:black;" points="461,-252 325,-252 "/>
<path style="fill:none;stroke:black;" d="M325,-252C319,-252 313,-246 313,-240"/>
<polyline style="fill:none;stroke:black;" points="313,-240 313,-228 "/>
<path style="fill:none;stroke:black;" d="M313,-228C313,-222 319,-216 325,-216"/>
<polyline style="fill:none;stroke:black;" points="325,-216 461,-216 "/>
<path style="fill:none;stroke:black;" d="M461,-216C467,-216 473,-222 473,-228"/>
<polyline style="fill:none;stroke:black;" points="473,-228 473,-240 "/>
<path style="fill:none;stroke:black;" d="M473,-240C473,-246 467,-252 461,-252"/>
<text text-anchor="middle" x="393" y="-229.6" style="font-family:sans;font-size:16.00;">MusicFolderDialog</text>
</a>
</g>
<!-- MusicFolderDialog&#45;&gt;MainWindow -->
<g id="edge12" class="edge"><title>MusicFolderDialog&#45;&gt;MainWindow</title>
<path style="fill:none;stroke:black;" d="M391,-216C389,-197 385,-168 380,-144 378,-136 375,-126 373,-118"/>
<polygon style="fill:black;stroke:black;" points="376.226,-116.573 370,-108 369.521,-118.584 376.226,-116.573"/>
</g>
<!-- SettingsDialog -->
<g id="node13" class="node"><title>SettingsDialog</title>
<a xlink:href="/home/qnull/xnoise/src/xnoise/xnoise-settings-dialog.vala" xlink:title="xnoise&#45;settings&#45;dialog.vala @ 33">
<polygon style="fill:#e5b7de;stroke:black;" points="557,-180 427,-180 427,-144 557,-144 557,-180"/>
<text text-anchor="middle" x="492" y="-157.6" style="font-family:sans;font-size:16.00;">SettingsDialog</text>
</a>
</g>
<!-- MusicFolderDialog&#45;&gt;SettingsDialog -->
<g id="edge10" class="edge"><title>MusicFolderDialog&#45;&gt;SettingsDialog</title>
<path style="fill:none;stroke:black;" d="M418,-216C430,-207 445,-196 459,-186"/>
<polygon style="fill:black;stroke:black;" points="461.1,-188.8 467,-180 456.9,-183.2 461.1,-188.8"/>
</g>
<!-- SettingsDialog&#45;&gt;MainWindow -->
<g id="edge32" class="edge"><title>SettingsDialog&#45;&gt;MainWindow</title>
<path style="fill:none;stroke:black;" d="M460,-144C443,-135 422,-123 405,-113"/>
<polygon style="fill:black;stroke:black;" points="406.441,-109.797 396,-108 403.042,-115.916 406.441,-109.797"/>
</g>
<!-- Plugin -->
<g id="node15" class="node"><title>Plugin</title>
<a xlink:href="/home/qnull/xnoise/src/xnoise/xnoise-plugin.vala" xlink:title="xnoise&#45;plugin.vala @ 31">
<polygon style="fill:#b7e5d1;stroke:black;" points="743,-252 677,-252 677,-216 743,-216 743,-252"/>
<text text-anchor="middle" x="710" y="-229.6" style="font-family:sans;font-size:16.00;">Plugin</text>
</a>
</g>
<!-- Plugin&#45;&gt;SettingsDialog -->
<g id="edge16" class="edge"><title>Plugin&#45;&gt;SettingsDialog</title>
<path style="fill:none;stroke:black;" d="M677,-219C674,-218 671,-217 668,-216 635,-203 599,-192 567,-183"/>
<polygon style="fill:black;stroke:black;" points="567.584,-179.521 557,-180 565.573,-186.226 567.584,-179.521"/>
</g>
<!-- PluginLoader -->
<g id="node17" class="node"><title>PluginLoader</title>
<a xlink:href="/home/qnull/xnoise/src/xnoise/xnoise-plugin-loader.vala" xlink:title="xnoise&#45;plugin&#45;loader.vala @ 31">
<polygon style="fill:#c4e5b7;stroke:black;" points="895,-180 775,-180 775,-144 895,-144 895,-180"/>
<text text-anchor="middle" x="835" y="-157.6" style="font-family:sans;font-size:16.00;">PluginLoader</text>
</a>
</g>
<!-- Plugin&#45;&gt;PluginLoader -->
<g id="edge14" class="edge"><title>Plugin&#45;&gt;PluginLoader</title>
<path style="fill:none;stroke:black;" d="M742,-216C758,-207 778,-195 795,-185"/>
<polygon style="fill:black;stroke:black;" points="796.958,-187.916 804,-180 793.559,-181.797 796.958,-187.916"/>
</g>
<!-- Plugin&#45;&gt;Main -->
<g id="edge18" class="edge"><title>Plugin&#45;&gt;Main</title>
<path style="fill:none;stroke:black;" d="M720,-216C741,-178 793,-90 819,-45"/>
<polygon style="fill:black;stroke:black;" points="822.203,-46.4414 824,-36 816.084,-43.0418 822.203,-46.4414"/>
</g>
<!-- PluginLoader&#45;&gt;Main -->
<g id="edge42" class="edge"><title>PluginLoader&#45;&gt;Main</title>
<path style="fill:none;stroke:black;" d="M835,-144C835,-119 835,-75 835,-46"/>
<polygon style="fill:black;stroke:black;" points="838.5,-46 835,-36 831.5,-46 838.5,-46"/>
</g>
<!-- DbWriter -->
<g id="node21" class="node"><title>DbWriter</title>
<a xlink:href="/home/qnull/xnoise/src/xnoise/xnoise-db-writer.vala" xlink:title="xnoise&#45;db&#45;writer.vala @ 33">
<polygon style="fill:#b7e5d1;stroke:black;" points="436,-324 350,-324 350,-288 436,-288 436,-324"/>
<text text-anchor="middle" x="393" y="-301.6" style="font-family:sans;font-size:16.00;">DbWriter</text>
</a>
</g>
<!-- DbWriter&#45;&gt;MusicFolderDialog -->
<g id="edge20" class="edge"><title>DbWriter&#45;&gt;MusicFolderDialog</title>
<path style="fill:none;stroke:black;" d="M393,-288C393,-280 393,-271 393,-262"/>
<polygon style="fill:black;stroke:black;" points="396.5,-262 393,-252 389.5,-262 396.5,-262"/>
</g>
<!-- DbWriter&#45;&gt;Main -->
<g id="edge22" class="edge"><title>DbWriter&#45;&gt;Main</title>
<path style="fill:none;stroke:black;" d="M436,-305C558,-301 894,-288 928,-252 984,-189 905,-90 861,-43"/>
<polygon style="fill:black;stroke:black;" points="863.546,-40.5962 854,-36 858.596,-45.546 863.546,-40.5962"/>
</g>
<!-- TagReader -->
<g id="node24" class="node"><title>TagReader</title>
<a xlink:href="/home/qnull/xnoise/src/xnoise/xnoise-tag-reader.vala" xlink:title="xnoise&#45;tag&#45;reader.vala @ 32">
<polygon style="fill:#b7e5d1;stroke:#b7e5d1;" points="376,-481 302,-481 290,-469 290,-457 302,-445 376,-445 388,-457 388,-469 376,-481"/>
<path style="fill:#b7e5d1;stroke:#b7e5d1;" d="M302,-481C296,-481 290,-475 290,-469"/>
<path style="fill:#b7e5d1;stroke:#b7e5d1;" d="M290,-457C290,-451 296,-445 302,-445"/>
<path style="fill:#b7e5d1;stroke:#b7e5d1;" d="M376,-445C382,-445 388,-451 388,-457"/>
<path style="fill:#b7e5d1;stroke:#b7e5d1;" d="M388,-469C388,-475 382,-481 376,-481"/>
<polyline style="fill:none;stroke:black;" points="376,-481 302,-481 "/>
<path style="fill:none;stroke:black;" d="M302,-481C296,-481 290,-475 290,-469"/>
<polyline style="fill:none;stroke:black;" points="290,-469 290,-457 "/>
<path style="fill:none;stroke:black;" d="M290,-457C290,-451 296,-445 302,-445"/>
<polyline style="fill:none;stroke:black;" points="302,-445 376,-445 "/>
<path style="fill:none;stroke:black;" d="M376,-445C382,-445 388,-451 388,-457"/>
<polyline style="fill:none;stroke:black;" points="388,-457 388,-469 "/>
<path style="fill:none;stroke:black;" d="M388,-469C388,-475 382,-481 376,-481"/>
<text text-anchor="middle" x="339" y="-458.6" style="font-family:sans;font-size:16.00;">TagReader</text>
</a>
</g>
<!-- TagReader&#45;&gt;TrackList -->
<g id="edge24" class="edge"><title>TagReader&#45;&gt;TrackList</title>
<path style="fill:none;stroke:black;" d="M332,-445C318,-404 286,-300 304,-216 306,-207 310,-197 314,-189"/>
<polygon style="fill:black;stroke:black;" points="317.137,-190.56 318,-180 310.74,-187.717 317.137,-190.56"/>
</g>
<!-- TagReader&#45;&gt;DbWriter -->
<g id="edge26" class="edge"><title>TagReader&#45;&gt;DbWriter</title>
<path style="fill:none;stroke:black;" d="M345,-445C354,-418 372,-366 384,-333"/>
<polygon style="fill:black;stroke:black;" points="387.158,-334.594 387,-324 380.517,-332.38 387.158,-334.594"/>
</g>
<!-- PluginManagerTree -->
<g id="node27" class="node"><title>PluginManagerTree</title>
<a xlink:href="/home/qnull/xnoise/src/xnoise/xnoise-plugin-manager-tree.vala" xlink:title="xnoise&#45;plugin&#45;manager&#45;tree.vala @ 33">
<polygon style="fill:#e5deb7;stroke:black;" points="659,-252 491,-252 491,-216 659,-216 659,-252"/>
<text text-anchor="middle" x="575" y="-229.6" style="font-family:sans;font-size:16.00;">PluginManagerTree</text>
</a>
</g>
<!-- PluginManagerTree&#45;&gt;SettingsDialog -->
<g id="edge28" class="edge"><title>PluginManagerTree&#45;&gt;SettingsDialog</title>
<path style="fill:none;stroke:black;" d="M554,-216C544,-207 531,-196 520,-187"/>
<polygon style="fill:black;stroke:black;" points="521.831,-183.951 512,-180 517.221,-189.219 521.831,-183.951"/>
</g>
<!-- PluginInformation -->
<g id="node29" class="node"><title>PluginInformation</title>
<a xlink:href="/home/qnull/xnoise/src/xnoise/xnoise-plugin-information.vala" xlink:title="xnoise&#45;plugin&#45;information.vala @ 31">
<polygon style="fill:#b7e5d1;stroke:black;" points="919,-252 761,-252 761,-216 919,-216 919,-252"/>
<text text-anchor="middle" x="840" y="-229.6" style="font-family:sans;font-size:16.00;">PluginInformation</text>
</a>
</g>
<!-- PluginInformation&#45;&gt;PluginLoader -->
<g id="edge30" class="edge"><title>PluginInformation&#45;&gt;PluginLoader</title>
<path style="fill:none;stroke:black;" d="M839,-216C838,-208 838,-199 837,-190"/>
<polygon style="fill:black;stroke:black;" points="840.478,-189.602 836,-180 833.512,-190.299 840.478,-189.602"/>
</g>
<!-- AboutDialog -->
<g id="node33" class="node"><title>AboutDialog</title>
<a xlink:href="/home/qnull/xnoise/src/xnoise/xnoise-about.vala" xlink:title="xnoise&#45;about.vala @ 33">
<polygon style="fill:#c4b7e5;stroke:black;" points="687,-180 575,-180 575,-144 687,-144 687,-180"/>
<text text-anchor="middle" x="631" y="-157.6" style="font-family:sans;font-size:16.00;">AboutDialog</text>
</a>
</g>
<!-- AboutDialog&#45;&gt;MainWindow -->
<g id="edge36" class="edge"><title>AboutDialog&#45;&gt;MainWindow</title>
<path style="fill:none;stroke:black;" d="M575,-146C572,-145 569,-145 566,-144 521,-132 471,-118 432,-108"/>
<polygon style="fill:black;stroke:black;" points="432.584,-104.521 422,-105 430.573,-111.226 432.584,-104.521"/>
</g>
<!-- GstPlayer -->
<g id="node39" class="node"><title>GstPlayer</title>
<a xlink:href="/home/qnull/xnoise/src/xnoise/xnoise-gst-player.vala" xlink:title="xnoise&#45;gst&#45;player.vala @ 33">
<polygon style="fill:#b7e5d1;stroke:black;" points="1067,-108 975,-108 975,-72 1067,-72 1067,-108"/>
<text text-anchor="middle" x="1021" y="-85.6" style="font-family:sans;font-size:16.00;">GstPlayer</text>
</a>
</g>
<!-- GstPlayer&#45;&gt;Main -->
<g id="edge46" class="edge"><title>GstPlayer&#45;&gt;Main</title>
<path style="fill:none;stroke:black;" d="M975,-72C943,-60 901,-44 871,-33"/>
<polygon style="fill:black;stroke:black;" points="872.56,-29.8631 862,-29 869.717,-36.2598 872.56,-29.8631"/>
</g>
<!-- AppStarter -->
<g id="node41" class="node"><title>AppStarter</title>
<a xlink:href="/home/qnull/xnoise/src/xnoise/xnoise-app-starter.vala" xlink:title="xnoise&#45;app&#45;starter.vala @ 31">
<polygon style="fill:#b7e5d1;stroke:black;" points="506,-481 503,-485 482,-485 479,-481 406,-481 406,-445 506,-445 506,-481"/>
<text text-anchor="middle" x="456" y="-458.6" style="font-family:sans;font-size:16.00;">AppStarter</text>
</a>
</g>
<!-- Params -->
<g id="node42" class="node"><title>Params</title>
<a xlink:href="/home/qnull/xnoise/src/xnoise/xnoise-parameter.vala" xlink:title="xnoise&#45;parameter.vala @ 31">
<polygon style="fill:#b7e5d1;stroke:black;" points="598,-481 524,-481 524,-445 598,-445 598,-481"/>
<text text-anchor="middle" x="561" y="-458.6" style="font-family:sans;font-size:16.00;">Params</text>
</a>
</g>
</g>
</svg>
