<?xml version="1.0" encoding="UTF-8" standalone="no"?>
<!DOCTYPE svg PUBLIC "-//W3C//DTD SVG 1.0//EN"
 "http://www.w3.org/TR/2001/REC-SVG-20010904/DTD/svg10.dtd" [
 <!ATTLIST svg xmlns:xlink CDATA #FIXED "http://www.w3.org/1999/xlink">
]>
<!-- Generated by Graphviz version 2.20.2 (Mon Mar 30 10:09:11 UTC 2009)
     For user: (qnull) qnull,,, -->
<!-- Title: G Pages: 1 -->
<svg width="432pt" height="225pt"
 viewBox="0.00 0.00 432.00 225.07" xmlns="http://www.w3.org/2000/svg" xmlns:xlink="http://www.w3.org/1999/xlink">
<g id="graph0" class="graph" transform="scale(0.412214 0.412214) rotate(0) translate(4 542)">
<title>G</title>
<polygon style="fill:white;stroke:white;" points="-4,4 -4,-542 1044,-542 1044,4 -4,4"/>
<!-- colors -->
<g id="node1" class="node"><title>colors</title>
<polygon style="fill:none;stroke:white;" points="372,-538 202,-538 202,-360 372,-360 372,-538"/>
<polygon style="fill:none;stroke:white;" points="210,-364 210,-534 364,-534 364,-364 210,-364"/>
<polygon style="fill:#e5e5b7;stroke:#e5e5b7;" points="211,-505 211,-533 363,-533 363,-505 211,-505"/>
<text text-anchor="start" x="217" y="-515.267" style="font-family:sans;font-size:16.00;fill:white;"> Object </text>
<polygon style="fill:#b7e5b7;stroke:#b7e5b7;" points="211,-477 211,-505 363,-505 363,-477 211,-477"/>
<text text-anchor="start" x="217" y="-487.267" style="font-family:sans;font-size:16.00;fill:white;"> GLib.Object </text>
<polygon style="fill:#b7e5e5;stroke:#b7e5e5;" points="211,-449 211,-477 363,-477 363,-449 211,-449"/>
<text text-anchor="start" x="217" y="-459.267" style="font-family:sans;font-size:16.00;fill:white;"> Gtk.Fixed </text>
<polygon style="fill:#b7b7e5;stroke:#b7b7e5;" points="211,-421 211,-449 363,-449 363,-421 211,-421"/>
<text text-anchor="start" x="217" y="-431.267" style="font-family:sans;font-size:16.00;fill:white;"> Gtk.AboutDialog </text>
<polygon style="fill:#e5b7e5;stroke:#e5b7e5;" points="211,-393 211,-421 363,-421 363,-393 211,-393"/>
<text text-anchor="start" x="217" y="-403.267" style="font-family:sans;font-size:16.00;fill:white;"> Gtk.Builder </text>
<polygon style="fill:#e5b7b7;stroke:#e5b7b7;" points="211,-365 211,-393 363,-393 363,-365 211,-365"/>
<text text-anchor="start" x="217" y="-375.267" style="font-family:sans;font-size:16.00;fill:white;"> TreeView </text>
</g>
<!-- DbBrowser -->
<g id="node2" class="node"><title>DbBrowser</title>
<a xlink:href="/home/qnull/xnoise/src/xnoise/xnoise-db-browser.vala" xlink:title="xnoise&#45;db&#45;browser.vala @ 34">
<polygon style="fill:#b7e5b7;stroke:black;" points="294,-252 192,-252 192,-216 294,-216 294,-252"/>
<text text-anchor="middle" x="243" y="-229.6" style="font-family:sans;font-size:16.00;">DbBrowser</text>
</a>
</g>
<!-- MusicBrowser -->
<g id="node4" class="node"><title>MusicBrowser</title>
<a xlink:href="/home/qnull/xnoise/src/xnoise/xnoise-music-browser.vala" xlink:title="xnoise&#45;music&#45;browser.vala @ 35">
<polygon style="fill:#e5b7b7;stroke:black;" points="126,-180 4.26326e-14,-180 2.13163e-14,-144 126,-144 126,-180"/>
<text text-anchor="middle" x="63" y="-157.6" style="font-family:sans;font-size:16.00;">MusicBrowser</text>
</a>
</g>
<!-- DbBrowser&#45;&gt;MusicBrowser -->
<g id="edge2" class="edge"><title>DbBrowser&#45;&gt;MusicBrowser</title>
<path style="fill:none;stroke:black;" d="M198,-216C173,-206 143,-194 117,-184"/>
<polygon style="fill:black;stroke:black;" points="118.56,-180.863 108,-180 115.717,-187.26 118.56,-180.863"/>
</g>
<!-- AlbumImage -->
<g id="node6" class="node"><title>AlbumImage</title>
<a xlink:href="/home/qnull/xnoise/src/xnoise/xnoise-album-image.vala" xlink:title="xnoise&#45;album&#45;image.vala @ 34">
<polygon style="fill:#b7e5e5;stroke:black;" points="258,-180 144,-180 144,-144 258,-144 258,-180"/>
<text text-anchor="middle" x="201" y="-157.6" style="font-family:sans;font-size:16.00;">AlbumImage</text>
</a>
</g>
<!-- DbBrowser&#45;&gt;AlbumImage -->
<g id="edge4" class="edge"><title>DbBrowser&#45;&gt;AlbumImage</title>
<path style="fill:none;stroke:black;" d="M232,-216C227,-208 222,-198 216,-189"/>
<polygon style="fill:black;stroke:black;" points="218.916,-187.042 211,-180 212.797,-190.441 218.916,-187.042"/>
</g>
<!-- TrackList -->
<g id="node8" class="node"><title>TrackList</title>
<a xlink:href="/home/qnull/xnoise/src/xnoise/xnoise-tracklist.vala" xlink:title="xnoise&#45;tracklist.vala @ 35">
<polygon style="fill:#e5b7b7;stroke:black;" points="400,-180 314,-180 314,-144 400,-144 400,-180"/>
<text text-anchor="middle" x="357" y="-157.6" style="font-family:sans;font-size:16.00;">TrackList</text>
</a>
</g>
<!-- DbBrowser&#45;&gt;TrackList -->
<g id="edge6" class="edge"><title>DbBrowser&#45;&gt;TrackList</title>
<path style="fill:none;stroke:black;" d="M272,-216C287,-207 305,-196 320,-186"/>
<polygon style="fill:black;stroke:black;" points="322.621,-188.459 329,-180 318.738,-182.635 322.621,-188.459"/>
</g>
<!-- MainWindow -->
<g id="node10" class="node"><title>MainWindow</title>
<a xlink:href="/home/qnull/xnoise/src/xnoise/xnoise-main-window.vala" xlink:title="xnoise&#45;main&#45;window.vala @ 34">
<polygon style="fill:#e5b7e5;stroke:black;" points="451,-108 335,-108 335,-72 451,-72 451,-108"/>
<text text-anchor="middle" x="393" y="-85.6" style="font-family:sans;font-size:16.00;">MainWindow</text>
</a>
</g>
<!-- DbBrowser&#45;&gt;MainWindow -->
<g id="edge8" class="edge"><title>DbBrowser&#45;&gt;MainWindow</title>
<path style="fill:none;stroke:black;" d="M253,-216C263,-196 283,-165 305,-144 317,-133 333,-122 347,-113"/>
<polygon style="fill:black;stroke:black;" points="348.958,-115.916 356,-108 345.559,-109.797 348.958,-115.916"/>
</g>
<!-- MusicBrowser&#45;&gt;MainWindow -->
<g id="edge30" class="edge"><title>MusicBrowser&#45;&gt;MainWindow</title>
<path style="fill:none;stroke:black;" d="M126,-146C129,-145 132,-145 135,-144 200,-129 273,-114 325,-103"/>
<polygon style="fill:black;stroke:black;" points="325.881,-106.393 335,-101 324.508,-99.5292 325.881,-106.393"/>
</g>
<!-- AlbumImage&#45;&gt;MainWindow -->
<g id="edge34" class="edge"><title>AlbumImage&#45;&gt;MainWindow</title>
<path style="fill:none;stroke:black;" d="M249,-144C275,-134 308,-122 336,-112"/>
<polygon style="fill:black;stroke:black;" points="337.283,-115.26 345,-108 334.44,-108.863 337.283,-115.26"/>
</g>
<!-- TrackList&#45;&gt;MainWindow -->
<g id="edge36" class="edge"><title>TrackList&#45;&gt;MainWindow</title>
<path style="fill:none;stroke:black;" d="M366,-144C370,-136 375,-126 380,-117"/>
<polygon style="fill:black;stroke:black;" points="383.137,-118.56 384,-108 376.74,-115.717 383.137,-118.56"/>
</g>
<!-- Main -->
<g id="node18" class="node"><title>Main</title>
<a xlink:href="/home/qnull/xnoise/src/xnoise/xnoise-main.vala" xlink:title="xnoise&#45;main.vala @ 31">
<polygon style="fill:#b7e5b7;stroke:black;" points="809,-36 755,-36 755,-1.06581e-14 809,-0 809,-36"/>
<text text-anchor="middle" x="782" y="-13.6" style="font-family:sans;font-size:16.00;">Main</text>
</a>
</g>
<!-- MainWindow&#45;&gt;Main -->
<g id="edge40" class="edge"><title>MainWindow&#45;&gt;Main</title>
<path style="fill:none;stroke:black;" d="M451,-79C533,-64 677,-38 745,-25"/>
<polygon style="fill:black;stroke:black;" points="745.881,-28.3933 755,-23 744.508,-21.5292 745.881,-28.3933"/>
</g>
<!-- MusicFolderDialog -->
<g id="node11" class="node"><title>MusicFolderDialog</title>
<a xlink:href="/home/qnull/xnoise/src/xnoise/xnoise-music-dir-dialog.vala" xlink:title="xnoise&#45;music&#45;dir&#45;dialog.vala @ 35">
<polygon style="fill:#e5b7e5;stroke:#e5b7e5;" points="575,-252 439,-252 427,-240 427,-228 439,-216 575,-216 587,-228 587,-240 575,-252"/>
<path style="fill:#e5b7e5;stroke:#e5b7e5;" d="M439,-252C433,-252 427,-246 427,-240"/>
<path style="fill:#e5b7e5;stroke:#e5b7e5;" d="M427,-228C427,-222 433,-216 439,-216"/>
<path style="fill:#e5b7e5;stroke:#e5b7e5;" d="M575,-216C581,-216 587,-222 587,-228"/>
<path style="fill:#e5b7e5;stroke:#e5b7e5;" d="M587,-240C587,-246 581,-252 575,-252"/>
<polyline style="fill:none;stroke:black;" points="575,-252 439,-252 "/>
<path style="fill:none;stroke:black;" d="M439,-252C433,-252 427,-246 427,-240"/>
<polyline style="fill:none;stroke:black;" points="427,-240 427,-228 "/>
<path style="fill:none;stroke:black;" d="M427,-228C427,-222 433,-216 439,-216"/>
<polyline style="fill:none;stroke:black;" points="439,-216 575,-216 "/>
<path style="fill:none;stroke:black;" d="M575,-216C581,-216 587,-222 587,-228"/>
<polyline style="fill:none;stroke:black;" points="587,-228 587,-240 "/>
<path style="fill:none;stroke:black;" d="M587,-240C587,-246 581,-252 575,-252"/>
<text text-anchor="middle" x="507" y="-229.6" style="font-family:sans;font-size:16.00;">MusicFolderDialog</text>
</a>
</g>
<!-- MusicFolderDialog&#45;&gt;MainWindow -->
<g id="edge12" class="edge"><title>MusicFolderDialog&#45;&gt;MainWindow</title>
<path style="fill:none;stroke:black;" d="M484,-216C472,-206 458,-193 447,-180 431,-160 416,-136 407,-117"/>
<polygon style="fill:black;stroke:black;" points="409.916,-115.042 402,-108 403.797,-118.441 409.916,-115.042"/>
</g>
<!-- SettingsDialog -->
<g id="node13" class="node"><title>SettingsDialog</title>
<a xlink:href="/home/qnull/xnoise/src/xnoise/xnoise-settings-dialog.vala" xlink:title="xnoise&#45;settings&#45;dialog.vala @ 34">
<polygon style="fill:#e5b7e5;stroke:black;" points="586,-180 456,-180 456,-144 586,-144 586,-180"/>
<text text-anchor="middle" x="521" y="-157.6" style="font-family:sans;font-size:16.00;">SettingsDialog</text>
</a>
</g>
<!-- MusicFolderDialog&#45;&gt;SettingsDialog -->
<g id="edge10" class="edge"><title>MusicFolderDialog&#45;&gt;SettingsDialog</title>
<path style="fill:none;stroke:black;" d="M511,-216C512,-208 514,-199 516,-190"/>
<polygon style="fill:black;stroke:black;" points="519.471,-190.492 518,-180 512.607,-189.119 519.471,-190.492"/>
</g>
<!-- SettingsDialog&#45;&gt;MainWindow -->
<g id="edge28" class="edge"><title>SettingsDialog&#45;&gt;MainWindow</title>
<path style="fill:none;stroke:black;" d="M489,-144C472,-135 451,-123 434,-113"/>
<polygon style="fill:black;stroke:black;" points="435.441,-109.797 425,-108 432.042,-115.916 435.441,-109.797"/>
</g>
<!-- DbWriter -->
<g id="node15" class="node"><title>DbWriter</title>
<a xlink:href="/home/qnull/xnoise/src/xnoise/xnoise-db-writer.vala" xlink:title="xnoise&#45;db&#45;writer.vala @ 34">
<polygon style="fill:#b7e5b7;stroke:black;" points="550,-324 464,-324 464,-288 550,-288 550,-324"/>
<text text-anchor="middle" x="507" y="-301.6" style="font-family:sans;font-size:16.00;">DbWriter</text>
</a>
</g>
<!-- DbWriter&#45;&gt;MusicFolderDialog -->
<g id="edge14" class="edge"><title>DbWriter&#45;&gt;MusicFolderDialog</title>
<path style="fill:none;stroke:black;" d="M507,-288C507,-280 507,-271 507,-262"/>
<polygon style="fill:black;stroke:black;" points="510.5,-262 507,-252 503.5,-262 510.5,-262"/>
</g>
<!-- DbWriter&#45;&gt;Main -->
<g id="edge16" class="edge"><title>DbWriter&#45;&gt;Main</title>
<path style="fill:none;stroke:black;" d="M550,-291C599,-273 678,-236 725,-180 758,-140 772,-81 778,-46"/>
<polygon style="fill:black;stroke:black;" points="781.471,-46.4922 780,-36 774.607,-45.1194 781.471,-46.4922"/>
</g>
<!-- TagReader -->
<g id="node19" class="node"><title>TagReader</title>
<a xlink:href="/home/qnull/xnoise/src/xnoise/xnoise-tag-reader.vala" xlink:title="xnoise&#45;tag&#45;reader.vala @ 35">
<polygon style="fill:#b7e5b7;stroke:#b7e5b7;" points="476,-467 402,-467 390,-455 390,-443 402,-431 476,-431 488,-443 488,-455 476,-467"/>
<path style="fill:#b7e5b7;stroke:#b7e5b7;" d="M402,-467C396,-467 390,-461 390,-455"/>
<path style="fill:#b7e5b7;stroke:#b7e5b7;" d="M390,-443C390,-437 396,-431 402,-431"/>
<path style="fill:#b7e5b7;stroke:#b7e5b7;" d="M476,-431C482,-431 488,-437 488,-443"/>
<path style="fill:#b7e5b7;stroke:#b7e5b7;" d="M488,-455C488,-461 482,-467 476,-467"/>
<polyline style="fill:none;stroke:black;" points="476,-467 402,-467 "/>
<path style="fill:none;stroke:black;" d="M402,-467C396,-467 390,-461 390,-455"/>
<polyline style="fill:none;stroke:black;" points="390,-455 390,-443 "/>
<path style="fill:none;stroke:black;" d="M390,-443C390,-437 396,-431 402,-431"/>
<polyline style="fill:none;stroke:black;" points="402,-431 476,-431 "/>
<path style="fill:none;stroke:black;" d="M476,-431C482,-431 488,-437 488,-443"/>
<polyline style="fill:none;stroke:black;" points="488,-443 488,-455 "/>
<path style="fill:none;stroke:black;" d="M488,-455C488,-461 482,-467 476,-467"/>
<text text-anchor="middle" x="439" y="-444.6" style="font-family:sans;font-size:16.00;">TagReader</text>
</a>
</g>
<!-- TagReader&#45;&gt;TrackList -->
<g id="edge18" class="edge"><title>TagReader&#45;&gt;TrackList</title>
<path style="fill:none;stroke:black;" d="M434,-431C420,-382 382,-248 365,-190"/>
<polygon style="fill:black;stroke:black;" points="368.226,-188.573 362,-180 361.521,-190.584 368.226,-188.573"/>
</g>
<!-- TagReader&#45;&gt;DbWriter -->
<g id="edge20" class="edge"><title>TagReader&#45;&gt;DbWriter</title>
<path style="fill:none;stroke:black;" d="M448,-431C460,-406 480,-362 494,-333"/>
<polygon style="fill:black;stroke:black;" points="497.137,-334.56 498,-324 490.74,-331.717 497.137,-334.56"/>
</g>
<!-- Plugin -->
<g id="node22" class="node"><title>Plugin</title>
<a xlink:href="/home/qnull/xnoise/src/xnoise/xnoise-plugin.vala" xlink:title="xnoise&#45;plugin.vala @ 31">
<polygon style="fill:#b7e5b7;stroke:black;" points="838,-180 772,-180 772,-144 838,-144 838,-180"/>
<text text-anchor="middle" x="805" y="-157.6" style="font-family:sans;font-size:16.00;">Plugin</text>
</a>
</g>
<!-- Plugin&#45;&gt;Main -->
<g id="edge24" class="edge"><title>Plugin&#45;&gt;Main</title>
<path style="fill:none;stroke:black;" d="M802,-144C798,-119 791,-75 786,-46"/>
<polygon style="fill:black;stroke:black;" points="789.478,-45.6021 785,-36 782.512,-46.2987 789.478,-45.6021"/>
</g>
<!-- PluginLoader -->
<g id="node24" class="node"><title>PluginLoader</title>
<a xlink:href="/home/qnull/xnoise/src/xnoise/xnoise-plugin-loader.vala" xlink:title="xnoise&#45;plugin&#45;loader.vala @ 31">
<polygon style="fill:#e5e5b7;stroke:black;" points="930,-108 810,-108 810,-72 930,-72 930,-108"/>
<text text-anchor="middle" x="870" y="-85.6" style="font-family:sans;font-size:16.00;">PluginLoader</text>
</a>
</g>
<!-- Plugin&#45;&gt;PluginLoader -->
<g id="edge22" class="edge"><title>Plugin&#45;&gt;PluginLoader</title>
<path style="fill:none;stroke:black;" d="M821,-144C829,-135 838,-125 847,-116"/>
<polygon style="fill:black;stroke:black;" points="850.049,-117.831 854,-108 844.781,-113.221 850.049,-117.831"/>
</g>
<!-- PluginLoader&#45;&gt;Main -->
<g id="edge38" class="edge"><title>PluginLoader&#45;&gt;Main</title>
<path style="fill:none;stroke:black;" d="M848,-72C837,-63 824,-52 812,-42"/>
<polygon style="fill:black;stroke:black;" points="814.1,-39.2 804,-36 809.9,-44.8 814.1,-39.2"/>
</g>
<!-- PluginInformation -->
<g id="node26" class="node"><title>PluginInformation</title>
<a xlink:href="/home/qnull/xnoise/src/xnoise/xnoise-plugin-information.vala" xlink:title="xnoise&#45;plugin&#45;information.vala @ 31">
<polygon style="fill:#b7e5b7;stroke:black;" points="1014,-180 856,-180 856,-144 1014,-144 1014,-180"/>
<text text-anchor="middle" x="935" y="-157.6" style="font-family:sans;font-size:16.00;">PluginInformation</text>
</a>
</g>
<!-- PluginInformation&#45;&gt;PluginLoader -->
<g id="edge26" class="edge"><title>PluginInformation&#45;&gt;PluginLoader</title>
<path style="fill:none;stroke:black;" d="M919,-144C911,-135 902,-125 893,-116"/>
<polygon style="fill:black;stroke:black;" points="895.219,-113.221 886,-108 889.951,-117.831 895.219,-113.221"/>
</g>
<!-- AboutDialog -->
<g id="node30" class="node"><title>AboutDialog</title>
<a xlink:href="/home/qnull/xnoise/src/xnoise/xnoise-about.vala" xlink:title="xnoise&#45;about.vala @ 33">
<polygon style="fill:#b7b7e5;stroke:black;" points="716,-180 604,-180 604,-144 716,-144 716,-180"/>
<text text-anchor="middle" x="660" y="-157.6" style="font-family:sans;font-size:16.00;">AboutDialog</text>
</a>
</g>
<!-- AboutDialog&#45;&gt;MainWindow -->
<g id="edge32" class="edge"><title>AboutDialog&#45;&gt;MainWindow</title>
<path style="fill:none;stroke:black;" d="M604,-146C601,-145 598,-145 595,-144 550,-132 500,-118 461,-108"/>
<polygon style="fill:black;stroke:black;" points="461.584,-104.521 451,-105 459.573,-111.226 461.584,-104.521"/>
</g>
<!-- GstPlayer -->
<g id="node36" class="node"><title>GstPlayer</title>
<a xlink:href="/home/qnull/xnoise/src/xnoise/xnoise-gst-player.vala" xlink:title="xnoise&#45;gst&#45;player.vala @ 33">
<polygon style="fill:#b7e5b7;stroke:black;" points="1040,-108 948,-108 948,-72 1040,-72 1040,-108"/>
<text text-anchor="middle" x="994" y="-85.6" style="font-family:sans;font-size:16.00;">GstPlayer</text>
</a>
</g>
<!-- GstPlayer&#45;&gt;Main -->
<g id="edge42" class="edge"><title>GstPlayer&#45;&gt;Main</title>
<path style="fill:none;stroke:black;" d="M948,-74C910,-61 855,-43 819,-30"/>
<polygon style="fill:black;stroke:black;" points="819.584,-26.5212 809,-27 817.573,-33.2259 819.584,-26.5212"/>
</g>
<!-- AppStarter -->
<g id="node38" class="node"><title>AppStarter</title>
<a xlink:href="/home/qnull/xnoise/src/xnoise/xnoise-app-starter.vala" xlink:title="xnoise&#45;app&#45;starter.vala @ 31">
<polygon style="fill:#b7e5b7;stroke:black;" points="606,-467 603,-471 582,-471 579,-467 506,-467 506,-431 606,-431 606,-467"/>
<text text-anchor="middle" x="556" y="-444.6" style="font-family:sans;font-size:16.00;">AppStarter</text>
</a>
</g>
<!-- Params -->
<g id="node39" class="node"><title>Params</title>
<a xlink:href="/home/qnull/xnoise/src/xnoise/xnoise-parameter.vala" xlink:title="xnoise&#45;parameter.vala @ 33">
<polygon style="fill:#b7e5b7;stroke:black;" points="698,-467 624,-467 624,-431 698,-431 698,-467"/>
<text text-anchor="middle" x="661" y="-444.6" style="font-family:sans;font-size:16.00;">Params</text>
</a>
</g>
</g>
</svg>
