<?xml version="1.0" encoding="UTF-8" standalone="no"?>
<!-- Created with Inkscape (http://www.inkscape.org/) -->

<svg
   xmlns:dc="http://purl.org/dc/elements/1.1/"
   xmlns:cc="http://creativecommons.org/ns#"
   xmlns:rdf="http://www.w3.org/1999/02/22-rdf-syntax-ns#"
   xmlns:svg="http://www.w3.org/2000/svg"
   xmlns="http://www.w3.org/2000/svg"
   xmlns:sodipodi="http://sodipodi.sourceforge.net/DTD/sodipodi-0.dtd"
   xmlns:inkscape="http://www.inkscape.org/namespaces/inkscape"
   width="32px"
   height="32px"
   id="svg3062"
   version="1.1"
   inkscape:version="0.48.3.1 r9886"
   sodipodi:docname="xn-magnatune.svg">
  <defs
     id="defs3064">
    <filter
       inkscape:collect="always"
       id="filter3861"
       x="-0.051013396"
       width="1.1020268"
       y="-0.45323444"
       height="1.9064689">
      <feGaussianBlur
         inkscape:collect="always"
         stdDeviation="0.43848244"
         id="feGaussianBlur3863" />
    </filter>
  </defs>
  <sodipodi:namedview
     id="base"
     pagecolor="#ffffff"
     bordercolor="#666666"
     borderopacity="1.0"
     inkscape:pageopacity="0.0"
     inkscape:pageshadow="2"
     inkscape:zoom="11.197802"
     inkscape:cx="14.999177"
     inkscape:cy="15.14746"
     inkscape:current-layer="layer1"
     showgrid="true"
     inkscape:grid-bbox="true"
     inkscape:document-units="px"
     inkscape:window-width="1317"
     inkscape:window-height="744"
     inkscape:window-x="49"
     inkscape:window-y="24"
     inkscape:window-maximized="1" />
  <metadata
     id="metadata3067">
    <rdf:RDF>
      <cc:Work
         rdf:about="">
        <dc:format>image/svg+xml</dc:format>
        <dc:type
           rdf:resource="http://purl.org/dc/dcmitype/StillImage" />
        <dc:title />
      </cc:Work>
    </rdf:RDF>
  </metadata>
  <g
     id="layer1"
     inkscape:label="Layer 1"
     inkscape:groupmode="layer">
    <path
       sodipodi:type="arc"
       style="fill:#6a6a6a;fill-opacity:0.38235294;fill-rule:evenodd;stroke:none;filter:url(#filter3861)"
       id="path3083"
       sodipodi:cx="11.02895"
       sodipodi:cy="29.946026"
       sodipodi:rx="10.314525"
       sodipodi:ry="1.1609421"
       d="m 21.343474,29.946026 a 10.314525,1.1609421 0 1 1 -20.62904891,0 10.314525,1.1609421 0 1 1 20.62904891,0 z"
       transform="matrix(0.88134922,0,0,1.6069567,6.5933165,-18.812508)" />
    <g
       id="g2990"
       transform="matrix(0.92301171,0,0,0.91454781,1.1872864,0.02131321)">
      <path
         transform="translate(-1.2502454,-0.26790972)"
         d="m 30.095191,16.148674 c 0,7.274821 -5.797451,13.172228 -12.94897,13.172228 -7.1515184,0 -12.9489697,-5.897407 -12.9489697,-13.172228 0,-7.2748206 5.7974513,-13.1722278 12.9489697,-13.1722278 7.151519,0 12.94897,5.8974072 12.94897,13.1722278 z"
         sodipodi:ry="13.172228"
         sodipodi:rx="12.94897"
         sodipodi:cy="16.148674"
         sodipodi:cx="17.146221"
         id="path3881"
         style="fill:#ffffff;fill-opacity:1;stroke:#ffffff;stroke-width:0.2;stroke-miterlimit:4;stroke-opacity:1;stroke-dasharray:none"
         sodipodi:type="arc" />
      <path
         id="path59"
         d="m 0.40877997,15.923417 c 0,8.59 6.98800003,15.578 15.57600003,15.578 8.589,0 15.577,-6.988 15.577,-15.578 0,-8.5859999 -6.988,-15.57400018 -15.577,-15.57400018 -8.588,0 -15.57600003,6.98800028 -15.57600003,15.57400018 z m 3.15100003,0 c 0,-6.8519999 5.574,-12.4240002 12.425,-12.4240002 6.851,0 12.428,5.5720003 12.428,12.4240002 0,6.855 -5.577,12.428 -12.428,12.428 -6.851,0 -12.425,-5.573 -12.425,-12.428 z"
         inkscape:connector-curvature="0"
         style="fill:#006da5;stroke:#ffffff;stroke-width:0.2;stroke-miterlimit:4;stroke-opacity:1;stroke-dasharray:none" />
      <path
         id="path61"
         d="m 17.73378,22.331417 c 0,1.008 -0.817,1.824 -1.825,1.824 l 0,0 c -1.005,0 -1.822,-0.816 -1.822,-1.824 V 7.7434171 c 0,-1.008 0.816,-1.824 1.822,-1.824 l 0,0 c 1.008,0 1.825,0.816 1.825,1.824 V 22.331417 z"
         inkscape:connector-curvature="0"
         style="fill:#006da5;stroke:#ffffff;stroke-width:0.2;stroke-miterlimit:4;stroke-opacity:1;stroke-dasharray:none" />
      <path
         id="path63"
         d="m 11.73178,22.331417 c 0,1.008 -0.818,1.824 -1.826,1.824 l 0,0 c -1.005,0 -1.822,-0.816 -1.822,-1.824 v -7.752 c 0,-1.004 0.817,-1.822 1.822,-1.822 l 0,0 c 1.008,0 1.826,0.818 1.826,1.822 v 7.752 z"
         inkscape:connector-curvature="0"
         style="fill:#006da5;stroke:#ffffff;stroke-width:0.2;stroke-miterlimit:4;stroke-opacity:1;stroke-dasharray:none" />
      <path
         id="path65"
         d="m 23.73578,22.331417 c 0,1.008 -0.816,1.824 -1.824,1.824 l 0,0 c -1.005,0 -1.822,-0.816 -1.822,-1.824 v -7.752 c 0,-1.004 0.817,-1.822 1.822,-1.822 l 0,0 c 1.008,0 1.824,0.818 1.824,1.822 v 7.752 z"
         inkscape:connector-curvature="0"
         style="fill:#006da5;stroke:#ffffff;stroke-width:0.2;stroke-miterlimit:4;stroke-opacity:1;stroke-dasharray:none" />
    </g>
  </g>
</svg>
